<?xml version="1.0" encoding="UTF-8"?>
<!-- Generator: Adobe Illustrator 13.0.1, SVG Export Plug-In  -->
<!DOCTYPE svg PUBLIC "-//W3C//DTD SVG 1.1//EN" "http://www.w3.org/Graphics/SVG/1.1/DTD/svg11.dtd" [
	<!ENTITY ns_flows "http://ns.adobe.com/Flows/1.0/">
]>
<svg version="1.1" xmlns="http://www.w3.org/2000/svg" xmlns:xlink="http://www.w3.org/1999/xlink" xmlns:a="http://ns.adobe.com/AdobeSVGViewerExtensions/3.0/" x="0px" y="0px" width="644px" height="645px" viewBox="0 -1 644 645" enable-background="new 0 -1 644 645" xml:space="preserve">
<defs>
	
		<pattern x="-80" y="722" width="69" height="69" patternUnits="userSpaceOnUse" id="Polka_Dot_Pattern" viewBox="2.1 -70.9 69 69" overflow="visible">
		<g>
			<polygon fill="none" points="71.1,-1.9 2.1,-1.9 2.1,-70.9 71.1,-70.9    "/>
			<polygon fill="#F6BB60" points="71.1,-1.9 2.1,-1.9 2.1,-70.9 71.1,-70.9    "/>
			<g>
				<path fill="#FFFFFF" d="M61.8-71.7c0,0.1,0,0.1,0,0.2c-0.1,0.1-0.1,0.1-0.2,0.1c-0.1,0.1-0.1,0.3-0.1,0.4c-0.2,0.1,0,0.2,0,0.3      c0,0,0,0.1,0,0.2c0,0.1,0,0.3,0.1,0.4c0.1,0.2,0.3,0.4,0.4,0.5c0.2,0.1,0.4,0.6,0.6,0.6c0.2,0,0.4-0.1,0.5-0.1      c0.2,0,0.4,0,0.6-0.1c0.2-0.1,0.1-0.3,0.3-0.5c0.1-0.1,0.3,0,0.4-0.1c0.2-0.1,0.3-0.3,0.4-0.5c0-0.1,0-0.1,0-0.2      c0-0.1,0.1-0.2,0.1-0.3c0-0.1-0.1-0.1-0.1-0.2c0-0.1,0-0.2,0-0.3c0-0.2,0-0.4-0.1-0.5c-0.4-0.7-1.2-0.9-2-0.8      c-0.2,0-0.3,0.1-0.4,0.2c-0.2,0.1-0.1,0.2-0.3,0.2c-0.1,0-0.2,0.1-0.2,0.2C61.8-71.7,61.8-71.7,61.8-71.7      C61.8-71.6,61.8-71.6,61.8-71.7"/>
				<path fill="#FFFFFF" d="M54.1-71.7c0,0.1,0,0.1,0,0.2c-0.1,0.1-0.1,0.1-0.2,0.1c-0.1,0.1-0.1,0.3-0.1,0.4c-0.2,0.1,0,0.2,0,0.3      c0,0,0,0.1,0,0.2c0,0.1,0,0.3,0.1,0.4c0.1,0.2,0.3,0.4,0.4,0.5c0.2,0.1,0.4,0.6,0.6,0.6c0.2,0,0.4-0.1,0.5-0.1      c0.2,0,0.4,0,0.6-0.1c0.2-0.1,0.1-0.3,0.3-0.5c0.1-0.1,0.3,0,0.4-0.1c0.2-0.1,0.3-0.3,0.4-0.5c0-0.1,0-0.1,0-0.2      c0-0.1,0.1-0.2,0.1-0.3c0-0.1-0.1-0.1-0.1-0.2c0-0.1,0-0.2,0-0.3c0-0.2,0-0.4-0.1-0.5c-0.4-0.7-1.2-0.9-2-0.8      c-0.2,0-0.3,0.1-0.4,0.2c-0.2,0.1-0.1,0.2-0.3,0.2c-0.1,0-0.2,0.1-0.2,0.2C54.1-71.7,54.1-71.7,54.1-71.7      C54.1-71.6,54.1-71.6,54.1-71.7"/>
				<path fill="#FFFFFF" d="M46.4-71.7c0,0.1,0,0.1,0,0.2c-0.1,0.1-0.1,0.1-0.2,0.1c-0.1,0.1-0.1,0.3-0.1,0.4c-0.2,0.1,0,0.2,0,0.3      c0,0,0,0.1,0,0.2c0,0.1,0,0.3,0.1,0.4c0.1,0.2,0.3,0.4,0.4,0.5c0.2,0.1,0.4,0.6,0.6,0.6c0.2,0,0.4-0.1,0.5-0.1      c0.2,0,0.4,0,0.6-0.1c0.2-0.1,0.1-0.3,0.3-0.5c0.1-0.1,0.3,0,0.4-0.1c0.2-0.1,0.3-0.3,0.4-0.5c0-0.1,0-0.1,0-0.2      c0-0.1,0.1-0.2,0.1-0.3c0-0.1-0.1-0.1-0.1-0.2c0-0.1,0-0.2,0-0.3c0-0.2,0-0.4-0.1-0.5c-0.4-0.7-1.2-0.9-2-0.8      c-0.2,0-0.3,0.1-0.4,0.2c-0.2,0.1-0.1,0.2-0.3,0.2c-0.1,0-0.2,0.1-0.2,0.2C46.4-71.7,46.4-71.7,46.4-71.7      C46.4-71.6,46.4-71.6,46.4-71.7"/>
				<path fill="#FFFFFF" d="M38.8-71.7c0,0.1,0,0.1,0,0.2c-0.1,0.1-0.1,0.1-0.2,0.1c-0.1,0.1-0.1,0.3-0.1,0.4c-0.2,0.1,0,0.2,0,0.3      c0,0,0,0.1,0,0.2c0,0.1,0,0.3,0.1,0.4c0.1,0.2,0.3,0.4,0.4,0.5c0.2,0.1,0.4,0.6,0.6,0.6c0.2,0,0.4-0.1,0.5-0.1      c0.2,0,0.4,0,0.6-0.1c0.2-0.1,0.1-0.3,0.3-0.5c0.1-0.1,0.3,0,0.4-0.1c0.2-0.1,0.3-0.3,0.4-0.5c0-0.1,0-0.1,0-0.2      c0-0.1,0.1-0.2,0.1-0.3c0-0.1-0.1-0.1-0.1-0.2c0-0.1,0-0.2,0-0.3c0-0.2,0-0.4-0.1-0.5c-0.4-0.7-1.2-0.9-2-0.8      c-0.2,0-0.3,0.1-0.4,0.2c-0.2,0.1-0.1,0.2-0.3,0.2c-0.1,0-0.2,0.1-0.2,0.2C38.8-71.7,38.8-71.7,38.8-71.7      C38.8-71.6,38.8-71.6,38.8-71.7"/>
				<path fill="#FFFFFF" d="M31.1-71.7c0,0.1,0,0.1,0,0.2c-0.1,0.1-0.1,0.1-0.2,0.1c-0.1,0.1-0.1,0.3-0.1,0.4c-0.2,0.1,0,0.2,0,0.3      c0,0,0,0.1,0,0.2c0,0.1,0,0.3,0.1,0.4c0.1,0.2,0.3,0.4,0.4,0.5c0.2,0.1,0.4,0.6,0.6,0.6c0.2,0,0.4-0.1,0.5-0.1      c0.2,0,0.4,0,0.6-0.1c0.2-0.1,0.1-0.3,0.3-0.5c0.1-0.1,0.3,0,0.4-0.1c0.2-0.1,0.3-0.3,0.4-0.5c0-0.1,0-0.1,0-0.2      c0-0.1,0.1-0.2,0.1-0.3c0-0.1-0.1-0.1-0.1-0.2c0-0.1,0-0.2,0-0.3c0-0.2,0-0.4-0.1-0.5c-0.4-0.7-1.2-0.9-2-0.8      c-0.2,0-0.3,0.1-0.4,0.2c-0.2,0.1-0.1,0.2-0.3,0.2c-0.1,0-0.2,0.1-0.2,0.2C31.1-71.7,31.1-71.7,31.1-71.7      C31.1-71.6,31.1-71.6,31.1-71.7"/>
				<path fill="#FFFFFF" d="M23.4-71.7c0,0.1,0,0.1,0,0.2c-0.1,0.1-0.1,0.1-0.2,0.1c-0.1,0.1-0.1,0.3-0.1,0.4c-0.2,0.1,0,0.2,0,0.3      c0,0,0,0.1,0,0.2c0,0.1,0,0.3,0.1,0.4c0.1,0.2,0.3,0.4,0.4,0.5c0.2,0.1,0.4,0.6,0.6,0.6c0.2,0,0.4-0.1,0.5-0.1      c0.2,0,0.4,0,0.6-0.1c0.2-0.1,0.1-0.3,0.3-0.5c0.1-0.1,0.3,0,0.4-0.1c0.2-0.1,0.3-0.3,0.4-0.5c0-0.1,0-0.1,0-0.2      c0-0.1,0.1-0.2,0.1-0.3c0-0.1-0.1-0.1-0.1-0.2c0-0.1,0-0.2,0-0.3c0-0.2,0-0.4-0.1-0.5c-0.4-0.7-1.2-0.9-2-0.8      c-0.2,0-0.3,0.1-0.4,0.2c-0.2,0.1-0.1,0.2-0.3,0.2c-0.1,0-0.2,0.1-0.2,0.2C23.4-71.7,23.4-71.7,23.4-71.7      C23.4-71.6,23.4-71.6,23.4-71.7"/>
				<path fill="#FFFFFF" d="M15.8-71.7c0,0.1,0,0.1,0,0.2c-0.1,0.1-0.1,0.1-0.2,0.1c-0.1,0.1-0.1,0.3-0.1,0.4c-0.2,0.1,0,0.2,0,0.3      c0,0,0,0.1,0,0.2c0,0.1,0,0.3,0.1,0.4c0.1,0.2,0.3,0.4,0.4,0.5c0.2,0.1,0.4,0.6,0.6,0.6c0.2,0,0.4-0.1,0.5-0.1      c0.2,0,0.4,0,0.6-0.1c0.2-0.1,0.1-0.3,0.3-0.5c0.1-0.1,0.3,0,0.4-0.1c0.2-0.1,0.3-0.3,0.4-0.5c0-0.1,0-0.1,0-0.2      c0-0.1,0.1-0.2,0.1-0.3c0-0.1-0.1-0.1-0.1-0.2c0-0.1,0-0.2,0-0.3c0-0.2,0-0.4-0.1-0.5c-0.4-0.7-1.2-0.9-2-0.8      c-0.2,0-0.3,0.1-0.4,0.2c-0.2,0.1-0.1,0.2-0.3,0.2c-0.1,0-0.2,0.1-0.2,0.2C15.8-71.7,15.8-71.7,15.8-71.7      C15.8-71.6,15.8-71.6,15.8-71.7"/>
				<path fill="#FFFFFF" d="M8.1-71.7c0,0.1,0,0.1,0,0.2C8-71.4,8-71.4,7.9-71.3c-0.1,0.1-0.1,0.3-0.1,0.4c-0.2,0.1,0,0.2,0,0.3      c0,0,0,0.1,0,0.2c0,0.1,0,0.3,0.1,0.4c0.1,0.2,0.3,0.4,0.4,0.5c0.2,0.1,0.4,0.6,0.6,0.6c0.2,0,0.4-0.1,0.5-0.1      c0.2,0,0.4,0,0.6-0.1c0.2-0.1,0.1-0.3,0.3-0.5c0.1-0.1,0.3,0,0.4-0.1c0.2-0.1,0.3-0.3,0.4-0.5c0-0.1,0-0.1,0-0.2      c0-0.1,0.1-0.2,0.1-0.3c0-0.1-0.1-0.1-0.1-0.2c0-0.1,0-0.2,0-0.3c0-0.2,0-0.4-0.1-0.5c-0.4-0.7-1.2-0.9-2-0.8      c-0.2,0-0.3,0.1-0.4,0.2c-0.2,0.1-0.1,0.2-0.3,0.2c-0.1,0-0.2,0.1-0.2,0.2C8.1-71.7,8.1-71.7,8.1-71.7      C8.1-71.6,8.1-71.6,8.1-71.7"/>
				<path fill="#FFFFFF" d="M0.4-71.7c0,0.1,0,0.1,0,0.2c-0.1,0.1-0.1,0.1-0.2,0.1c-0.1,0.1-0.1,0.3-0.1,0.4c-0.2,0.1,0,0.2,0,0.3      c0,0,0,0.1,0,0.2c0,0.1,0,0.3,0.1,0.4c0.1,0.2,0.3,0.4,0.4,0.5C0.8-69.4,1-69,1.2-68.9c0.2,0,0.4-0.1,0.5-0.1      c0.2,0,0.4,0,0.6-0.1c0.2-0.1,0.1-0.3,0.3-0.5c0.1-0.1,0.3,0,0.4-0.1c0.2-0.1,0.3-0.3,0.4-0.5c0-0.1,0-0.1,0-0.2      c0-0.1,0.1-0.2,0.1-0.3c0-0.1-0.1-0.1-0.1-0.2c0-0.1,0-0.2,0-0.3c0-0.2,0-0.4-0.1-0.5c-0.4-0.7-1.2-0.9-2-0.8      c-0.2,0-0.3,0.1-0.4,0.2c-0.2,0.1-0.1,0.2-0.3,0.2c-0.1,0-0.2,0.1-0.2,0.2C0.4-71.7,0.4-71.7,0.4-71.7      C0.4-71.6,0.4-71.6,0.4-71.7"/>
			</g>
			<g>
				<path fill="#FFFFFF" d="M69.4-71.7c0,0.1,0,0.1,0,0.2c-0.1,0.1-0.1,0.1-0.2,0.1c-0.1,0.1-0.1,0.3-0.1,0.4c-0.2,0.1,0,0.2,0,0.3      c0,0,0,0.1,0,0.2c0,0.1,0,0.3,0.1,0.4c0.1,0.2,0.3,0.4,0.4,0.5c0.2,0.1,0.4,0.6,0.6,0.6c0.2,0,0.4-0.1,0.5-0.1      c0.2,0,0.4,0,0.6-0.1c0.2-0.1,0.1-0.3,0.3-0.5c0.1-0.1,0.3,0,0.4-0.1c0.2-0.1,0.3-0.3,0.4-0.5c0-0.1,0-0.1,0-0.2      c0-0.1,0.1-0.2,0.1-0.3c0-0.1-0.1-0.1-0.1-0.2c0-0.1,0-0.2,0-0.3c0-0.2,0-0.4-0.1-0.5c-0.4-0.7-1.2-0.9-2-0.8      c-0.2,0-0.3,0.1-0.4,0.2c-0.2,0.1-0.1,0.2-0.3,0.2c-0.1,0-0.2,0.1-0.2,0.2C69.4-71.7,69.4-71.7,69.4-71.7      C69.4-71.6,69.4-71.6,69.4-71.7"/>
			</g>
			<path fill="#FFFFFF" d="M0.5-71.7c0,0.1,0,0.1,0,0.2c-0.1,0.1-0.1,0.1-0.2,0.1c-0.1,0.1-0.1,0.3-0.1,0.4c-0.2,0.1,0,0.2,0,0.3     c0,0,0,0.1,0,0.2c0,0.1,0,0.3,0.1,0.4c0.1,0.2,0.3,0.4,0.4,0.5C0.9-69.4,1-69,1.3-68.9c0.2,0,0.4-0.1,0.5-0.1     c0.2,0,0.4,0,0.6-0.1c0.2-0.1,0.1-0.3,0.3-0.5c0.1-0.1,0.3,0,0.4-0.1c0.2-0.1,0.3-0.3,0.4-0.5c0-0.1,0-0.1,0-0.2     c0-0.1,0.1-0.2,0.1-0.3c0-0.1-0.1-0.1-0.1-0.2c0-0.1,0-0.2,0-0.3c0-0.2,0-0.4-0.1-0.5c-0.4-0.7-1.2-0.9-2-0.8     c-0.2,0-0.3,0.1-0.4,0.2c-0.2,0.1-0.1,0.2-0.3,0.2c-0.1,0-0.2,0.1-0.2,0.2C0.5-71.7,0.5-71.7,0.5-71.7     C0.5-71.6,0.5-71.6,0.5-71.7"/>
			<g>
				<g>
					<path fill="#FFFFFF" d="M69.4-64c0,0.1,0,0.1,0,0.2c-0.1,0.1-0.1,0.1-0.2,0.1c-0.1,0.1-0.1,0.3-0.1,0.4c-0.2,0.1,0,0.2,0,0.3       c0,0,0,0.1,0,0.2c0,0.1,0,0.3,0.1,0.4c0.1,0.2,0.3,0.4,0.4,0.5c0.2,0.1,0.4,0.6,0.6,0.6c0.2,0,0.4-0.1,0.5-0.1       c0.2,0,0.4,0,0.6-0.1c0.2-0.1,0.1-0.3,0.3-0.5c0.1-0.1,0.3,0,0.4-0.1c0.2-0.1,0.3-0.3,0.4-0.5c0-0.1,0-0.1,0-0.2       c0-0.1,0.1-0.2,0.1-0.3c0-0.1-0.1-0.1-0.1-0.2c0-0.1,0-0.2,0-0.3c0-0.2,0-0.4-0.1-0.5c-0.4-0.7-1.2-0.9-2-0.8       c-0.2,0-0.3,0.1-0.4,0.2c-0.2,0.1-0.1,0.2-0.3,0.2c-0.1,0-0.2,0.1-0.2,0.2C69.4-64,69.4-64.1,69.4-64C69.4-64,69.4-64,69.4-64"/>
					<path fill="#FFFFFF" d="M61.8-64c0,0.1,0,0.1,0,0.2c-0.1,0.1-0.1,0.1-0.2,0.1c-0.1,0.1-0.1,0.3-0.1,0.4c-0.2,0.1,0,0.2,0,0.3       c0,0,0,0.1,0,0.2c0,0.1,0,0.3,0.1,0.4c0.1,0.2,0.3,0.4,0.4,0.5c0.2,0.1,0.4,0.6,0.6,0.6c0.2,0,0.4-0.1,0.5-0.1       c0.2,0,0.4,0,0.6-0.1c0.2-0.1,0.1-0.3,0.3-0.5c0.1-0.1,0.3,0,0.4-0.1c0.2-0.1,0.3-0.3,0.4-0.5c0-0.1,0-0.1,0-0.2       c0-0.1,0.1-0.2,0.1-0.3c0-0.1-0.1-0.1-0.1-0.2c0-0.1,0-0.2,0-0.3c0-0.2,0-0.4-0.1-0.5c-0.4-0.7-1.2-0.9-2-0.8       c-0.2,0-0.3,0.1-0.4,0.2c-0.2,0.1-0.1,0.2-0.3,0.2c-0.1,0-0.2,0.1-0.2,0.2C61.8-64,61.8-64.1,61.8-64C61.8-64,61.8-64,61.8-64"/>
					<path fill="#FFFFFF" d="M54.1-64c0,0.1,0,0.1,0,0.2c-0.1,0.1-0.1,0.1-0.2,0.1c-0.1,0.1-0.1,0.3-0.1,0.4c-0.2,0.1,0,0.2,0,0.3       c0,0,0,0.1,0,0.2c0,0.1,0,0.3,0.1,0.4c0.1,0.2,0.3,0.4,0.4,0.5c0.2,0.1,0.4,0.6,0.6,0.6c0.2,0,0.4-0.1,0.5-0.1       c0.2,0,0.4,0,0.6-0.1c0.2-0.1,0.1-0.3,0.3-0.5c0.1-0.1,0.3,0,0.4-0.1c0.2-0.1,0.3-0.3,0.4-0.5c0-0.1,0-0.1,0-0.2       c0-0.1,0.1-0.2,0.1-0.3c0-0.1-0.1-0.1-0.1-0.2c0-0.1,0-0.2,0-0.3c0-0.2,0-0.4-0.1-0.5c-0.4-0.7-1.2-0.9-2-0.8       c-0.2,0-0.3,0.1-0.4,0.2c-0.2,0.1-0.1,0.2-0.3,0.2c-0.1,0-0.2,0.1-0.2,0.2C54.1-64,54.1-64.1,54.1-64C54.1-64,54.1-64,54.1-64"/>
					<path fill="#FFFFFF" d="M46.5-64c0,0.1,0,0.1,0,0.2c-0.1,0.1-0.1,0.1-0.2,0.1c-0.1,0.1-0.1,0.3-0.1,0.4c-0.2,0.1,0,0.2,0,0.3       c0,0,0,0.1,0,0.2c0,0.1,0,0.3,0.1,0.4c0.1,0.2,0.3,0.4,0.4,0.5c0.2,0.1,0.4,0.6,0.6,0.6c0.2,0,0.4-0.1,0.5-0.1       c0.2,0,0.4,0,0.6-0.1c0.2-0.1,0.1-0.3,0.3-0.5c0.1-0.1,0.3,0,0.4-0.1c0.2-0.1,0.3-0.3,0.4-0.5c0-0.1,0-0.1,0-0.2       c0-0.1,0.1-0.2,0.1-0.3c0-0.1-0.1-0.1-0.1-0.2c0-0.1,0-0.2,0-0.3c0-0.2,0-0.4-0.1-0.5c-0.4-0.7-1.2-0.9-2-0.8       c-0.2,0-0.3,0.1-0.4,0.2c-0.2,0.1-0.1,0.2-0.3,0.2c-0.1,0-0.2,0.1-0.2,0.2C46.5-64,46.5-64.1,46.5-64C46.5-64,46.5-64,46.5-64"/>
					<path fill="#FFFFFF" d="M38.8-64c0,0.1,0,0.1,0,0.2c-0.1,0.1-0.1,0.1-0.2,0.1c-0.1,0.1-0.1,0.3-0.1,0.4c-0.2,0.1,0,0.2,0,0.3       c0,0,0,0.1,0,0.2c0,0.1,0,0.3,0.1,0.4c0.1,0.2,0.3,0.4,0.4,0.5c0.2,0.1,0.4,0.6,0.6,0.6c0.2,0,0.4-0.1,0.5-0.1       c0.2,0,0.4,0,0.6-0.1c0.2-0.1,0.1-0.3,0.3-0.5c0.1-0.1,0.3,0,0.4-0.1c0.2-0.1,0.3-0.3,0.4-0.5c0-0.1,0-0.1,0-0.2       c0-0.1,0.1-0.2,0.1-0.3c0-0.1-0.1-0.1-0.1-0.2c0-0.1,0-0.2,0-0.3c0-0.2,0-0.4-0.1-0.5c-0.4-0.7-1.2-0.9-2-0.8       c-0.2,0-0.3,0.1-0.4,0.2c-0.2,0.1-0.1,0.2-0.3,0.2c-0.1,0-0.2,0.1-0.2,0.2C38.8-64,38.8-64.1,38.8-64C38.8-64,38.8-64,38.8-64"/>
					<path fill="#FFFFFF" d="M31.1-64c0,0.1,0,0.1,0,0.2c-0.1,0.1-0.1,0.1-0.2,0.1c-0.1,0.1-0.1,0.3-0.1,0.4c-0.2,0.1,0,0.2,0,0.3       c0,0,0,0.1,0,0.2c0,0.1,0,0.3,0.1,0.4c0.1,0.2,0.3,0.4,0.4,0.5c0.2,0.1,0.4,0.6,0.6,0.6c0.2,0,0.4-0.1,0.5-0.1       c0.2,0,0.4,0,0.6-0.1c0.2-0.1,0.1-0.3,0.3-0.5c0.1-0.1,0.3,0,0.4-0.1c0.2-0.1,0.3-0.3,0.4-0.5c0-0.1,0-0.1,0-0.2       c0-0.1,0.1-0.2,0.1-0.3c0-0.1-0.1-0.1-0.1-0.2c0-0.1,0-0.2,0-0.3c0-0.2,0-0.4-0.1-0.5c-0.4-0.7-1.2-0.9-2-0.8       c-0.2,0-0.3,0.1-0.4,0.2c-0.2,0.1-0.1,0.2-0.3,0.2c-0.1,0-0.2,0.1-0.2,0.2C31.1-64,31.1-64.1,31.1-64C31.1-64,31.1-64,31.1-64"/>
					<path fill="#FFFFFF" d="M23.5-64c0,0.1,0,0.1,0,0.2c-0.1,0.1-0.1,0.1-0.2,0.1c-0.1,0.1-0.1,0.3-0.1,0.4c-0.2,0.1,0,0.2,0,0.3       c0,0,0,0.1,0,0.2c0,0.1,0,0.3,0.1,0.4c0.1,0.2,0.3,0.4,0.4,0.5c0.2,0.1,0.4,0.6,0.6,0.6c0.2,0,0.4-0.1,0.5-0.1       c0.2,0,0.4,0,0.6-0.1c0.2-0.1,0.1-0.3,0.3-0.5c0.1-0.1,0.3,0,0.4-0.1c0.2-0.1,0.3-0.3,0.4-0.5c0-0.1,0-0.1,0-0.2       c0-0.1,0.1-0.2,0.1-0.3c0-0.1-0.1-0.1-0.1-0.2c0-0.1,0-0.2,0-0.3c0-0.2,0-0.4-0.1-0.5c-0.4-0.7-1.2-0.9-2-0.8       c-0.2,0-0.3,0.1-0.4,0.2c-0.2,0.1-0.1,0.2-0.3,0.2c-0.1,0-0.2,0.1-0.2,0.2C23.5-64,23.5-64.1,23.5-64C23.5-64,23.5-64,23.5-64"/>
					<path fill="#FFFFFF" d="M15.8-64c0,0.1,0,0.1,0,0.2c-0.1,0.1-0.1,0.1-0.2,0.1c-0.1,0.1-0.1,0.3-0.1,0.4c-0.2,0.1,0,0.2,0,0.3       c0,0,0,0.1,0,0.2c0,0.1,0,0.3,0.1,0.4c0.1,0.2,0.3,0.4,0.4,0.5c0.2,0.1,0.4,0.6,0.6,0.6c0.2,0,0.4-0.1,0.5-0.1       c0.2,0,0.4,0,0.6-0.1c0.2-0.1,0.1-0.3,0.3-0.5c0.1-0.1,0.3,0,0.4-0.1c0.2-0.1,0.3-0.3,0.4-0.5c0-0.1,0-0.1,0-0.2       c0-0.1,0.1-0.2,0.1-0.3c0-0.1-0.1-0.1-0.1-0.2c0-0.1,0-0.2,0-0.3c0-0.2,0-0.4-0.1-0.5c-0.4-0.7-1.2-0.9-2-0.8       c-0.2,0-0.3,0.1-0.4,0.2c-0.2,0.1-0.1,0.2-0.3,0.2c-0.1,0-0.2,0.1-0.2,0.2C15.8-64,15.8-64.1,15.8-64C15.8-64,15.8-64,15.8-64"/>
					<path fill="#FFFFFF" d="M8.2-64c0,0.1,0,0.1,0,0.2C8.1-63.7,8-63.7,8-63.7c-0.1,0.1-0.1,0.3-0.1,0.4c-0.2,0.1,0,0.2,0,0.3       c0,0,0,0.1,0,0.2c0,0.1,0,0.3,0.1,0.4C8-62.2,8.2-62,8.3-61.9c0.2,0.1,0.4,0.6,0.6,0.6c0.2,0,0.4-0.1,0.5-0.1       c0.2,0,0.4,0,0.6-0.1c0.2-0.1,0.1-0.3,0.3-0.5c0.1-0.1,0.3,0,0.4-0.1c0.2-0.1,0.3-0.3,0.4-0.5c0-0.1,0-0.1,0-0.2       c0-0.1,0.1-0.2,0.1-0.3c0-0.1-0.1-0.1-0.1-0.2c0-0.1,0-0.2,0-0.3c0-0.2,0-0.4-0.1-0.5c-0.4-0.7-1.2-0.9-2-0.8       c-0.2,0-0.3,0.1-0.4,0.2c-0.2,0.1-0.1,0.2-0.3,0.2c-0.1,0-0.2,0.1-0.2,0.2C8.2-64,8.2-64.1,8.2-64C8.1-64,8.1-64,8.2-64"/>
					<path fill="#FFFFFF" d="M0.5-64c0,0.1,0,0.1,0,0.2c-0.1,0.1-0.1,0.1-0.2,0.1c-0.1,0.1-0.1,0.3-0.1,0.4c-0.2,0.1,0,0.2,0,0.3       c0,0,0,0.1,0,0.2c0,0.1,0,0.3,0.1,0.4c0.1,0.2,0.3,0.4,0.4,0.5c0.2,0.1,0.4,0.6,0.6,0.6c0.2,0,0.4-0.1,0.5-0.1       c0.2,0,0.4,0,0.6-0.1c0.2-0.1,0.1-0.3,0.3-0.5C2.8-62,3-61.9,3.1-62c0.2-0.1,0.3-0.3,0.4-0.5c0-0.1,0-0.1,0-0.2       c0-0.1,0.1-0.2,0.1-0.3c0-0.1-0.1-0.1-0.1-0.2c0-0.1,0-0.2,0-0.3c0-0.2,0-0.4-0.1-0.5c-0.4-0.7-1.2-0.9-2-0.8       c-0.2,0-0.3,0.1-0.4,0.2c-0.2,0.1-0.1,0.2-0.3,0.2c-0.1,0-0.2,0.1-0.2,0.2C0.5-64,0.5-64.1,0.5-64C0.5-64,0.5-64,0.5-64"/>
				</g>
				<g>
					<path fill="#FFFFFF" d="M69.4-56.3c0,0.1,0,0.1,0,0.2c-0.1,0.1-0.1,0.1-0.2,0.1c-0.1,0.1-0.1,0.3-0.1,0.4c-0.2,0.1,0,0.2,0,0.3       c0,0,0,0.1,0,0.2c0,0.1,0,0.3,0.1,0.4c0.1,0.2,0.3,0.4,0.4,0.5c0.2,0.1,0.4,0.6,0.6,0.6c0.2,0,0.4-0.1,0.5-0.1       c0.2,0,0.4,0,0.6-0.1c0.2-0.1,0.1-0.3,0.3-0.5c0.1-0.1,0.3,0,0.4-0.1c0.2-0.1,0.3-0.3,0.4-0.5c0-0.1,0-0.1,0-0.2       c0-0.1,0.1-0.2,0.1-0.3c0-0.1-0.1-0.1-0.1-0.2c0-0.1,0-0.2,0-0.3c0-0.2,0-0.4-0.1-0.5c-0.4-0.7-1.2-0.9-2-0.8       c-0.2,0-0.3,0.1-0.4,0.2c-0.2,0.1-0.1,0.2-0.3,0.2c-0.1,0-0.2,0.1-0.2,0.2C69.4-56.4,69.4-56.4,69.4-56.3       C69.4-56.3,69.4-56.3,69.4-56.3"/>
					<path fill="#FFFFFF" d="M61.8-56.3c0,0.1,0,0.1,0,0.2c-0.1,0.1-0.1,0.1-0.2,0.1c-0.1,0.1-0.1,0.3-0.1,0.4c-0.2,0.1,0,0.2,0,0.3       c0,0,0,0.1,0,0.2c0,0.1,0,0.3,0.1,0.4c0.1,0.2,0.3,0.4,0.4,0.5c0.2,0.1,0.4,0.6,0.6,0.6c0.2,0,0.4-0.1,0.5-0.1       c0.2,0,0.4,0,0.6-0.1c0.2-0.1,0.1-0.3,0.3-0.5c0.1-0.1,0.3,0,0.4-0.1c0.2-0.1,0.3-0.3,0.4-0.5c0-0.1,0-0.1,0-0.2       c0-0.1,0.1-0.2,0.1-0.3c0-0.1-0.1-0.1-0.1-0.2c0-0.1,0-0.2,0-0.3c0-0.2,0-0.4-0.1-0.5c-0.4-0.7-1.2-0.9-2-0.8       c-0.2,0-0.3,0.1-0.4,0.2c-0.2,0.1-0.1,0.2-0.3,0.2c-0.1,0-0.2,0.1-0.2,0.2C61.8-56.4,61.8-56.4,61.8-56.3       C61.8-56.3,61.8-56.3,61.8-56.3"/>
					<path fill="#FFFFFF" d="M54.1-56.3c0,0.1,0,0.1,0,0.2C54-56.1,54-56.1,53.9-56c-0.1,0.1-0.1,0.3-0.1,0.4c-0.2,0.1,0,0.2,0,0.3       c0,0,0,0.1,0,0.2c0,0.1,0,0.3,0.1,0.4c0.1,0.2,0.3,0.4,0.4,0.5c0.2,0.1,0.4,0.6,0.6,0.6c0.2,0,0.4-0.1,0.5-0.1       c0.2,0,0.4,0,0.6-0.1c0.2-0.1,0.1-0.3,0.3-0.5c0.1-0.1,0.3,0,0.4-0.1c0.2-0.1,0.3-0.3,0.4-0.5c0-0.1,0-0.1,0-0.2       c0-0.1,0.1-0.2,0.1-0.3c0-0.1-0.1-0.1-0.1-0.2c0-0.1,0-0.2,0-0.3c0-0.2,0-0.4-0.1-0.5c-0.4-0.7-1.2-0.9-2-0.8       c-0.2,0-0.3,0.1-0.4,0.2c-0.2,0.1-0.1,0.2-0.3,0.2c-0.1,0-0.2,0.1-0.2,0.2C54.1-56.4,54.1-56.4,54.1-56.3       C54.1-56.3,54.1-56.3,54.1-56.3"/>
					<path fill="#FFFFFF" d="M46.5-56.3c0,0.1,0,0.1,0,0.2c-0.1,0.1-0.1,0.1-0.2,0.1c-0.1,0.1-0.1,0.3-0.1,0.4c-0.2,0.1,0,0.2,0,0.3       c0,0,0,0.1,0,0.2c0,0.1,0,0.3,0.1,0.4c0.1,0.2,0.3,0.4,0.4,0.5c0.2,0.1,0.4,0.6,0.6,0.6c0.2,0,0.4-0.1,0.5-0.1       c0.2,0,0.4,0,0.6-0.1c0.2-0.1,0.1-0.3,0.3-0.5c0.1-0.1,0.3,0,0.4-0.1c0.2-0.1,0.3-0.3,0.4-0.5c0-0.1,0-0.1,0-0.2       c0-0.1,0.1-0.2,0.1-0.3c0-0.1-0.1-0.1-0.1-0.2c0-0.1,0-0.2,0-0.3c0-0.2,0-0.4-0.1-0.5c-0.4-0.7-1.2-0.9-2-0.8       c-0.2,0-0.3,0.1-0.4,0.2c-0.2,0.1-0.1,0.2-0.3,0.2c-0.1,0-0.2,0.1-0.2,0.2C46.5-56.4,46.5-56.4,46.5-56.3       C46.5-56.3,46.5-56.3,46.5-56.3"/>
					<path fill="#FFFFFF" d="M38.8-56.3c0,0.1,0,0.1,0,0.2c-0.1,0.1-0.1,0.1-0.2,0.1c-0.1,0.1-0.1,0.3-0.1,0.4c-0.2,0.1,0,0.2,0,0.3       c0,0,0,0.1,0,0.2c0,0.1,0,0.3,0.1,0.4c0.1,0.2,0.3,0.4,0.4,0.5c0.2,0.1,0.4,0.6,0.6,0.6c0.2,0,0.4-0.1,0.5-0.1       c0.2,0,0.4,0,0.6-0.1c0.2-0.1,0.1-0.3,0.3-0.5c0.1-0.1,0.3,0,0.4-0.1c0.2-0.1,0.3-0.3,0.4-0.5c0-0.1,0-0.1,0-0.2       c0-0.1,0.1-0.2,0.1-0.3c0-0.1-0.1-0.1-0.1-0.2c0-0.1,0-0.2,0-0.3c0-0.2,0-0.4-0.1-0.5c-0.4-0.7-1.2-0.9-2-0.8       c-0.2,0-0.3,0.1-0.4,0.2c-0.2,0.1-0.1,0.2-0.3,0.2c-0.1,0-0.2,0.1-0.2,0.2C38.8-56.4,38.8-56.4,38.8-56.3       C38.8-56.3,38.8-56.3,38.8-56.3"/>
					<path fill="#FFFFFF" d="M31.1-56.3c0,0.1,0,0.1,0,0.2c-0.1,0.1-0.1,0.1-0.2,0.1c-0.1,0.1-0.1,0.3-0.1,0.4c-0.2,0.1,0,0.2,0,0.3       c0,0,0,0.1,0,0.2c0,0.1,0,0.3,0.1,0.4c0.1,0.2,0.3,0.4,0.4,0.5c0.2,0.1,0.4,0.6,0.6,0.6c0.2,0,0.4-0.1,0.5-0.1       c0.2,0,0.4,0,0.6-0.1c0.2-0.1,0.1-0.3,0.3-0.5c0.1-0.1,0.3,0,0.4-0.1c0.2-0.1,0.3-0.3,0.4-0.5c0-0.1,0-0.1,0-0.2       c0-0.1,0.1-0.2,0.1-0.3c0-0.1-0.1-0.1-0.1-0.2c0-0.1,0-0.2,0-0.3c0-0.2,0-0.4-0.1-0.5c-0.4-0.7-1.2-0.9-2-0.8       c-0.2,0-0.3,0.1-0.4,0.2c-0.2,0.1-0.1,0.2-0.3,0.2c-0.1,0-0.2,0.1-0.2,0.2C31.1-56.4,31.1-56.4,31.1-56.3       C31.1-56.3,31.1-56.3,31.1-56.3"/>
					<path fill="#FFFFFF" d="M23.5-56.3c0,0.1,0,0.1,0,0.2c-0.1,0.1-0.1,0.1-0.2,0.1c-0.1,0.1-0.1,0.3-0.1,0.4c-0.2,0.1,0,0.2,0,0.3       c0,0,0,0.1,0,0.2c0,0.1,0,0.3,0.1,0.4c0.1,0.2,0.3,0.4,0.4,0.5c0.2,0.1,0.4,0.6,0.6,0.6c0.2,0,0.4-0.1,0.5-0.1       c0.2,0,0.4,0,0.6-0.1c0.2-0.1,0.1-0.3,0.3-0.5c0.1-0.1,0.3,0,0.4-0.1c0.2-0.1,0.3-0.3,0.4-0.5c0-0.1,0-0.1,0-0.2       c0-0.1,0.1-0.2,0.1-0.3c0-0.1-0.1-0.1-0.1-0.2c0-0.1,0-0.2,0-0.3c0-0.2,0-0.4-0.1-0.5c-0.4-0.7-1.2-0.9-2-0.8       c-0.2,0-0.3,0.1-0.4,0.2c-0.2,0.1-0.1,0.2-0.3,0.2c-0.1,0-0.2,0.1-0.2,0.2C23.5-56.4,23.5-56.4,23.5-56.3       C23.5-56.3,23.5-56.3,23.5-56.3"/>
					<path fill="#FFFFFF" d="M15.8-56.3c0,0.1,0,0.1,0,0.2c-0.1,0.1-0.1,0.1-0.2,0.1c-0.1,0.1-0.1,0.3-0.1,0.4c-0.2,0.1,0,0.2,0,0.3       c0,0,0,0.1,0,0.2c0,0.1,0,0.3,0.1,0.4c0.1,0.2,0.3,0.4,0.4,0.5c0.2,0.1,0.4,0.6,0.6,0.6c0.2,0,0.4-0.1,0.5-0.1       c0.2,0,0.4,0,0.6-0.1c0.2-0.1,0.1-0.3,0.3-0.5c0.1-0.1,0.3,0,0.4-0.1c0.2-0.1,0.3-0.3,0.4-0.5c0-0.1,0-0.1,0-0.2       c0-0.1,0.1-0.2,0.1-0.3c0-0.1-0.1-0.1-0.1-0.2c0-0.1,0-0.2,0-0.3c0-0.2,0-0.4-0.1-0.5c-0.4-0.7-1.2-0.9-2-0.8       c-0.2,0-0.3,0.1-0.4,0.2c-0.2,0.1-0.1,0.2-0.3,0.2c-0.1,0-0.2,0.1-0.2,0.2C15.8-56.4,15.8-56.4,15.8-56.3       C15.8-56.3,15.8-56.3,15.8-56.3"/>
					<path fill="#FFFFFF" d="M8.2-56.3c0,0.1,0,0.1,0,0.2C8.1-56.1,8-56.1,8-56c-0.1,0.1-0.1,0.3-0.1,0.4c-0.2,0.1,0,0.2,0,0.3       c0,0,0,0.1,0,0.2c0,0.1,0,0.3,0.1,0.4c0.1,0.2,0.3,0.4,0.4,0.5c0.2,0.1,0.4,0.6,0.6,0.6c0.2,0,0.4-0.1,0.5-0.1       c0.2,0,0.4,0,0.6-0.1c0.2-0.1,0.1-0.3,0.3-0.5c0.1-0.1,0.3,0,0.4-0.1c0.2-0.1,0.3-0.3,0.4-0.5c0-0.1,0-0.1,0-0.2       c0-0.1,0.1-0.2,0.1-0.3c0-0.1-0.1-0.1-0.1-0.2c0-0.1,0-0.2,0-0.3c0-0.2,0-0.4-0.1-0.5c-0.4-0.7-1.2-0.9-2-0.8       c-0.2,0-0.3,0.1-0.4,0.2c-0.2,0.1-0.1,0.2-0.3,0.2c-0.1,0-0.2,0.1-0.2,0.2C8.2-56.4,8.2-56.4,8.2-56.3       C8.1-56.3,8.1-56.3,8.2-56.3"/>
					<path fill="#FFFFFF" d="M0.5-56.3c0,0.1,0,0.1,0,0.2c-0.1,0.1-0.1,0.1-0.2,0.1c-0.1,0.1-0.1,0.3-0.1,0.4c-0.2,0.1,0,0.2,0,0.3       c0,0,0,0.1,0,0.2c0,0.1,0,0.3,0.1,0.4c0.1,0.2,0.3,0.4,0.4,0.5c0.2,0.1,0.4,0.6,0.6,0.6c0.2,0,0.4-0.1,0.5-0.1       c0.2,0,0.4,0,0.6-0.1c0.2-0.1,0.1-0.3,0.3-0.5c0.1-0.1,0.3,0,0.4-0.1c0.2-0.1,0.3-0.3,0.4-0.5c0-0.1,0-0.1,0-0.2       c0-0.1,0.1-0.2,0.1-0.3c0-0.1-0.1-0.1-0.1-0.2c0-0.1,0-0.2,0-0.3c0-0.2,0-0.4-0.1-0.5c-0.4-0.7-1.2-0.9-2-0.8       c-0.2,0-0.3,0.1-0.4,0.2c-0.2,0.1-0.1,0.2-0.3,0.2c-0.1,0-0.2,0.1-0.2,0.2C0.5-56.4,0.5-56.4,0.5-56.3       C0.5-56.3,0.5-56.3,0.5-56.3"/>
				</g>
				<g>
					<path fill="#FFFFFF" d="M69.4-48.7c0,0.1,0,0.1,0,0.2c-0.1,0.1-0.1,0.1-0.2,0.1c-0.1,0.1-0.1,0.3-0.1,0.4c-0.2,0.1,0,0.2,0,0.3       c0,0,0,0.1,0,0.2c0,0.1,0,0.3,0.1,0.4c0.1,0.2,0.3,0.4,0.4,0.5c0.2,0.1,0.4,0.6,0.6,0.6c0.2,0,0.4-0.1,0.5-0.1       c0.2,0,0.4,0,0.6-0.1c0.2-0.1,0.1-0.3,0.3-0.5c0.1-0.1,0.3,0,0.4-0.1c0.2-0.1,0.3-0.3,0.4-0.5c0-0.1,0-0.1,0-0.2       c0-0.1,0.1-0.2,0.1-0.3c0-0.1-0.1-0.1-0.1-0.2c0-0.1,0-0.2,0-0.3c0-0.2,0-0.4-0.1-0.5c-0.4-0.7-1.2-0.9-2-0.8       c-0.2,0-0.3,0.1-0.4,0.2c-0.2,0.1-0.1,0.2-0.3,0.2c-0.1,0-0.2,0.1-0.2,0.2C69.4-48.7,69.4-48.8,69.4-48.7       C69.4-48.7,69.4-48.7,69.4-48.7"/>
					<path fill="#FFFFFF" d="M61.8-48.7c0,0.1,0,0.1,0,0.2c-0.1,0.1-0.1,0.1-0.2,0.1c-0.1,0.1-0.1,0.3-0.1,0.4c-0.2,0.1,0,0.2,0,0.3       c0,0,0,0.1,0,0.2c0,0.1,0,0.3,0.1,0.4c0.1,0.2,0.3,0.4,0.4,0.5c0.2,0.1,0.4,0.6,0.6,0.6c0.2,0,0.4-0.1,0.5-0.1       c0.2,0,0.4,0,0.6-0.1c0.2-0.1,0.1-0.3,0.3-0.5c0.1-0.1,0.3,0,0.4-0.1c0.2-0.1,0.3-0.3,0.4-0.5c0-0.1,0-0.1,0-0.2       c0-0.1,0.1-0.2,0.1-0.3c0-0.1-0.1-0.1-0.1-0.2c0-0.1,0-0.2,0-0.3c0-0.2,0-0.4-0.1-0.5c-0.4-0.7-1.2-0.9-2-0.8       c-0.2,0-0.3,0.1-0.4,0.2c-0.2,0.1-0.1,0.2-0.3,0.2c-0.1,0-0.2,0.1-0.2,0.2C61.8-48.7,61.8-48.8,61.8-48.7       C61.8-48.7,61.8-48.7,61.8-48.7"/>
					<path fill="#FFFFFF" d="M54.1-48.7c0,0.1,0,0.1,0,0.2c-0.1,0.1-0.1,0.1-0.2,0.1c-0.1,0.1-0.1,0.3-0.1,0.4c-0.2,0.1,0,0.2,0,0.3       c0,0,0,0.1,0,0.2c0,0.1,0,0.3,0.1,0.4c0.1,0.2,0.3,0.4,0.4,0.5c0.2,0.1,0.4,0.6,0.6,0.6c0.2,0,0.4-0.1,0.5-0.1       c0.2,0,0.4,0,0.6-0.1c0.2-0.1,0.1-0.3,0.3-0.5c0.1-0.1,0.3,0,0.4-0.1c0.2-0.1,0.3-0.3,0.4-0.5c0-0.1,0-0.1,0-0.2       c0-0.1,0.1-0.2,0.1-0.3c0-0.1-0.1-0.1-0.1-0.2c0-0.1,0-0.2,0-0.3c0-0.2,0-0.4-0.1-0.5c-0.4-0.7-1.2-0.9-2-0.8       c-0.2,0-0.3,0.1-0.4,0.2c-0.2,0.1-0.1,0.2-0.3,0.2c-0.1,0-0.2,0.1-0.2,0.2C54.1-48.7,54.1-48.8,54.1-48.7       C54.1-48.7,54.1-48.7,54.1-48.7"/>
					<path fill="#FFFFFF" d="M46.5-48.7c0,0.1,0,0.1,0,0.2c-0.1,0.1-0.1,0.1-0.2,0.1c-0.1,0.1-0.1,0.3-0.1,0.4c-0.2,0.1,0,0.2,0,0.3       c0,0,0,0.1,0,0.2c0,0.1,0,0.3,0.1,0.4c0.1,0.2,0.3,0.4,0.4,0.5c0.2,0.1,0.4,0.6,0.6,0.6c0.2,0,0.4-0.1,0.5-0.1       c0.2,0,0.4,0,0.6-0.1c0.2-0.1,0.1-0.3,0.3-0.5c0.1-0.1,0.3,0,0.4-0.1c0.2-0.1,0.3-0.3,0.4-0.5c0-0.1,0-0.1,0-0.2       c0-0.1,0.1-0.2,0.1-0.3c0-0.1-0.1-0.1-0.1-0.2c0-0.1,0-0.2,0-0.3c0-0.2,0-0.4-0.1-0.5c-0.4-0.7-1.2-0.9-2-0.8       c-0.2,0-0.3,0.1-0.4,0.2c-0.2,0.1-0.1,0.2-0.3,0.2c-0.1,0-0.2,0.1-0.2,0.2C46.5-48.7,46.5-48.8,46.5-48.7       C46.5-48.7,46.5-48.7,46.5-48.7"/>
					<path fill="#FFFFFF" d="M38.8-48.7c0,0.1,0,0.1,0,0.2c-0.1,0.1-0.1,0.1-0.2,0.1c-0.1,0.1-0.1,0.3-0.1,0.4c-0.2,0.1,0,0.2,0,0.3       c0,0,0,0.1,0,0.2c0,0.1,0,0.3,0.1,0.4c0.1,0.2,0.3,0.4,0.4,0.5c0.2,0.1,0.4,0.6,0.6,0.6c0.2,0,0.4-0.1,0.5-0.1       c0.2,0,0.4,0,0.6-0.1c0.2-0.1,0.1-0.3,0.3-0.5c0.1-0.1,0.3,0,0.4-0.1c0.2-0.1,0.3-0.3,0.4-0.5c0-0.1,0-0.1,0-0.2       c0-0.1,0.1-0.2,0.1-0.3c0-0.1-0.1-0.1-0.1-0.2c0-0.1,0-0.2,0-0.3c0-0.2,0-0.4-0.1-0.5c-0.4-0.7-1.2-0.9-2-0.8       c-0.2,0-0.3,0.1-0.4,0.2c-0.2,0.1-0.1,0.2-0.3,0.2c-0.1,0-0.2,0.1-0.2,0.2C38.8-48.7,38.8-48.8,38.8-48.7       C38.8-48.7,38.8-48.7,38.8-48.7"/>
					<path fill="#FFFFFF" d="M31.1-48.7c0,0.1,0,0.1,0,0.2c-0.1,0.1-0.1,0.1-0.2,0.1c-0.1,0.1-0.1,0.3-0.1,0.4c-0.2,0.1,0,0.2,0,0.3       c0,0,0,0.1,0,0.2c0,0.1,0,0.3,0.1,0.4c0.1,0.2,0.3,0.4,0.4,0.5c0.2,0.1,0.4,0.6,0.6,0.6c0.2,0,0.4-0.1,0.5-0.1       c0.2,0,0.4,0,0.6-0.1c0.2-0.1,0.1-0.3,0.3-0.5c0.1-0.1,0.3,0,0.4-0.1c0.2-0.1,0.3-0.3,0.4-0.5c0-0.1,0-0.1,0-0.2       c0-0.1,0.1-0.2,0.1-0.3c0-0.1-0.1-0.1-0.1-0.2c0-0.1,0-0.2,0-0.3c0-0.2,0-0.4-0.1-0.5c-0.4-0.7-1.2-0.9-2-0.8       c-0.2,0-0.3,0.1-0.4,0.2c-0.2,0.1-0.1,0.2-0.3,0.2c-0.1,0-0.2,0.1-0.2,0.2C31.1-48.7,31.1-48.8,31.1-48.7       C31.1-48.7,31.1-48.7,31.1-48.7"/>
					<path fill="#FFFFFF" d="M23.5-48.7c0,0.1,0,0.1,0,0.2c-0.1,0.1-0.1,0.1-0.2,0.1c-0.1,0.1-0.1,0.3-0.1,0.4c-0.2,0.1,0,0.2,0,0.3       c0,0,0,0.1,0,0.2c0,0.1,0,0.3,0.1,0.4c0.1,0.2,0.3,0.4,0.4,0.5c0.2,0.1,0.4,0.6,0.6,0.6c0.2,0,0.4-0.1,0.5-0.1       c0.2,0,0.4,0,0.6-0.1c0.2-0.1,0.1-0.3,0.3-0.5c0.1-0.1,0.3,0,0.4-0.1c0.2-0.1,0.3-0.3,0.4-0.5c0-0.1,0-0.1,0-0.2       c0-0.1,0.1-0.2,0.1-0.3c0-0.1-0.1-0.1-0.1-0.2c0-0.1,0-0.2,0-0.3c0-0.2,0-0.4-0.1-0.5c-0.4-0.7-1.2-0.9-2-0.8       c-0.2,0-0.3,0.1-0.4,0.2c-0.2,0.1-0.1,0.2-0.3,0.2c-0.1,0-0.2,0.1-0.2,0.2C23.5-48.7,23.5-48.8,23.5-48.7       C23.5-48.7,23.5-48.7,23.5-48.7"/>
					<path fill="#FFFFFF" d="M15.8-48.7c0,0.1,0,0.1,0,0.2c-0.1,0.1-0.1,0.1-0.2,0.1c-0.1,0.1-0.1,0.3-0.1,0.4c-0.2,0.1,0,0.2,0,0.3       c0,0,0,0.1,0,0.2c0,0.1,0,0.3,0.1,0.4c0.1,0.2,0.3,0.4,0.4,0.5c0.2,0.1,0.4,0.6,0.6,0.6c0.2,0,0.4-0.1,0.5-0.1       c0.2,0,0.4,0,0.6-0.1c0.2-0.1,0.1-0.3,0.3-0.5c0.1-0.1,0.3,0,0.4-0.1c0.2-0.1,0.3-0.3,0.4-0.5c0-0.1,0-0.1,0-0.2       c0-0.1,0.1-0.2,0.1-0.3c0-0.1-0.1-0.1-0.1-0.2c0-0.1,0-0.2,0-0.3c0-0.2,0-0.4-0.1-0.5c-0.4-0.7-1.2-0.9-2-0.8       c-0.2,0-0.3,0.1-0.4,0.2c-0.2,0.1-0.1,0.2-0.3,0.2c-0.1,0-0.2,0.1-0.2,0.2C15.8-48.7,15.8-48.8,15.8-48.7       C15.8-48.7,15.8-48.7,15.8-48.7"/>
					<path fill="#FFFFFF" d="M8.2-48.7c0,0.1,0,0.1,0,0.2C8.1-48.4,8-48.4,8-48.4c-0.1,0.1-0.1,0.3-0.1,0.4c-0.2,0.1,0,0.2,0,0.3       c0,0,0,0.1,0,0.2c0,0.1,0,0.3,0.1,0.4c0.1,0.2,0.3,0.4,0.4,0.5C8.5-46.4,8.7-46,8.9-46c0.2,0,0.4-0.1,0.5-0.1       c0.2,0,0.4,0,0.6-0.1c0.2-0.1,0.1-0.3,0.3-0.5c0.1-0.1,0.3,0,0.4-0.1c0.2-0.1,0.3-0.3,0.4-0.5c0-0.1,0-0.1,0-0.2       c0-0.1,0.1-0.2,0.1-0.3c0-0.1-0.1-0.1-0.1-0.2c0-0.1,0-0.2,0-0.3c0-0.2,0-0.4-0.1-0.5c-0.4-0.7-1.2-0.9-2-0.8       c-0.2,0-0.3,0.1-0.4,0.2c-0.2,0.1-0.1,0.2-0.3,0.2c-0.1,0-0.2,0.1-0.2,0.2C8.2-48.7,8.2-48.8,8.2-48.7       C8.1-48.7,8.1-48.7,8.2-48.7"/>
					<path fill="#FFFFFF" d="M0.5-48.7c0,0.1,0,0.1,0,0.2c-0.1,0.1-0.1,0.1-0.2,0.1c-0.1,0.1-0.1,0.3-0.1,0.4c-0.2,0.1,0,0.2,0,0.3       c0,0,0,0.1,0,0.2c0,0.1,0,0.3,0.1,0.4c0.1,0.2,0.3,0.4,0.4,0.5C0.9-46.4,1-46,1.3-46c0.2,0,0.4-0.1,0.5-0.1       c0.2,0,0.4,0,0.6-0.1c0.2-0.1,0.1-0.3,0.3-0.5c0.1-0.1,0.3,0,0.4-0.1c0.2-0.1,0.3-0.3,0.4-0.5c0-0.1,0-0.1,0-0.2       c0-0.1,0.1-0.2,0.1-0.3c0-0.1-0.1-0.1-0.1-0.2c0-0.1,0-0.2,0-0.3c0-0.2,0-0.4-0.1-0.5c-0.4-0.7-1.2-0.9-2-0.8       c-0.2,0-0.3,0.1-0.4,0.2c-0.2,0.1-0.1,0.2-0.3,0.2c-0.1,0-0.2,0.1-0.2,0.2C0.5-48.7,0.5-48.8,0.5-48.7       C0.5-48.7,0.5-48.7,0.5-48.7"/>
				</g>
				<g>
					<path fill="#FFFFFF" d="M69.4-41c0,0.1,0,0.1,0,0.2c-0.1,0.1-0.1,0.1-0.2,0.1c-0.1,0.1-0.1,0.3-0.1,0.4c-0.2,0.1,0,0.2,0,0.3       c0,0,0,0.1,0,0.2c0,0.1,0,0.3,0.1,0.4c0.1,0.2,0.3,0.4,0.4,0.5c0.2,0.1,0.4,0.6,0.6,0.6c0.2,0,0.4-0.1,0.5-0.1       c0.2,0,0.4,0,0.6-0.1c0.2-0.1,0.1-0.3,0.3-0.5c0.1-0.1,0.3,0,0.4-0.1c0.2-0.1,0.3-0.3,0.4-0.5c0-0.1,0-0.1,0-0.2       c0-0.1,0.1-0.2,0.1-0.3c0-0.1-0.1-0.1-0.1-0.2c0-0.1,0-0.2,0-0.3c0-0.2,0-0.4-0.1-0.5c-0.4-0.7-1.2-0.9-2-0.8       c-0.2,0-0.3,0.1-0.4,0.2c-0.2,0.1-0.1,0.2-0.3,0.2c-0.1,0-0.2,0.1-0.2,0.2C69.4-41.1,69.4-41.1,69.4-41       C69.4-41,69.4-41,69.4-41"/>
					<path fill="#FFFFFF" d="M61.8-41c0,0.1,0,0.1,0,0.2c-0.1,0.1-0.1,0.1-0.2,0.1c-0.1,0.1-0.1,0.3-0.1,0.4c-0.2,0.1,0,0.2,0,0.3       c0,0,0,0.1,0,0.2c0,0.1,0,0.3,0.1,0.4c0.1,0.2,0.3,0.4,0.4,0.5c0.2,0.1,0.4,0.6,0.6,0.6c0.2,0,0.4-0.1,0.5-0.1       c0.2,0,0.4,0,0.6-0.1c0.2-0.1,0.1-0.3,0.3-0.5c0.1-0.1,0.3,0,0.4-0.1c0.2-0.1,0.3-0.3,0.4-0.5c0-0.1,0-0.1,0-0.2       c0-0.1,0.1-0.2,0.1-0.3c0-0.1-0.1-0.1-0.1-0.2c0-0.1,0-0.2,0-0.3c0-0.2,0-0.4-0.1-0.5c-0.4-0.7-1.2-0.9-2-0.8       c-0.2,0-0.3,0.1-0.4,0.2c-0.2,0.1-0.1,0.2-0.3,0.2c-0.1,0-0.2,0.1-0.2,0.2C61.8-41.1,61.8-41.1,61.8-41       C61.8-41,61.8-41,61.8-41"/>
					<path fill="#FFFFFF" d="M54.1-41c0,0.1,0,0.1,0,0.2c-0.1,0.1-0.1,0.1-0.2,0.1c-0.1,0.1-0.1,0.3-0.1,0.4c-0.2,0.1,0,0.2,0,0.3       c0,0,0,0.1,0,0.2c0,0.1,0,0.3,0.1,0.4c0.1,0.2,0.3,0.4,0.4,0.5c0.2,0.1,0.4,0.6,0.6,0.6c0.2,0,0.4-0.1,0.5-0.1       c0.2,0,0.4,0,0.6-0.1c0.2-0.1,0.1-0.3,0.3-0.5c0.1-0.1,0.3,0,0.4-0.1c0.2-0.1,0.3-0.3,0.4-0.5c0-0.1,0-0.1,0-0.2       c0-0.1,0.1-0.2,0.1-0.3c0-0.1-0.1-0.1-0.1-0.2c0-0.1,0-0.2,0-0.3c0-0.2,0-0.4-0.1-0.5c-0.4-0.7-1.2-0.9-2-0.8       c-0.2,0-0.3,0.1-0.4,0.2c-0.2,0.1-0.1,0.2-0.3,0.2c-0.1,0-0.2,0.1-0.2,0.2C54.1-41.1,54.1-41.1,54.1-41       C54.1-41,54.1-41,54.1-41"/>
					<path fill="#FFFFFF" d="M46.5-41c0,0.1,0,0.1,0,0.2c-0.1,0.1-0.1,0.1-0.2,0.1c-0.1,0.1-0.1,0.3-0.1,0.4c-0.2,0.1,0,0.2,0,0.3       c0,0,0,0.1,0,0.2c0,0.1,0,0.3,0.1,0.4c0.1,0.2,0.3,0.4,0.4,0.5c0.2,0.1,0.4,0.6,0.6,0.6c0.2,0,0.4-0.1,0.5-0.1       c0.2,0,0.4,0,0.6-0.1c0.2-0.1,0.1-0.3,0.3-0.5c0.1-0.1,0.3,0,0.4-0.1c0.2-0.1,0.3-0.3,0.4-0.5c0-0.1,0-0.1,0-0.2       c0-0.1,0.1-0.2,0.1-0.3c0-0.1-0.1-0.1-0.1-0.2c0-0.1,0-0.2,0-0.3c0-0.2,0-0.4-0.1-0.5c-0.4-0.7-1.2-0.9-2-0.8       c-0.2,0-0.3,0.1-0.4,0.2c-0.2,0.1-0.1,0.2-0.3,0.2c-0.1,0-0.2,0.1-0.2,0.2C46.5-41.1,46.5-41.1,46.5-41       C46.5-41,46.5-41,46.5-41"/>
					<path fill="#FFFFFF" d="M38.8-41c0,0.1,0,0.1,0,0.2c-0.1,0.1-0.1,0.1-0.2,0.1c-0.1,0.1-0.1,0.3-0.1,0.4c-0.2,0.1,0,0.2,0,0.3       c0,0,0,0.1,0,0.2c0,0.1,0,0.3,0.1,0.4c0.1,0.2,0.3,0.4,0.4,0.5c0.2,0.1,0.4,0.6,0.6,0.6c0.2,0,0.4-0.1,0.5-0.1       c0.2,0,0.4,0,0.6-0.1c0.2-0.1,0.1-0.3,0.3-0.5c0.1-0.1,0.3,0,0.4-0.1c0.2-0.1,0.3-0.3,0.4-0.5c0-0.1,0-0.1,0-0.2       c0-0.1,0.1-0.2,0.1-0.3c0-0.1-0.1-0.1-0.1-0.2c0-0.1,0-0.2,0-0.3c0-0.2,0-0.4-0.1-0.5c-0.4-0.7-1.2-0.9-2-0.8       c-0.2,0-0.3,0.1-0.4,0.2c-0.2,0.1-0.1,0.2-0.3,0.2c-0.1,0-0.2,0.1-0.2,0.2C38.8-41.1,38.8-41.1,38.8-41       C38.8-41,38.8-41,38.8-41"/>
					<path fill="#FFFFFF" d="M31.1-41c0,0.1,0,0.1,0,0.2c-0.1,0.1-0.1,0.1-0.2,0.1c-0.1,0.1-0.1,0.3-0.1,0.4c-0.2,0.1,0,0.2,0,0.3       c0,0,0,0.1,0,0.2c0,0.1,0,0.3,0.1,0.4c0.1,0.2,0.3,0.4,0.4,0.5c0.2,0.1,0.4,0.6,0.6,0.6c0.2,0,0.4-0.1,0.5-0.1       c0.2,0,0.4,0,0.6-0.1c0.2-0.1,0.1-0.3,0.3-0.5c0.1-0.1,0.3,0,0.4-0.1c0.2-0.1,0.3-0.3,0.4-0.5c0-0.1,0-0.1,0-0.2       c0-0.1,0.1-0.2,0.1-0.3c0-0.1-0.1-0.1-0.1-0.2c0-0.1,0-0.2,0-0.3c0-0.2,0-0.4-0.1-0.5c-0.4-0.7-1.2-0.9-2-0.8       c-0.2,0-0.3,0.1-0.4,0.2c-0.2,0.1-0.1,0.2-0.3,0.2c-0.1,0-0.2,0.1-0.2,0.2C31.1-41.1,31.1-41.1,31.1-41       C31.1-41,31.1-41,31.1-41"/>
					<path fill="#FFFFFF" d="M23.5-41c0,0.1,0,0.1,0,0.2c-0.1,0.1-0.1,0.1-0.2,0.1c-0.1,0.1-0.1,0.3-0.1,0.4c-0.2,0.1,0,0.2,0,0.3       c0,0,0,0.1,0,0.2c0,0.1,0,0.3,0.1,0.4c0.1,0.2,0.3,0.4,0.4,0.5c0.2,0.1,0.4,0.6,0.6,0.6c0.2,0,0.4-0.1,0.5-0.1       c0.2,0,0.4,0,0.6-0.1c0.2-0.1,0.1-0.3,0.3-0.5c0.1-0.1,0.3,0,0.4-0.1c0.2-0.1,0.3-0.3,0.4-0.5c0-0.1,0-0.1,0-0.2       c0-0.1,0.1-0.2,0.1-0.3c0-0.1-0.1-0.1-0.1-0.2c0-0.1,0-0.2,0-0.3c0-0.2,0-0.4-0.1-0.5c-0.4-0.7-1.2-0.9-2-0.8       c-0.2,0-0.3,0.1-0.4,0.2c-0.2,0.1-0.1,0.2-0.3,0.2c-0.1,0-0.2,0.1-0.2,0.2C23.5-41.1,23.5-41.1,23.5-41       C23.5-41,23.5-41,23.5-41"/>
					<path fill="#FFFFFF" d="M15.8-41c0,0.1,0,0.1,0,0.2c-0.1,0.1-0.1,0.1-0.2,0.1c-0.1,0.1-0.1,0.3-0.1,0.4c-0.2,0.1,0,0.2,0,0.3       c0,0,0,0.1,0,0.2c0,0.1,0,0.3,0.1,0.4c0.1,0.2,0.3,0.4,0.4,0.5c0.2,0.1,0.4,0.6,0.6,0.6c0.2,0,0.4-0.1,0.5-0.1       c0.2,0,0.4,0,0.6-0.1c0.2-0.1,0.1-0.3,0.3-0.5c0.1-0.1,0.3,0,0.4-0.1c0.2-0.1,0.3-0.3,0.4-0.5c0-0.1,0-0.1,0-0.2       c0-0.1,0.1-0.2,0.1-0.3c0-0.1-0.1-0.1-0.1-0.2c0-0.1,0-0.2,0-0.3c0-0.2,0-0.4-0.1-0.5c-0.4-0.7-1.2-0.9-2-0.8       c-0.2,0-0.3,0.1-0.4,0.2c-0.2,0.1-0.1,0.2-0.3,0.2c-0.1,0-0.2,0.1-0.2,0.2C15.8-41.1,15.8-41.1,15.8-41       C15.8-41,15.8-41,15.8-41"/>
					<path fill="#FFFFFF" d="M8.2-41c0,0.1,0,0.1,0,0.2C8.1-40.8,8-40.8,8-40.7c-0.1,0.1-0.1,0.3-0.1,0.4c-0.2,0.1,0,0.2,0,0.3       c0,0,0,0.1,0,0.2c0,0.1,0,0.3,0.1,0.4c0.1,0.2,0.3,0.4,0.4,0.5c0.2,0.1,0.4,0.6,0.6,0.6c0.2,0,0.4-0.1,0.5-0.1       c0.2,0,0.4,0,0.6-0.1c0.2-0.1,0.1-0.3,0.3-0.5c0.1-0.1,0.3,0,0.4-0.1c0.2-0.1,0.3-0.3,0.4-0.5c0-0.1,0-0.1,0-0.2       c0-0.1,0.1-0.2,0.1-0.3c0-0.1-0.1-0.1-0.1-0.2c0-0.1,0-0.2,0-0.3c0-0.2,0-0.4-0.1-0.5c-0.4-0.7-1.2-0.9-2-0.8       c-0.2,0-0.3,0.1-0.4,0.2c-0.2,0.1-0.1,0.2-0.3,0.2c-0.1,0-0.2,0.1-0.2,0.2C8.2-41.1,8.2-41.1,8.2-41C8.1-41,8.1-41,8.2-41"/>
					<path fill="#FFFFFF" d="M0.5-41c0,0.1,0,0.1,0,0.2c-0.1,0.1-0.1,0.1-0.2,0.1c-0.1,0.1-0.1,0.3-0.1,0.4c-0.2,0.1,0,0.2,0,0.3       c0,0,0,0.1,0,0.2c0,0.1,0,0.3,0.1,0.4c0.1,0.2,0.3,0.4,0.4,0.5c0.2,0.1,0.4,0.6,0.6,0.6c0.2,0,0.4-0.1,0.5-0.1       c0.2,0,0.4,0,0.6-0.1c0.2-0.1,0.1-0.3,0.3-0.5C2.8-39,3-39,3.1-39c0.2-0.1,0.3-0.3,0.4-0.5c0-0.1,0-0.1,0-0.2       c0-0.1,0.1-0.2,0.1-0.3c0-0.1-0.1-0.1-0.1-0.2c0-0.1,0-0.2,0-0.3c0-0.2,0-0.4-0.1-0.5c-0.4-0.7-1.2-0.9-2-0.8       c-0.2,0-0.3,0.1-0.4,0.2c-0.2,0.1-0.1,0.2-0.3,0.2c-0.1,0-0.2,0.1-0.2,0.2C0.5-41.1,0.5-41.1,0.5-41C0.5-41,0.5-41,0.5-41"/>
				</g>
				<g>
					<path fill="#FFFFFF" d="M69.4-33.4c0,0.1,0,0.1,0,0.2c-0.1,0.1-0.1,0.1-0.2,0.1c-0.1,0.1-0.1,0.3-0.1,0.4c-0.2,0.1,0,0.2,0,0.3       c0,0,0,0.1,0,0.2c0,0.1,0,0.3,0.1,0.4c0.1,0.2,0.3,0.4,0.4,0.5c0.2,0.1,0.4,0.6,0.6,0.6c0.2,0,0.4-0.1,0.5-0.1       c0.2,0,0.4,0,0.6-0.1c0.2-0.1,0.1-0.3,0.3-0.5c0.1-0.1,0.3,0,0.4-0.1c0.2-0.1,0.3-0.3,0.4-0.5c0-0.1,0-0.1,0-0.2       c0-0.1,0.1-0.2,0.1-0.3c0-0.1-0.1-0.1-0.1-0.2c0-0.1,0-0.2,0-0.3c0-0.2,0-0.4-0.1-0.5c-0.4-0.7-1.2-0.9-2-0.8       c-0.2,0-0.3,0.1-0.4,0.2c-0.2,0.1-0.1,0.2-0.3,0.2c-0.1,0-0.2,0.1-0.2,0.2C69.4-33.4,69.4-33.5,69.4-33.4       C69.4-33.4,69.4-33.4,69.4-33.4"/>
					<path fill="#FFFFFF" d="M61.8-33.4c0,0.1,0,0.1,0,0.2c-0.1,0.1-0.1,0.1-0.2,0.1c-0.1,0.1-0.1,0.3-0.1,0.4c-0.2,0.1,0,0.2,0,0.3       c0,0,0,0.1,0,0.2c0,0.1,0,0.3,0.1,0.4c0.1,0.2,0.3,0.4,0.4,0.5c0.2,0.1,0.4,0.6,0.6,0.6c0.2,0,0.4-0.1,0.5-0.1       c0.2,0,0.4,0,0.6-0.1c0.2-0.1,0.1-0.3,0.3-0.5c0.1-0.1,0.3,0,0.4-0.1c0.2-0.1,0.3-0.3,0.4-0.5c0-0.1,0-0.1,0-0.2       c0-0.1,0.1-0.2,0.1-0.3c0-0.1-0.1-0.1-0.1-0.2c0-0.1,0-0.2,0-0.3c0-0.2,0-0.4-0.1-0.5c-0.4-0.7-1.2-0.9-2-0.8       c-0.2,0-0.3,0.1-0.4,0.2c-0.2,0.1-0.1,0.2-0.3,0.2c-0.1,0-0.2,0.1-0.2,0.2C61.8-33.4,61.8-33.5,61.8-33.4       C61.8-33.4,61.8-33.4,61.8-33.4"/>
					<path fill="#FFFFFF" d="M54.1-33.4c0,0.1,0,0.1,0,0.2c-0.1,0.1-0.1,0.1-0.2,0.1c-0.1,0.1-0.1,0.3-0.1,0.4c-0.2,0.1,0,0.2,0,0.3       c0,0,0,0.1,0,0.2c0,0.1,0,0.3,0.1,0.4c0.1,0.2,0.3,0.4,0.4,0.5c0.2,0.1,0.4,0.6,0.6,0.6c0.2,0,0.4-0.1,0.5-0.1       c0.2,0,0.4,0,0.6-0.1c0.2-0.1,0.1-0.3,0.3-0.5c0.1-0.1,0.3,0,0.4-0.1c0.2-0.1,0.3-0.3,0.4-0.5c0-0.1,0-0.1,0-0.2       c0-0.1,0.1-0.2,0.1-0.3c0-0.1-0.1-0.1-0.1-0.2c0-0.1,0-0.2,0-0.3c0-0.2,0-0.4-0.1-0.5c-0.4-0.7-1.2-0.9-2-0.8       c-0.2,0-0.3,0.1-0.4,0.2c-0.2,0.1-0.1,0.2-0.3,0.2c-0.1,0-0.2,0.1-0.2,0.2C54.1-33.4,54.1-33.5,54.1-33.4       C54.1-33.4,54.1-33.4,54.1-33.4"/>
					<path fill="#FFFFFF" d="M46.5-33.4c0,0.1,0,0.1,0,0.2c-0.1,0.1-0.1,0.1-0.2,0.1c-0.1,0.1-0.1,0.3-0.1,0.4c-0.2,0.1,0,0.2,0,0.3       c0,0,0,0.1,0,0.2c0,0.1,0,0.3,0.1,0.4c0.1,0.2,0.3,0.4,0.4,0.5c0.2,0.1,0.4,0.6,0.6,0.6c0.2,0,0.4-0.1,0.5-0.1       c0.2,0,0.4,0,0.6-0.1c0.2-0.1,0.1-0.3,0.3-0.5c0.1-0.1,0.3,0,0.4-0.1c0.2-0.1,0.3-0.3,0.4-0.5c0-0.1,0-0.1,0-0.2       c0-0.1,0.1-0.2,0.1-0.3c0-0.1-0.1-0.1-0.1-0.2c0-0.1,0-0.2,0-0.3c0-0.2,0-0.4-0.1-0.5c-0.4-0.7-1.2-0.9-2-0.8       c-0.2,0-0.3,0.1-0.4,0.2c-0.2,0.1-0.1,0.2-0.3,0.2c-0.1,0-0.2,0.1-0.2,0.2C46.5-33.4,46.5-33.5,46.5-33.4       C46.5-33.4,46.5-33.4,46.5-33.4"/>
					<path fill="#FFFFFF" d="M38.8-33.4c0,0.1,0,0.1,0,0.2c-0.1,0.1-0.1,0.1-0.2,0.1c-0.1,0.1-0.1,0.3-0.1,0.4c-0.2,0.1,0,0.2,0,0.3       c0,0,0,0.1,0,0.2c0,0.1,0,0.3,0.1,0.4c0.1,0.2,0.3,0.4,0.4,0.5c0.2,0.1,0.4,0.6,0.6,0.6c0.2,0,0.4-0.1,0.5-0.1       c0.2,0,0.4,0,0.6-0.1c0.2-0.1,0.1-0.3,0.3-0.5c0.1-0.1,0.3,0,0.4-0.1c0.2-0.1,0.3-0.3,0.4-0.5c0-0.1,0-0.1,0-0.2       c0-0.1,0.1-0.2,0.1-0.3c0-0.1-0.1-0.1-0.1-0.2c0-0.1,0-0.2,0-0.3c0-0.2,0-0.4-0.1-0.5c-0.4-0.7-1.2-0.9-2-0.8       c-0.2,0-0.3,0.1-0.4,0.2c-0.2,0.1-0.1,0.2-0.3,0.2c-0.1,0-0.2,0.1-0.2,0.2C38.8-33.4,38.8-33.5,38.8-33.4       C38.8-33.4,38.8-33.4,38.8-33.4"/>
					<path fill="#FFFFFF" d="M31.1-33.4c0,0.1,0,0.1,0,0.2c-0.1,0.1-0.1,0.1-0.2,0.1c-0.1,0.1-0.1,0.3-0.1,0.4c-0.2,0.1,0,0.2,0,0.3       c0,0,0,0.1,0,0.2c0,0.1,0,0.3,0.1,0.4c0.1,0.2,0.3,0.4,0.4,0.5c0.2,0.1,0.4,0.6,0.6,0.6c0.2,0,0.4-0.1,0.5-0.1       c0.2,0,0.4,0,0.6-0.1c0.2-0.1,0.1-0.3,0.3-0.5c0.1-0.1,0.3,0,0.4-0.1c0.2-0.1,0.3-0.3,0.4-0.5c0-0.1,0-0.1,0-0.2       c0-0.1,0.1-0.2,0.1-0.3c0-0.1-0.1-0.1-0.1-0.2c0-0.1,0-0.2,0-0.3c0-0.2,0-0.4-0.1-0.5c-0.4-0.7-1.2-0.9-2-0.8       c-0.2,0-0.3,0.1-0.4,0.2c-0.2,0.1-0.1,0.2-0.3,0.2c-0.1,0-0.2,0.1-0.2,0.2C31.1-33.4,31.1-33.5,31.1-33.4       C31.1-33.4,31.1-33.4,31.1-33.4"/>
					<path fill="#FFFFFF" d="M23.5-33.4c0,0.1,0,0.1,0,0.2c-0.1,0.1-0.1,0.1-0.2,0.1c-0.1,0.1-0.1,0.3-0.1,0.4c-0.2,0.1,0,0.2,0,0.3       c0,0,0,0.1,0,0.2c0,0.1,0,0.3,0.1,0.4c0.1,0.2,0.3,0.4,0.4,0.5c0.2,0.1,0.4,0.6,0.6,0.6c0.2,0,0.4-0.1,0.5-0.1       c0.2,0,0.4,0,0.6-0.1c0.2-0.1,0.1-0.3,0.3-0.5c0.1-0.1,0.3,0,0.4-0.1c0.2-0.1,0.3-0.3,0.4-0.5c0-0.1,0-0.1,0-0.2       c0-0.1,0.1-0.2,0.1-0.3c0-0.1-0.1-0.1-0.1-0.2c0-0.1,0-0.2,0-0.3c0-0.2,0-0.4-0.1-0.5c-0.4-0.7-1.2-0.9-2-0.8       c-0.2,0-0.3,0.1-0.4,0.2c-0.2,0.1-0.1,0.2-0.3,0.2c-0.1,0-0.2,0.1-0.2,0.2C23.5-33.4,23.5-33.5,23.5-33.4       C23.5-33.4,23.5-33.4,23.5-33.4"/>
					<path fill="#FFFFFF" d="M15.8-33.4c0,0.1,0,0.1,0,0.2c-0.1,0.1-0.1,0.1-0.2,0.1c-0.1,0.1-0.1,0.3-0.1,0.4c-0.2,0.1,0,0.2,0,0.3       c0,0,0,0.1,0,0.2c0,0.1,0,0.3,0.1,0.4c0.1,0.2,0.3,0.4,0.4,0.5c0.2,0.1,0.4,0.6,0.6,0.6c0.2,0,0.4-0.1,0.5-0.1       c0.2,0,0.4,0,0.6-0.1c0.2-0.1,0.1-0.3,0.3-0.5c0.1-0.1,0.3,0,0.4-0.1c0.2-0.1,0.3-0.3,0.4-0.5c0-0.1,0-0.1,0-0.2       c0-0.1,0.1-0.2,0.1-0.3c0-0.1-0.1-0.1-0.1-0.2c0-0.1,0-0.2,0-0.3c0-0.2,0-0.4-0.1-0.5c-0.4-0.7-1.2-0.9-2-0.8       c-0.2,0-0.3,0.1-0.4,0.2c-0.2,0.1-0.1,0.2-0.3,0.2c-0.1,0-0.2,0.1-0.2,0.2C15.8-33.4,15.8-33.5,15.8-33.4       C15.8-33.4,15.8-33.4,15.8-33.4"/>
					<path fill="#FFFFFF" d="M8.2-33.4c0,0.1,0,0.1,0,0.2C8.1-33.1,8-33.1,8-33.1c-0.1,0.1-0.1,0.3-0.1,0.4c-0.2,0.1,0,0.2,0,0.3       c0,0,0,0.1,0,0.2c0,0.1,0,0.3,0.1,0.4c0.1,0.2,0.3,0.4,0.4,0.5c0.2,0.1,0.4,0.6,0.6,0.6c0.2,0,0.4-0.1,0.5-0.1       c0.2,0,0.4,0,0.6-0.1c0.2-0.1,0.1-0.3,0.3-0.5c0.1-0.1,0.3,0,0.4-0.1c0.2-0.1,0.3-0.3,0.4-0.5c0-0.1,0-0.1,0-0.2       c0-0.1,0.1-0.2,0.1-0.3c0-0.1-0.1-0.1-0.1-0.2c0-0.1,0-0.2,0-0.3c0-0.2,0-0.4-0.1-0.5c-0.4-0.7-1.2-0.9-2-0.8       c-0.2,0-0.3,0.1-0.4,0.2c-0.2,0.1-0.1,0.2-0.3,0.2c-0.1,0-0.2,0.1-0.2,0.2C8.2-33.4,8.2-33.5,8.2-33.4       C8.1-33.4,8.1-33.4,8.2-33.4"/>
					<path fill="#FFFFFF" d="M0.5-33.4c0,0.1,0,0.1,0,0.2c-0.1,0.1-0.1,0.1-0.2,0.1c-0.1,0.1-0.1,0.3-0.1,0.4c-0.2,0.1,0,0.2,0,0.3       c0,0,0,0.1,0,0.2c0,0.1,0,0.3,0.1,0.4c0.1,0.2,0.3,0.4,0.4,0.5c0.2,0.1,0.4,0.6,0.6,0.6c0.2,0,0.4-0.1,0.5-0.1       c0.2,0,0.4,0,0.6-0.1c0.2-0.1,0.1-0.3,0.3-0.5c0.1-0.1,0.3,0,0.4-0.1c0.2-0.1,0.3-0.3,0.4-0.5c0-0.1,0-0.1,0-0.2       c0-0.1,0.1-0.2,0.1-0.3c0-0.1-0.1-0.1-0.1-0.2c0-0.1,0-0.2,0-0.3c0-0.2,0-0.4-0.1-0.5c-0.4-0.7-1.2-0.9-2-0.8       c-0.2,0-0.3,0.1-0.4,0.2c-0.2,0.1-0.1,0.2-0.3,0.2c-0.1,0-0.2,0.1-0.2,0.2C0.5-33.4,0.5-33.5,0.5-33.4       C0.5-33.4,0.5-33.4,0.5-33.4"/>
				</g>
				<g>
					<path fill="#FFFFFF" d="M69.4-25.7c0,0.1,0,0.1,0,0.2c-0.1,0.1-0.1,0.1-0.2,0.1c-0.1,0.1-0.1,0.3-0.1,0.4c-0.2,0.1,0,0.2,0,0.3       c0,0,0,0.1,0,0.2c0,0.1,0,0.3,0.1,0.4c0.1,0.2,0.3,0.4,0.4,0.5c0.2,0.1,0.4,0.6,0.6,0.6c0.2,0,0.4-0.1,0.5-0.1       c0.2,0,0.4,0,0.6-0.1c0.2-0.1,0.1-0.3,0.3-0.5c0.1-0.1,0.3,0,0.4-0.1c0.2-0.1,0.3-0.3,0.4-0.5c0-0.1,0-0.1,0-0.2       c0-0.1,0.1-0.2,0.1-0.3c0-0.1-0.1-0.1-0.1-0.2c0-0.1,0-0.2,0-0.3c0-0.2,0-0.4-0.1-0.5c-0.4-0.7-1.2-0.9-2-0.8       c-0.2,0-0.3,0.1-0.4,0.2c-0.2,0.1-0.1,0.2-0.3,0.2c-0.1,0-0.2,0.1-0.2,0.2C69.4-25.8,69.4-25.8,69.4-25.7       C69.4-25.7,69.4-25.7,69.4-25.7"/>
					<path fill="#FFFFFF" d="M61.8-25.7c0,0.1,0,0.1,0,0.2c-0.1,0.1-0.1,0.1-0.2,0.1c-0.1,0.1-0.1,0.3-0.1,0.4c-0.2,0.1,0,0.2,0,0.3       c0,0,0,0.1,0,0.2c0,0.1,0,0.3,0.1,0.4c0.1,0.2,0.3,0.4,0.4,0.5c0.2,0.1,0.4,0.6,0.6,0.6c0.2,0,0.4-0.1,0.5-0.1       c0.2,0,0.4,0,0.6-0.1c0.2-0.1,0.1-0.3,0.3-0.5c0.1-0.1,0.3,0,0.4-0.1c0.2-0.1,0.3-0.3,0.4-0.5c0-0.1,0-0.1,0-0.2       c0-0.1,0.1-0.2,0.1-0.3c0-0.1-0.1-0.1-0.1-0.2c0-0.1,0-0.2,0-0.3c0-0.2,0-0.4-0.1-0.5c-0.4-0.7-1.2-0.9-2-0.8       c-0.2,0-0.3,0.1-0.4,0.2c-0.2,0.1-0.1,0.2-0.3,0.2c-0.1,0-0.2,0.1-0.2,0.2C61.8-25.8,61.8-25.8,61.8-25.7       C61.8-25.7,61.8-25.7,61.8-25.7"/>
					<path fill="#FFFFFF" d="M54.1-25.7c0,0.1,0,0.1,0,0.2c-0.1,0.1-0.1,0.1-0.2,0.1c-0.1,0.1-0.1,0.3-0.1,0.4c-0.2,0.1,0,0.2,0,0.3       c0,0,0,0.1,0,0.2c0,0.1,0,0.3,0.1,0.4c0.1,0.2,0.3,0.4,0.4,0.5c0.2,0.1,0.4,0.6,0.6,0.6c0.2,0,0.4-0.1,0.5-0.1       c0.2,0,0.4,0,0.6-0.1c0.2-0.1,0.1-0.3,0.3-0.5c0.1-0.1,0.3,0,0.4-0.1c0.2-0.1,0.3-0.3,0.4-0.5c0-0.1,0-0.1,0-0.2       c0-0.1,0.1-0.2,0.1-0.3c0-0.1-0.1-0.1-0.1-0.2c0-0.1,0-0.2,0-0.3c0-0.2,0-0.4-0.1-0.5c-0.4-0.7-1.2-0.9-2-0.8       c-0.2,0-0.3,0.1-0.4,0.2c-0.2,0.1-0.1,0.2-0.3,0.2c-0.1,0-0.2,0.1-0.2,0.2C54.1-25.8,54.1-25.8,54.1-25.7       C54.1-25.7,54.1-25.7,54.1-25.7"/>
					<path fill="#FFFFFF" d="M46.5-25.7c0,0.1,0,0.1,0,0.2c-0.1,0.1-0.1,0.1-0.2,0.1c-0.1,0.1-0.1,0.3-0.1,0.4c-0.2,0.1,0,0.2,0,0.3       c0,0,0,0.1,0,0.2c0,0.1,0,0.3,0.1,0.4c0.1,0.2,0.3,0.4,0.4,0.5c0.2,0.1,0.4,0.6,0.6,0.6c0.2,0,0.4-0.1,0.5-0.1       c0.2,0,0.4,0,0.6-0.1c0.2-0.1,0.1-0.3,0.3-0.5c0.1-0.1,0.3,0,0.4-0.1c0.2-0.1,0.3-0.3,0.4-0.5c0-0.1,0-0.1,0-0.2       c0-0.1,0.1-0.2,0.1-0.3c0-0.1-0.1-0.1-0.1-0.2c0-0.1,0-0.2,0-0.3c0-0.2,0-0.4-0.1-0.5c-0.4-0.7-1.2-0.9-2-0.8       c-0.2,0-0.3,0.1-0.4,0.2c-0.2,0.1-0.1,0.2-0.3,0.2c-0.1,0-0.2,0.1-0.2,0.2C46.5-25.8,46.5-25.8,46.5-25.7       C46.5-25.7,46.5-25.7,46.5-25.7"/>
					<path fill="#FFFFFF" d="M38.8-25.7c0,0.1,0,0.1,0,0.2c-0.1,0.1-0.1,0.1-0.2,0.1c-0.1,0.1-0.1,0.3-0.1,0.4c-0.2,0.1,0,0.2,0,0.3       c0,0,0,0.1,0,0.2c0,0.1,0,0.3,0.1,0.4c0.1,0.2,0.3,0.4,0.4,0.5c0.2,0.1,0.4,0.6,0.6,0.6c0.2,0,0.4-0.1,0.5-0.1       c0.2,0,0.4,0,0.6-0.1c0.2-0.1,0.1-0.3,0.3-0.5c0.1-0.1,0.3,0,0.4-0.1c0.2-0.1,0.3-0.3,0.4-0.5c0-0.1,0-0.1,0-0.2       c0-0.1,0.1-0.2,0.1-0.3c0-0.1-0.1-0.1-0.1-0.2c0-0.1,0-0.2,0-0.3c0-0.2,0-0.4-0.1-0.5c-0.4-0.7-1.2-0.9-2-0.8       c-0.2,0-0.3,0.1-0.4,0.2c-0.2,0.1-0.1,0.2-0.3,0.2c-0.1,0-0.2,0.1-0.2,0.2C38.8-25.8,38.8-25.8,38.8-25.7       C38.8-25.7,38.8-25.7,38.8-25.7"/>
					<path fill="#FFFFFF" d="M31.1-25.7c0,0.1,0,0.1,0,0.2c-0.1,0.1-0.1,0.1-0.2,0.1c-0.1,0.1-0.1,0.3-0.1,0.4c-0.2,0.1,0,0.2,0,0.3       c0,0,0,0.1,0,0.2c0,0.1,0,0.3,0.1,0.4c0.1,0.2,0.3,0.4,0.4,0.5c0.2,0.1,0.4,0.6,0.6,0.6c0.2,0,0.4-0.1,0.5-0.1       c0.2,0,0.4,0,0.6-0.1c0.2-0.1,0.1-0.3,0.3-0.5c0.1-0.1,0.3,0,0.4-0.1c0.2-0.1,0.3-0.3,0.4-0.5c0-0.1,0-0.1,0-0.2       c0-0.1,0.1-0.2,0.1-0.3c0-0.1-0.1-0.1-0.1-0.2c0-0.1,0-0.2,0-0.3c0-0.2,0-0.4-0.1-0.5c-0.4-0.7-1.2-0.9-2-0.8       c-0.2,0-0.3,0.1-0.4,0.2c-0.2,0.1-0.1,0.2-0.3,0.2c-0.1,0-0.2,0.1-0.2,0.2C31.1-25.8,31.1-25.8,31.1-25.7       C31.1-25.7,31.1-25.7,31.1-25.7"/>
					<path fill="#FFFFFF" d="M23.5-25.7c0,0.1,0,0.1,0,0.2c-0.1,0.1-0.1,0.1-0.2,0.1c-0.1,0.1-0.1,0.3-0.1,0.4c-0.2,0.1,0,0.2,0,0.3       c0,0,0,0.1,0,0.2c0,0.1,0,0.3,0.1,0.4c0.1,0.2,0.3,0.4,0.4,0.5c0.2,0.1,0.4,0.6,0.6,0.6c0.2,0,0.4-0.1,0.5-0.1       c0.2,0,0.4,0,0.6-0.1c0.2-0.1,0.1-0.3,0.3-0.5c0.1-0.1,0.3,0,0.4-0.1c0.2-0.1,0.3-0.3,0.4-0.5c0-0.1,0-0.1,0-0.2       c0-0.1,0.1-0.2,0.1-0.3c0-0.1-0.1-0.1-0.1-0.2c0-0.1,0-0.2,0-0.3c0-0.2,0-0.4-0.1-0.5c-0.4-0.7-1.2-0.9-2-0.8       c-0.2,0-0.3,0.1-0.4,0.2c-0.2,0.1-0.1,0.2-0.3,0.2c-0.1,0-0.2,0.1-0.2,0.2C23.5-25.8,23.5-25.8,23.5-25.7       C23.5-25.7,23.5-25.7,23.5-25.7"/>
					<path fill="#FFFFFF" d="M15.8-25.7c0,0.1,0,0.1,0,0.2c-0.1,0.1-0.1,0.1-0.2,0.1c-0.1,0.1-0.1,0.3-0.1,0.4c-0.2,0.1,0,0.2,0,0.3       c0,0,0,0.1,0,0.2c0,0.1,0,0.3,0.1,0.4c0.1,0.2,0.3,0.4,0.4,0.5c0.2,0.1,0.4,0.6,0.6,0.6c0.2,0,0.4-0.1,0.5-0.1       c0.2,0,0.4,0,0.6-0.1c0.2-0.1,0.1-0.3,0.3-0.5c0.1-0.1,0.3,0,0.4-0.1c0.2-0.1,0.3-0.3,0.4-0.5c0-0.1,0-0.1,0-0.2       c0-0.1,0.1-0.2,0.1-0.3c0-0.1-0.1-0.1-0.1-0.2c0-0.1,0-0.2,0-0.3c0-0.2,0-0.4-0.1-0.5c-0.4-0.7-1.2-0.9-2-0.8       c-0.2,0-0.3,0.1-0.4,0.2c-0.2,0.1-0.1,0.2-0.3,0.2c-0.1,0-0.2,0.1-0.2,0.2C15.8-25.8,15.8-25.8,15.8-25.7       C15.8-25.7,15.8-25.7,15.8-25.7"/>
					<path fill="#FFFFFF" d="M8.2-25.7c0,0.1,0,0.1,0,0.2C8.1-25.4,8-25.5,8-25.4c-0.1,0.1-0.1,0.3-0.1,0.4c-0.2,0.1,0,0.2,0,0.3       c0,0,0,0.1,0,0.2c0,0.1,0,0.3,0.1,0.4C8-24,8.2-23.8,8.3-23.6c0.2,0.1,0.4,0.6,0.6,0.6c0.2,0,0.4-0.1,0.5-0.1       c0.2,0,0.4,0,0.6-0.1c0.2-0.1,0.1-0.3,0.3-0.5c0.1-0.1,0.3,0,0.4-0.1c0.2-0.1,0.3-0.3,0.4-0.5c0-0.1,0-0.1,0-0.2       c0-0.1,0.1-0.2,0.1-0.3c0-0.1-0.1-0.1-0.1-0.2c0-0.1,0-0.2,0-0.3c0-0.2,0-0.4-0.1-0.5c-0.4-0.7-1.2-0.9-2-0.8       c-0.2,0-0.3,0.1-0.4,0.2c-0.2,0.1-0.1,0.2-0.3,0.2c-0.1,0-0.2,0.1-0.2,0.2C8.2-25.8,8.2-25.8,8.2-25.7       C8.1-25.7,8.1-25.7,8.2-25.7"/>
					<path fill="#FFFFFF" d="M0.5-25.7c0,0.1,0,0.1,0,0.2c-0.1,0.1-0.1,0.1-0.2,0.1c-0.1,0.1-0.1,0.3-0.1,0.4c-0.2,0.1,0,0.2,0,0.3       c0,0,0,0.1,0,0.2c0,0.1,0,0.3,0.1,0.4c0.1,0.2,0.3,0.4,0.4,0.5C0.9-23.5,1-23.1,1.3-23c0.2,0,0.4-0.1,0.5-0.1       c0.2,0,0.4,0,0.6-0.1c0.2-0.1,0.1-0.3,0.3-0.5c0.1-0.1,0.3,0,0.4-0.1c0.2-0.1,0.3-0.3,0.4-0.5c0-0.1,0-0.1,0-0.2       c0-0.1,0.1-0.2,0.1-0.3c0-0.1-0.1-0.1-0.1-0.2c0-0.1,0-0.2,0-0.3c0-0.2,0-0.4-0.1-0.5c-0.4-0.7-1.2-0.9-2-0.8       c-0.2,0-0.3,0.1-0.4,0.2c-0.2,0.1-0.1,0.2-0.3,0.2c-0.1,0-0.2,0.1-0.2,0.2C0.5-25.8,0.5-25.8,0.5-25.7       C0.5-25.7,0.5-25.7,0.5-25.7"/>
				</g>
				<g>
					<path fill="#FFFFFF" d="M69.4-18.1c0,0.1,0,0.1,0,0.2c-0.1,0.1-0.1,0.1-0.2,0.1c-0.1,0.1-0.1,0.3-0.1,0.4c-0.2,0.1,0,0.2,0,0.3       c0,0,0,0.1,0,0.2c0,0.1,0,0.3,0.1,0.4c0.1,0.2,0.3,0.4,0.4,0.5c0.2,0.1,0.4,0.6,0.6,0.6c0.2,0,0.4-0.1,0.5-0.1       c0.2,0,0.4,0,0.6-0.1c0.2-0.1,0.1-0.3,0.3-0.5c0.1-0.1,0.3,0,0.4-0.1c0.2-0.1,0.3-0.3,0.4-0.5c0-0.1,0-0.1,0-0.2       c0-0.1,0.1-0.2,0.1-0.3c0-0.1-0.1-0.1-0.1-0.2c0-0.1,0-0.2,0-0.3c0-0.2,0-0.4-0.1-0.5c-0.4-0.7-1.2-0.9-2-0.8       c-0.2,0-0.3,0.1-0.4,0.2c-0.2,0.1-0.1,0.2-0.3,0.2c-0.1,0-0.2,0.1-0.2,0.2C69.4-18.1,69.4-18.2,69.4-18.1       C69.4-18,69.4-18.1,69.4-18.1"/>
					<path fill="#FFFFFF" d="M61.8-18.1c0,0.1,0,0.1,0,0.2c-0.1,0.1-0.1,0.1-0.2,0.1c-0.1,0.1-0.1,0.3-0.1,0.4c-0.2,0.1,0,0.2,0,0.3       c0,0,0,0.1,0,0.2c0,0.1,0,0.3,0.1,0.4c0.1,0.2,0.3,0.4,0.4,0.5c0.2,0.1,0.4,0.6,0.6,0.6c0.2,0,0.4-0.1,0.5-0.1       c0.2,0,0.4,0,0.6-0.1c0.2-0.1,0.1-0.3,0.3-0.5c0.1-0.1,0.3,0,0.4-0.1c0.2-0.1,0.3-0.3,0.4-0.5c0-0.1,0-0.1,0-0.2       c0-0.1,0.1-0.2,0.1-0.3c0-0.1-0.1-0.1-0.1-0.2c0-0.1,0-0.2,0-0.3c0-0.2,0-0.4-0.1-0.5c-0.4-0.7-1.2-0.9-2-0.8       c-0.2,0-0.3,0.1-0.4,0.2c-0.2,0.1-0.1,0.2-0.3,0.2c-0.1,0-0.2,0.1-0.2,0.2C61.8-18.1,61.8-18.2,61.8-18.1       C61.8-18,61.8-18.1,61.8-18.1"/>
					<path fill="#FFFFFF" d="M54.1-18.1c0,0.1,0,0.1,0,0.2c-0.1,0.1-0.1,0.1-0.2,0.1c-0.1,0.1-0.1,0.3-0.1,0.4c-0.2,0.1,0,0.2,0,0.3       c0,0,0,0.1,0,0.2c0,0.1,0,0.3,0.1,0.4c0.1,0.2,0.3,0.4,0.4,0.5c0.2,0.1,0.4,0.6,0.6,0.6c0.2,0,0.4-0.1,0.5-0.1       c0.2,0,0.4,0,0.6-0.1c0.2-0.1,0.1-0.3,0.3-0.5c0.1-0.1,0.3,0,0.4-0.1c0.2-0.1,0.3-0.3,0.4-0.5c0-0.1,0-0.1,0-0.2       c0-0.1,0.1-0.2,0.1-0.3c0-0.1-0.1-0.1-0.1-0.2c0-0.1,0-0.2,0-0.3c0-0.2,0-0.4-0.1-0.5c-0.4-0.7-1.2-0.9-2-0.8       c-0.2,0-0.3,0.1-0.4,0.2c-0.2,0.1-0.1,0.2-0.3,0.2c-0.1,0-0.2,0.1-0.2,0.2C54.1-18.1,54.1-18.2,54.1-18.1       C54.1-18,54.1-18.1,54.1-18.1"/>
					<path fill="#FFFFFF" d="M46.5-18.1c0,0.1,0,0.1,0,0.2c-0.1,0.1-0.1,0.1-0.2,0.1c-0.1,0.1-0.1,0.3-0.1,0.4c-0.2,0.1,0,0.2,0,0.3       c0,0,0,0.1,0,0.2c0,0.1,0,0.3,0.1,0.4c0.1,0.2,0.3,0.4,0.4,0.5c0.2,0.1,0.4,0.6,0.6,0.6c0.2,0,0.4-0.1,0.5-0.1       c0.2,0,0.4,0,0.6-0.1c0.2-0.1,0.1-0.3,0.3-0.5c0.1-0.1,0.3,0,0.4-0.1c0.2-0.1,0.3-0.3,0.4-0.5c0-0.1,0-0.1,0-0.2       c0-0.1,0.1-0.2,0.1-0.3c0-0.1-0.1-0.1-0.1-0.2c0-0.1,0-0.2,0-0.3c0-0.2,0-0.4-0.1-0.5c-0.4-0.7-1.2-0.9-2-0.8       c-0.2,0-0.3,0.1-0.4,0.2c-0.2,0.1-0.1,0.2-0.3,0.2c-0.1,0-0.2,0.1-0.2,0.2C46.5-18.1,46.5-18.2,46.5-18.1       C46.5-18,46.5-18.1,46.5-18.1"/>
					<path fill="#FFFFFF" d="M38.8-18.1c0,0.1,0,0.1,0,0.2c-0.1,0.1-0.1,0.1-0.2,0.1c-0.1,0.1-0.1,0.3-0.1,0.4c-0.2,0.1,0,0.2,0,0.3       c0,0,0,0.1,0,0.2c0,0.1,0,0.3,0.1,0.4c0.1,0.2,0.3,0.4,0.4,0.5c0.2,0.1,0.4,0.6,0.6,0.6c0.2,0,0.4-0.1,0.5-0.1       c0.2,0,0.4,0,0.6-0.1c0.2-0.1,0.1-0.3,0.3-0.5c0.1-0.1,0.3,0,0.4-0.1c0.2-0.1,0.3-0.3,0.4-0.5c0-0.1,0-0.1,0-0.2       c0-0.1,0.1-0.2,0.1-0.3c0-0.1-0.1-0.1-0.1-0.2c0-0.1,0-0.2,0-0.3c0-0.2,0-0.4-0.1-0.5c-0.4-0.7-1.2-0.9-2-0.8       c-0.2,0-0.3,0.1-0.4,0.2c-0.2,0.1-0.1,0.2-0.3,0.2c-0.1,0-0.2,0.1-0.2,0.2C38.8-18.1,38.8-18.2,38.8-18.1       C38.8-18,38.8-18.1,38.8-18.1"/>
					<path fill="#FFFFFF" d="M31.1-18.1c0,0.1,0,0.1,0,0.2c-0.1,0.1-0.1,0.1-0.2,0.1c-0.1,0.1-0.1,0.3-0.1,0.4c-0.2,0.1,0,0.2,0,0.3       c0,0,0,0.1,0,0.2c0,0.1,0,0.3,0.1,0.4c0.1,0.2,0.3,0.4,0.4,0.5c0.2,0.1,0.4,0.6,0.6,0.6c0.2,0,0.4-0.1,0.5-0.1       c0.2,0,0.4,0,0.6-0.1c0.2-0.1,0.1-0.3,0.3-0.5c0.1-0.1,0.3,0,0.4-0.1c0.2-0.1,0.3-0.3,0.4-0.5c0-0.1,0-0.1,0-0.2       c0-0.1,0.1-0.2,0.1-0.3c0-0.1-0.1-0.1-0.1-0.2c0-0.1,0-0.2,0-0.3c0-0.2,0-0.4-0.1-0.5c-0.4-0.7-1.2-0.9-2-0.8       c-0.2,0-0.3,0.1-0.4,0.2c-0.2,0.1-0.1,0.2-0.3,0.2c-0.1,0-0.2,0.1-0.2,0.2C31.1-18.1,31.1-18.2,31.1-18.1       C31.1-18,31.1-18.1,31.1-18.1"/>
					<path fill="#FFFFFF" d="M23.5-18.1c0,0.1,0,0.1,0,0.2c-0.1,0.1-0.1,0.1-0.2,0.1c-0.1,0.1-0.1,0.3-0.1,0.4c-0.2,0.1,0,0.2,0,0.3       c0,0,0,0.1,0,0.2c0,0.1,0,0.3,0.1,0.4c0.1,0.2,0.3,0.4,0.4,0.5c0.2,0.1,0.4,0.6,0.6,0.6c0.2,0,0.4-0.1,0.5-0.1       c0.2,0,0.4,0,0.6-0.1c0.2-0.1,0.1-0.3,0.3-0.5c0.1-0.1,0.3,0,0.4-0.1c0.2-0.1,0.3-0.3,0.4-0.5c0-0.1,0-0.1,0-0.2       c0-0.1,0.1-0.2,0.1-0.3c0-0.1-0.1-0.1-0.1-0.2c0-0.1,0-0.2,0-0.3c0-0.2,0-0.4-0.1-0.5c-0.4-0.7-1.2-0.9-2-0.8       c-0.2,0-0.3,0.1-0.4,0.2c-0.2,0.1-0.1,0.2-0.3,0.2c-0.1,0-0.2,0.1-0.2,0.2C23.5-18.1,23.5-18.2,23.5-18.1       C23.5-18,23.5-18.1,23.5-18.1"/>
					<path fill="#FFFFFF" d="M15.8-18.1c0,0.1,0,0.1,0,0.2c-0.1,0.1-0.1,0.1-0.2,0.1c-0.1,0.1-0.1,0.3-0.1,0.4c-0.2,0.1,0,0.2,0,0.3       c0,0,0,0.1,0,0.2c0,0.1,0,0.3,0.1,0.4c0.1,0.2,0.3,0.4,0.4,0.5c0.2,0.1,0.4,0.6,0.6,0.6c0.2,0,0.4-0.1,0.5-0.1       c0.2,0,0.4,0,0.6-0.1c0.2-0.1,0.1-0.3,0.3-0.5c0.1-0.1,0.3,0,0.4-0.1c0.2-0.1,0.3-0.3,0.4-0.5c0-0.1,0-0.1,0-0.2       c0-0.1,0.1-0.2,0.1-0.3c0-0.1-0.1-0.1-0.1-0.2c0-0.1,0-0.2,0-0.3c0-0.2,0-0.4-0.1-0.5c-0.4-0.7-1.2-0.9-2-0.8       c-0.2,0-0.3,0.1-0.4,0.2c-0.2,0.1-0.1,0.2-0.3,0.2c-0.1,0-0.2,0.1-0.2,0.2C15.8-18.1,15.8-18.2,15.8-18.1       C15.8-18,15.8-18.1,15.8-18.1"/>
					<path fill="#FFFFFF" d="M8.2-18.1c0,0.1,0,0.1,0,0.2C8.1-17.8,8-17.8,8-17.8c-0.1,0.1-0.1,0.3-0.1,0.4c-0.2,0.1,0,0.2,0,0.3       c0,0,0,0.1,0,0.2c0,0.1,0,0.3,0.1,0.4C8-16.3,8.2-16.1,8.3-16c0.2,0.1,0.4,0.6,0.6,0.6c0.2,0,0.4-0.1,0.5-0.1       c0.2,0,0.4,0,0.6-0.1c0.2-0.1,0.1-0.3,0.3-0.5c0.1-0.1,0.3,0,0.4-0.1c0.2-0.1,0.3-0.3,0.4-0.5c0-0.1,0-0.1,0-0.2       c0-0.1,0.1-0.2,0.1-0.3c0-0.1-0.1-0.1-0.1-0.2c0-0.1,0-0.2,0-0.3c0-0.2,0-0.4-0.1-0.5c-0.4-0.7-1.2-0.9-2-0.8       c-0.2,0-0.3,0.1-0.4,0.2c-0.2,0.1-0.1,0.2-0.3,0.2c-0.1,0-0.2,0.1-0.2,0.2C8.2-18.1,8.2-18.2,8.2-18.1       C8.1-18,8.1-18.1,8.2-18.1"/>
					<path fill="#FFFFFF" d="M0.5-18.1c0,0.1,0,0.1,0,0.2c-0.1,0.1-0.1,0.1-0.2,0.1c-0.1,0.1-0.1,0.3-0.1,0.4c-0.2,0.1,0,0.2,0,0.3       c0,0,0,0.1,0,0.2c0,0.1,0,0.3,0.1,0.4c0.1,0.2,0.3,0.4,0.4,0.5c0.2,0.1,0.4,0.6,0.6,0.6c0.2,0,0.4-0.1,0.5-0.1       c0.2,0,0.4,0,0.6-0.1c0.2-0.1,0.1-0.3,0.3-0.5C2.8-16.1,3-16,3.1-16c0.2-0.1,0.3-0.3,0.4-0.5c0-0.1,0-0.1,0-0.2       c0-0.1,0.1-0.2,0.1-0.3c0-0.1-0.1-0.1-0.1-0.2c0-0.1,0-0.2,0-0.3c0-0.2,0-0.4-0.1-0.5c-0.4-0.7-1.2-0.9-2-0.8       c-0.2,0-0.3,0.1-0.4,0.2c-0.2,0.1-0.1,0.2-0.3,0.2c-0.1,0-0.2,0.1-0.2,0.2C0.5-18.1,0.5-18.2,0.5-18.1       C0.5-18,0.5-18.1,0.5-18.1"/>
				</g>
				<g>
					<path fill="#FFFFFF" d="M69.4-10.4c0,0.1,0,0.1,0,0.2c-0.1,0.1-0.1,0.1-0.2,0.1c-0.1,0.1-0.1,0.3-0.1,0.4c-0.2,0.1,0,0.2,0,0.3       c0,0,0,0.1,0,0.2c0,0.1,0,0.3,0.1,0.4c0.1,0.2,0.3,0.4,0.4,0.5c0.2,0.1,0.4,0.6,0.6,0.6c0.2,0,0.4-0.1,0.5-0.1       c0.2,0,0.4,0,0.6-0.1c0.2-0.1,0.1-0.3,0.3-0.5c0.1-0.1,0.3,0,0.4-0.1c0.2-0.1,0.3-0.3,0.4-0.5c0-0.1,0-0.1,0-0.2       c0-0.1,0.1-0.2,0.1-0.3c0-0.1-0.1-0.1-0.1-0.2c0-0.1,0-0.2,0-0.3c0-0.2,0-0.4-0.1-0.5c-0.4-0.7-1.2-0.9-2-0.8       c-0.2,0-0.3,0.1-0.4,0.2c-0.2,0.1-0.1,0.2-0.3,0.2c-0.1,0-0.2,0.1-0.2,0.2C69.4-10.5,69.4-10.5,69.4-10.4       C69.4-10.4,69.4-10.4,69.4-10.4"/>
					<path fill="#FFFFFF" d="M61.8-10.4c0,0.1,0,0.1,0,0.2c-0.1,0.1-0.1,0.1-0.2,0.1c-0.1,0.1-0.1,0.3-0.1,0.4c-0.2,0.1,0,0.2,0,0.3       c0,0,0,0.1,0,0.2c0,0.1,0,0.3,0.1,0.4c0.1,0.2,0.3,0.4,0.4,0.5c0.2,0.1,0.4,0.6,0.6,0.6c0.2,0,0.4-0.1,0.5-0.1       c0.2,0,0.4,0,0.6-0.1C63.9-8,63.8-8.2,64-8.3c0.1-0.1,0.3,0,0.4-0.1c0.2-0.1,0.3-0.3,0.4-0.5c0-0.1,0-0.1,0-0.2       c0-0.1,0.1-0.2,0.1-0.3c0-0.1-0.1-0.1-0.1-0.2c0-0.1,0-0.2,0-0.3c0-0.2,0-0.4-0.1-0.5c-0.4-0.7-1.2-0.9-2-0.8       c-0.2,0-0.3,0.1-0.4,0.2c-0.2,0.1-0.1,0.2-0.3,0.2c-0.1,0-0.2,0.1-0.2,0.2C61.8-10.5,61.8-10.5,61.8-10.4       C61.8-10.4,61.8-10.4,61.8-10.4"/>
					<path fill="#FFFFFF" d="M54.1-10.4c0,0.1,0,0.1,0,0.2c-0.1,0.1-0.1,0.1-0.2,0.1c-0.1,0.1-0.1,0.3-0.1,0.4c-0.2,0.1,0,0.2,0,0.3       c0,0,0,0.1,0,0.2c0,0.1,0,0.3,0.1,0.4c0.1,0.2,0.3,0.4,0.4,0.5c0.2,0.1,0.4,0.6,0.6,0.6c0.2,0,0.4-0.1,0.5-0.1       c0.2,0,0.4,0,0.6-0.1c0.2-0.1,0.1-0.3,0.3-0.5c0.1-0.1,0.3,0,0.4-0.1c0.2-0.1,0.3-0.3,0.4-0.5c0-0.1,0-0.1,0-0.2       c0-0.1,0.1-0.2,0.1-0.3c0-0.1-0.1-0.1-0.1-0.2c0-0.1,0-0.2,0-0.3c0-0.2,0-0.4-0.1-0.5c-0.4-0.7-1.2-0.9-2-0.8       c-0.2,0-0.3,0.1-0.4,0.2c-0.2,0.1-0.1,0.2-0.3,0.2c-0.1,0-0.2,0.1-0.2,0.2C54.1-10.5,54.1-10.5,54.1-10.4       C54.1-10.4,54.1-10.4,54.1-10.4"/>
					<path fill="#FFFFFF" d="M46.5-10.4c0,0.1,0,0.1,0,0.2c-0.1,0.1-0.1,0.1-0.2,0.1c-0.1,0.1-0.1,0.3-0.1,0.4c-0.2,0.1,0,0.2,0,0.3       c0,0,0,0.1,0,0.2c0,0.1,0,0.3,0.1,0.4c0.1,0.2,0.3,0.4,0.4,0.5c0.2,0.1,0.4,0.6,0.6,0.6c0.2,0,0.4-0.1,0.5-0.1       c0.2,0,0.4,0,0.6-0.1c0.2-0.1,0.1-0.3,0.3-0.5c0.1-0.1,0.3,0,0.4-0.1c0.2-0.1,0.3-0.3,0.4-0.5c0-0.1,0-0.1,0-0.2       c0-0.1,0.1-0.2,0.1-0.3c0-0.1-0.1-0.1-0.1-0.2c0-0.1,0-0.2,0-0.3c0-0.2,0-0.4-0.1-0.5c-0.4-0.7-1.2-0.9-2-0.8       c-0.2,0-0.3,0.1-0.4,0.2c-0.2,0.1-0.1,0.2-0.3,0.2c-0.1,0-0.2,0.1-0.2,0.2C46.5-10.5,46.5-10.5,46.5-10.4       C46.5-10.4,46.5-10.4,46.5-10.4"/>
					<path fill="#FFFFFF" d="M38.8-10.4c0,0.1,0,0.1,0,0.2c-0.1,0.1-0.1,0.1-0.2,0.1c-0.1,0.1-0.1,0.3-0.1,0.4c-0.2,0.1,0,0.2,0,0.3       c0,0,0,0.1,0,0.2c0,0.1,0,0.3,0.1,0.4c0.1,0.2,0.3,0.4,0.4,0.5c0.2,0.1,0.4,0.6,0.6,0.6c0.2,0,0.4-0.1,0.5-0.1       c0.2,0,0.4,0,0.6-0.1C40.9-8,40.8-8.2,41-8.3c0.1-0.1,0.3,0,0.4-0.1c0.2-0.1,0.3-0.3,0.4-0.5c0-0.1,0-0.1,0-0.2       c0-0.1,0.1-0.2,0.1-0.3c0-0.1-0.1-0.1-0.1-0.2c0-0.1,0-0.2,0-0.3c0-0.2,0-0.4-0.1-0.5c-0.4-0.7-1.2-0.9-2-0.8       c-0.2,0-0.3,0.1-0.4,0.2c-0.2,0.1-0.1,0.2-0.3,0.2c-0.1,0-0.2,0.1-0.2,0.2C38.8-10.5,38.8-10.5,38.8-10.4       C38.8-10.4,38.8-10.4,38.8-10.4"/>
					<path fill="#FFFFFF" d="M31.1-10.4c0,0.1,0,0.1,0,0.2c-0.1,0.1-0.1,0.1-0.2,0.1c-0.1,0.1-0.1,0.3-0.1,0.4c-0.2,0.1,0,0.2,0,0.3       c0,0,0,0.1,0,0.2c0,0.1,0,0.3,0.1,0.4c0.1,0.2,0.3,0.4,0.4,0.5c0.2,0.1,0.4,0.6,0.6,0.6c0.2,0,0.4-0.1,0.5-0.1       c0.2,0,0.4,0,0.6-0.1c0.2-0.1,0.1-0.3,0.3-0.5c0.1-0.1,0.3,0,0.4-0.1c0.2-0.1,0.3-0.3,0.4-0.5c0-0.1,0-0.1,0-0.2       c0-0.1,0.1-0.2,0.1-0.3c0-0.1-0.1-0.1-0.1-0.2c0-0.1,0-0.2,0-0.3c0-0.2,0-0.4-0.1-0.5c-0.4-0.7-1.2-0.9-2-0.8       c-0.2,0-0.3,0.1-0.4,0.2c-0.2,0.1-0.1,0.2-0.3,0.2c-0.1,0-0.2,0.1-0.2,0.2C31.1-10.5,31.1-10.5,31.1-10.4       C31.1-10.4,31.1-10.4,31.1-10.4"/>
					<path fill="#FFFFFF" d="M23.5-10.4c0,0.1,0,0.1,0,0.2c-0.1,0.1-0.1,0.1-0.2,0.1c-0.1,0.1-0.1,0.3-0.1,0.4c-0.2,0.1,0,0.2,0,0.3       c0,0,0,0.1,0,0.2c0,0.1,0,0.3,0.1,0.4c0.1,0.2,0.3,0.4,0.4,0.5c0.2,0.1,0.4,0.6,0.6,0.6c0.2,0,0.4-0.1,0.5-0.1       c0.2,0,0.4,0,0.6-0.1c0.2-0.1,0.1-0.3,0.3-0.5c0.1-0.1,0.3,0,0.4-0.1c0.2-0.1,0.3-0.3,0.4-0.5c0-0.1,0-0.1,0-0.2       c0-0.1,0.1-0.2,0.1-0.3c0-0.1-0.1-0.1-0.1-0.2c0-0.1,0-0.2,0-0.3c0-0.2,0-0.4-0.1-0.5c-0.4-0.7-1.2-0.9-2-0.8       c-0.2,0-0.3,0.1-0.4,0.2c-0.2,0.1-0.1,0.2-0.3,0.2c-0.1,0-0.2,0.1-0.2,0.2C23.5-10.5,23.5-10.5,23.5-10.4       C23.5-10.4,23.5-10.4,23.5-10.4"/>
					<path fill="#FFFFFF" d="M15.8-10.4c0,0.1,0,0.1,0,0.2c-0.1,0.1-0.1,0.1-0.2,0.1c-0.1,0.1-0.1,0.3-0.1,0.4c-0.2,0.1,0,0.2,0,0.3       c0,0,0,0.1,0,0.2c0,0.1,0,0.3,0.1,0.4c0.1,0.2,0.3,0.4,0.4,0.5c0.2,0.1,0.4,0.6,0.6,0.6c0.2,0,0.4-0.1,0.5-0.1       c0.2,0,0.4,0,0.6-0.1C17.9-8,17.8-8.2,18-8.3c0.1-0.1,0.3,0,0.4-0.1c0.2-0.1,0.3-0.3,0.4-0.5c0-0.1,0-0.1,0-0.2       c0-0.1,0.1-0.2,0.1-0.3c0-0.1-0.1-0.1-0.1-0.2c0-0.1,0-0.2,0-0.3c0-0.2,0-0.4-0.1-0.5c-0.4-0.7-1.2-0.9-2-0.8       c-0.2,0-0.3,0.1-0.4,0.2c-0.2,0.1-0.1,0.2-0.3,0.2c-0.1,0-0.2,0.1-0.2,0.2C15.8-10.5,15.8-10.5,15.8-10.4       C15.8-10.4,15.8-10.4,15.8-10.4"/>
					<path fill="#FFFFFF" d="M8.2-10.4c0,0.1,0,0.1,0,0.2C8.1-10.1,8-10.2,8-10.1C7.9-10,7.9-9.8,7.9-9.8c-0.2,0.1,0,0.2,0,0.3       c0,0,0,0.1,0,0.2c0,0.1,0,0.3,0.1,0.4C8-8.7,8.2-8.5,8.3-8.3c0.2,0.1,0.4,0.6,0.6,0.6c0.2,0,0.4-0.1,0.5-0.1       c0.2,0,0.4,0,0.6-0.1c0.2-0.1,0.1-0.3,0.3-0.5c0.1-0.1,0.3,0,0.4-0.1c0.2-0.1,0.3-0.3,0.4-0.5c0-0.1,0-0.1,0-0.2       c0-0.1,0.1-0.2,0.1-0.3c0-0.1-0.1-0.1-0.1-0.2c0-0.1,0-0.2,0-0.3c0-0.2,0-0.4-0.1-0.5c-0.4-0.7-1.2-0.9-2-0.8       c-0.2,0-0.3,0.1-0.4,0.2c-0.2,0.1-0.1,0.2-0.3,0.2c-0.1,0-0.2,0.1-0.2,0.2C8.2-10.5,8.2-10.5,8.2-10.4       C8.1-10.4,8.1-10.4,8.2-10.4"/>
					<path fill="#FFFFFF" d="M0.5-10.4c0,0.1,0,0.1,0,0.2c-0.1,0.1-0.1,0.1-0.2,0.1C0.3-10,0.2-9.8,0.2-9.8c-0.2,0.1,0,0.2,0,0.3       c0,0,0,0.1,0,0.2c0,0.1,0,0.3,0.1,0.4c0.1,0.2,0.3,0.4,0.4,0.5C0.9-8.2,1-7.8,1.3-7.7c0.2,0,0.4-0.1,0.5-0.1       c0.2,0,0.4,0,0.6-0.1C2.6-8,2.5-8.2,2.7-8.3c0.1-0.1,0.3,0,0.4-0.1c0.2-0.1,0.3-0.3,0.4-0.5c0-0.1,0-0.1,0-0.2       c0-0.1,0.1-0.2,0.1-0.3c0-0.1-0.1-0.1-0.1-0.2c0-0.1,0-0.2,0-0.3c0-0.2,0-0.4-0.1-0.5c-0.4-0.7-1.2-0.9-2-0.8       c-0.2,0-0.3,0.1-0.4,0.2c-0.2,0.1-0.1,0.2-0.3,0.2c-0.1,0-0.2,0.1-0.2,0.2C0.5-10.5,0.5-10.5,0.5-10.4       C0.5-10.4,0.5-10.4,0.5-10.4"/>
				</g>
			</g>
			<g>
				<path fill="#FFFFFF" d="M69.4-2.8c0,0.1,0,0.1,0,0.2c-0.1,0.1-0.1,0.1-0.2,0.1c-0.1,0.1-0.1,0.3-0.1,0.4c-0.2,0.1,0,0.2,0,0.3      c0,0,0,0.1,0,0.2c0,0.1,0,0.3,0.1,0.4c0.1,0.2,0.3,0.4,0.4,0.5C69.8-0.5,70-0.1,70.2,0c0.2,0,0.4-0.1,0.5-0.1      c0.2,0,0.4,0,0.6-0.1c0.2-0.1,0.1-0.3,0.3-0.5c0.1-0.1,0.3,0,0.4-0.1c0.2-0.1,0.3-0.3,0.4-0.5c0-0.1,0-0.1,0-0.2      c0-0.1,0.1-0.2,0.1-0.3c0-0.1-0.1-0.1-0.1-0.2c0-0.1,0-0.2,0-0.3c0-0.2,0-0.4-0.1-0.5c-0.4-0.7-1.2-0.9-2-0.8      c-0.2,0-0.3,0.1-0.4,0.2c-0.2,0.1-0.1,0.2-0.3,0.2c-0.1,0-0.2,0.1-0.2,0.2C69.4-2.8,69.4-2.9,69.4-2.8      C69.4-2.7,69.4-2.8,69.4-2.8"/>
				<path fill="#FFFFFF" d="M61.8-2.8c0,0.1,0,0.1,0,0.2c-0.1,0.1-0.1,0.1-0.2,0.1c-0.1,0.1-0.1,0.3-0.1,0.4c-0.2,0.1,0,0.2,0,0.3      c0,0,0,0.1,0,0.2c0,0.1,0,0.3,0.1,0.4C61.6-1,61.8-0.8,62-0.7c0.2,0.1,0.4,0.6,0.6,0.6c0.2,0,0.4-0.1,0.5-0.1      c0.2,0,0.4,0,0.6-0.1c0.2-0.1,0.1-0.3,0.3-0.5c0.1-0.1,0.3,0,0.4-0.1c0.2-0.1,0.3-0.3,0.4-0.5c0-0.1,0-0.1,0-0.2      c0-0.1,0.1-0.2,0.1-0.3c0-0.1-0.1-0.1-0.1-0.2c0-0.1,0-0.2,0-0.3c0-0.2,0-0.4-0.1-0.5c-0.4-0.7-1.2-0.9-2-0.8      c-0.2,0-0.3,0.1-0.4,0.2c-0.2,0.1-0.1,0.2-0.3,0.2c-0.1,0-0.2,0.1-0.2,0.2C61.8-2.8,61.8-2.9,61.8-2.8      C61.8-2.7,61.8-2.8,61.8-2.8"/>
				<path fill="#FFFFFF" d="M54.1-2.8c0,0.1,0,0.1,0,0.2C54-2.5,54-2.5,53.9-2.5c-0.1,0.1-0.1,0.3-0.1,0.4c-0.2,0.1,0,0.2,0,0.3      c0,0,0,0.1,0,0.2c0,0.1,0,0.3,0.1,0.4C54-1,54.1-0.8,54.3-0.7c0.2,0.1,0.4,0.6,0.6,0.6c0.2,0,0.4-0.1,0.5-0.1      c0.2,0,0.4,0,0.6-0.1c0.2-0.1,0.1-0.3,0.3-0.5c0.1-0.1,0.3,0,0.4-0.1C56.9-0.8,57-1,57.1-1.2c0-0.1,0-0.1,0-0.2      c0-0.1,0.1-0.2,0.1-0.3c0-0.1-0.1-0.1-0.1-0.2c0-0.1,0-0.2,0-0.3c0-0.2,0-0.4-0.1-0.5c-0.4-0.7-1.2-0.9-2-0.8      c-0.2,0-0.3,0.1-0.4,0.2c-0.2,0.1-0.1,0.2-0.3,0.2c-0.1,0-0.2,0.1-0.2,0.2C54.1-2.8,54.1-2.9,54.1-2.8      C54.1-2.7,54.1-2.8,54.1-2.8"/>
				<path fill="#FFFFFF" d="M46.5-2.8c0,0.1,0,0.1,0,0.2c-0.1,0.1-0.1,0.1-0.2,0.1c-0.1,0.1-0.1,0.3-0.1,0.4c-0.2,0.1,0,0.2,0,0.3      c0,0,0,0.1,0,0.2c0,0.1,0,0.3,0.1,0.4c0.1,0.2,0.3,0.4,0.4,0.5C46.8-0.5,47-0.1,47.2,0c0.2,0,0.4-0.1,0.5-0.1      c0.2,0,0.4,0,0.6-0.1c0.2-0.1,0.1-0.3,0.3-0.5c0.1-0.1,0.3,0,0.4-0.1c0.2-0.1,0.3-0.3,0.4-0.5c0-0.1,0-0.1,0-0.2      c0-0.1,0.1-0.2,0.1-0.3c0-0.1-0.1-0.1-0.1-0.2c0-0.1,0-0.2,0-0.3c0-0.2,0-0.4-0.1-0.5c-0.4-0.7-1.2-0.9-2-0.8      c-0.2,0-0.3,0.1-0.4,0.2c-0.2,0.1-0.1,0.2-0.3,0.2c-0.1,0-0.2,0.1-0.2,0.2C46.5-2.8,46.5-2.9,46.5-2.8      C46.5-2.7,46.5-2.8,46.5-2.8"/>
				<path fill="#FFFFFF" d="M38.8-2.8c0,0.1,0,0.1,0,0.2c-0.1,0.1-0.1,0.1-0.2,0.1c-0.1,0.1-0.1,0.3-0.1,0.4c-0.2,0.1,0,0.2,0,0.3      c0,0,0,0.1,0,0.2c0,0.1,0,0.3,0.1,0.4C38.6-1,38.8-0.8,39-0.7c0.2,0.1,0.4,0.6,0.6,0.6c0.2,0,0.4-0.1,0.5-0.1      c0.2,0,0.4,0,0.6-0.1c0.2-0.1,0.1-0.3,0.3-0.5c0.1-0.1,0.3,0,0.4-0.1c0.2-0.1,0.3-0.3,0.4-0.5c0-0.1,0-0.1,0-0.2      c0-0.1,0.1-0.2,0.1-0.3c0-0.1-0.1-0.1-0.1-0.2c0-0.1,0-0.2,0-0.3c0-0.2,0-0.4-0.1-0.5c-0.4-0.7-1.2-0.9-2-0.8      c-0.2,0-0.3,0.1-0.4,0.2c-0.2,0.1-0.1,0.2-0.3,0.2c-0.1,0-0.2,0.1-0.2,0.2C38.8-2.8,38.8-2.9,38.8-2.8      C38.8-2.7,38.8-2.8,38.8-2.8"/>
				<path fill="#FFFFFF" d="M31.1-2.8c0,0.1,0,0.1,0,0.2c-0.1,0.1-0.1,0.1-0.2,0.1c-0.1,0.1-0.1,0.3-0.1,0.4c-0.2,0.1,0,0.2,0,0.3      c0,0,0,0.1,0,0.2c0,0.1,0,0.3,0.1,0.4C31-1,31.1-0.8,31.3-0.7c0.2,0.1,0.4,0.6,0.6,0.6c0.2,0,0.4-0.1,0.5-0.1      c0.2,0,0.4,0,0.6-0.1c0.2-0.1,0.1-0.3,0.3-0.5c0.1-0.1,0.3,0,0.4-0.1c0.2-0.1,0.3-0.3,0.4-0.5c0-0.1,0-0.1,0-0.2      c0-0.1,0.1-0.2,0.1-0.3c0-0.1-0.1-0.1-0.1-0.2c0-0.1,0-0.2,0-0.3c0-0.2,0-0.4-0.1-0.5c-0.4-0.7-1.2-0.9-2-0.8      c-0.2,0-0.3,0.1-0.4,0.2c-0.2,0.1-0.1,0.2-0.3,0.2c-0.1,0-0.2,0.1-0.2,0.2C31.1-2.8,31.1-2.9,31.1-2.8      C31.1-2.7,31.1-2.8,31.1-2.8"/>
				<path fill="#FFFFFF" d="M23.5-2.8c0,0.1,0,0.1,0,0.2c-0.1,0.1-0.1,0.1-0.2,0.1c-0.1,0.1-0.1,0.3-0.1,0.4c-0.2,0.1,0,0.2,0,0.3      c0,0,0,0.1,0,0.2c0,0.1,0,0.3,0.1,0.4c0.1,0.2,0.3,0.4,0.4,0.5C23.8-0.5,24-0.1,24.3,0c0.2,0,0.4-0.1,0.5-0.1      c0.2,0,0.4,0,0.6-0.1c0.2-0.1,0.1-0.3,0.3-0.5c0.1-0.1,0.3,0,0.4-0.1c0.2-0.1,0.3-0.3,0.4-0.5c0-0.1,0-0.1,0-0.2      c0-0.1,0.1-0.2,0.1-0.3c0-0.1-0.1-0.1-0.1-0.2c0-0.1,0-0.2,0-0.3c0-0.2,0-0.4-0.1-0.5c-0.4-0.7-1.2-0.9-2-0.8      c-0.2,0-0.3,0.1-0.4,0.2c-0.2,0.1-0.1,0.2-0.3,0.2c-0.1,0-0.2,0.1-0.2,0.2C23.5-2.8,23.5-2.9,23.5-2.8      C23.5-2.7,23.5-2.8,23.5-2.8"/>
				<path fill="#FFFFFF" d="M15.8-2.8c0,0.1,0,0.1,0,0.2c-0.1,0.1-0.1,0.1-0.2,0.1c-0.1,0.1-0.1,0.3-0.1,0.4c-0.2,0.1,0,0.2,0,0.3      c0,0,0,0.1,0,0.2c0,0.1,0,0.3,0.1,0.4C15.7-1,15.8-0.8,16-0.7c0.2,0.1,0.4,0.6,0.6,0.6c0.2,0,0.4-0.1,0.5-0.1      c0.2,0,0.4,0,0.6-0.1c0.2-0.1,0.1-0.3,0.3-0.5c0.1-0.1,0.3,0,0.4-0.1c0.2-0.1,0.3-0.3,0.4-0.5c0-0.1,0-0.1,0-0.2      c0-0.1,0.1-0.2,0.1-0.3c0-0.1-0.1-0.1-0.1-0.2c0-0.1,0-0.2,0-0.3c0-0.2,0-0.4-0.1-0.5c-0.4-0.7-1.2-0.9-2-0.8      c-0.2,0-0.3,0.1-0.4,0.2c-0.2,0.1-0.1,0.2-0.3,0.2c-0.1,0-0.2,0.1-0.2,0.2C15.8-2.8,15.8-2.9,15.8-2.8      C15.8-2.7,15.8-2.8,15.8-2.8"/>
				<path fill="#FFFFFF" d="M8.2-2.8c0,0.1,0,0.1,0,0.2C8.1-2.5,8-2.5,8-2.5C7.9-2.4,7.9-2.2,7.9-2.1c-0.2,0.1,0,0.2,0,0.3      c0,0,0,0.1,0,0.2c0,0.1,0,0.3,0.1,0.4C8-1,8.2-0.8,8.3-0.7C8.5-0.5,8.7-0.1,8.9,0c0.2,0,0.4-0.1,0.5-0.1c0.2,0,0.4,0,0.6-0.1      c0.2-0.1,0.1-0.3,0.3-0.5c0.1-0.1,0.3,0,0.4-0.1c0.2-0.1,0.3-0.3,0.4-0.5c0-0.1,0-0.1,0-0.2c0-0.1,0.1-0.2,0.1-0.3      c0-0.1-0.1-0.1-0.1-0.2c0-0.1,0-0.2,0-0.3c0-0.2,0-0.4-0.1-0.5c-0.4-0.7-1.2-0.9-2-0.8C9-3.5,8.8-3.4,8.7-3.4      C8.5-3.3,8.6-3.2,8.4-3.1C8.3-3.1,8.2-3,8.2-2.9C8.2-2.8,8.2-2.9,8.2-2.8C8.1-2.7,8.1-2.8,8.2-2.8"/>
				<path fill="#FFFFFF" d="M0.5-2.8c0,0.1,0,0.1,0,0.2C0.4-2.5,0.4-2.5,0.3-2.5C0.3-2.4,0.2-2.2,0.2-2.1c-0.2,0.1,0,0.2,0,0.3      c0,0,0,0.1,0,0.2c0,0.1,0,0.3,0.1,0.4C0.3-1,0.5-0.8,0.7-0.7C0.9-0.5,1-0.1,1.3,0c0.2,0,0.4-0.1,0.5-0.1c0.2,0,0.4,0,0.6-0.1      c0.2-0.1,0.1-0.3,0.3-0.5c0.1-0.1,0.3,0,0.4-0.1C3.3-0.8,3.4-1,3.5-1.2c0-0.1,0-0.1,0-0.2c0-0.1,0.1-0.2,0.1-0.3      c0-0.1-0.1-0.1-0.1-0.2c0-0.1,0-0.2,0-0.3c0-0.2,0-0.4-0.1-0.5c-0.4-0.7-1.2-0.9-2-0.8C1.3-3.5,1.2-3.4,1-3.4      C0.9-3.3,0.9-3.2,0.7-3.1C0.6-3.1,0.5-3,0.5-2.9C0.5-2.8,0.5-2.9,0.5-2.8C0.5-2.7,0.5-2.8,0.5-2.8"/>
			</g>
		</g>
	</pattern>
</defs>
<path fill="#231F20" d="M336.4,629.4c0,8-6.5,14.4-14.4,14.4c-8,0-14.4-6.5-14.4-14.4s6.5-14.4,14.4-14.4  C329.9,615,336.4,621.4,336.4,629.4z"/>
<path fill="#231F20" d="M368.4,626.2c0.8,7.9-4.9,15-12.8,15.9c-7.9,0.8-15-4.9-15.9-12.8c-0.8-7.9,4.9-15,12.8-15.9  C360.5,612.5,367.6,618.3,368.4,626.2z"/>
<path fill="#231F20" d="M400,619.7c1.7,7.8-3.3,15.5-11.1,17.1c-7.8,1.7-15.5-3.3-17.1-11.1c-1.7-7.8,3.3-15.5,11.1-17.1  C390.6,606.9,398.3,611.9,400,619.7z"/>
<path fill="#231F20" d="M430.7,609.9c2.5,7.6-1.7,15.7-9.3,18.2c-7.6,2.5-15.7-1.7-18.2-9.3c-2.5-7.6,1.7-15.7,9.3-18.2  C420.1,598.1,428.2,602.3,430.7,609.9z"/>
<path fill="#231F20" d="M460.2,596.9c3.2,7.3,0,15.8-7.3,19.1c-7.3,3.2-15.8,0-19.1-7.3c-3.2-7.3,0-15.8,7.3-19  C448.4,586.4,456.9,589.7,460.2,596.9z"/>
<path fill="#231F20" d="M488.2,581c4,6.9,1.6,15.7-5.3,19.7c-6.9,4-15.7,1.6-19.7-5.3c-4-6.9-1.6-15.7,5.3-19.7  C475.4,571.7,484.2,574.1,488.2,581z"/>
<path fill="#231F20" d="M514.3,562.2c4.7,6.4,3.3,15.5-3.2,20.2c-6.5,4.7-15.5,3.3-20.2-3.2c-4.7-6.5-3.2-15.5,3.2-20.2  C500.6,554.3,509.6,555.7,514.3,562.2z"/>
<path fill="#231F20" d="M538.4,540.8c5.3,5.9,4.9,15.1-1.1,20.4c-5.9,5.3-15.1,4.8-20.4-1.1c-5.3-5.9-4.8-15.1,1.1-20.4  C523.9,534.3,533.1,534.8,538.4,540.8z"/>
<path fill="#231F20" d="M560.1,516.9c5.9,5.3,6.4,14.5,1.1,20.4c-5.3,5.9-14.5,6.4-20.4,1.1c-5.9-5.3-6.4-14.5-1.1-20.4  C545,512.1,554.2,511.6,560.1,516.9z"/>
<path fill="#231F20" d="M579.2,491c6.5,4.7,7.9,13.7,3.2,20.2c-4.7,6.5-13.7,7.9-20.2,3.2c-6.5-4.7-7.9-13.7-3.2-20.2  C563.7,487.7,572.7,486.3,579.2,491z"/>
<path fill="#231F20" d="M595.4,463.2c6.9,4,9.3,12.8,5.3,19.7c-4,6.9-12.8,9.3-19.7,5.3c-6.9-4-9.3-12.8-5.3-19.7  C579.7,461.5,588.5,459.2,595.4,463.2z"/>
<path fill="#231F20" d="M608.7,433.8c7.3,3.2,10.6,11.8,7.3,19.1c-3.2,7.3-11.8,10.5-19.1,7.3c-7.3-3.2-10.6-11.8-7.3-19.1  C592.9,433.8,601.4,430.5,608.7,433.8z"/>
<path fill="#231F20" d="M618.8,403.2c7.6,2.5,11.7,10.6,9.3,18.2c-2.5,7.6-10.6,11.7-18.2,9.3c-7.6-2.5-11.7-10.6-9.3-18.2  C603.1,404.9,611.2,400.7,618.8,403.2z"/>
<path fill="#231F20" d="M625.7,371.7c7.8,1.6,12.8,9.3,11.1,17.1c-1.6,7.8-9.3,12.8-17.1,11.1c-7.8-1.7-12.8-9.3-11.1-17.1  C610.2,375,617.9,370.1,625.7,371.7z"/>
<path fill="#231F20" d="M629.2,339.7c7.9,0.8,13.7,7.9,12.8,15.9c-0.8,7.9-7.9,13.7-15.9,12.8c-7.9-0.8-13.7-7.9-12.8-15.9  C614.2,344.6,621.3,338.9,629.2,339.7z"/>
<path fill="#231F20" d="M629.4,307.5c8,0,14.5,6.5,14.4,14.4c0,8-6.5,14.4-14.4,14.4c-8,0-14.4-6.5-14.4-14.4  C615,313.9,621.4,307.5,629.4,307.5z"/>
<path fill="#231F20" d="M626.2,275.4c7.9-0.8,15,4.9,15.9,12.8c0.8,7.9-4.9,15-12.8,15.9c-7.9,0.8-15-4.9-15.8-12.9  C612.5,283.3,618.3,276.2,626.2,275.4z"/>
<path fill="#231F20" d="M619.7,243.9c7.8-1.7,15.5,3.3,17.1,11.1c1.7,7.8-3.3,15.5-11.1,17.1c-7.8,1.7-15.5-3.3-17.1-11.1  C606.9,253.2,611.9,245.5,619.7,243.9z"/>
<path fill="#231F20" d="M609.9,213.2c7.6-2.5,15.7,1.7,18.2,9.3c2.5,7.6-1.7,15.7-9.3,18.2c-7.6,2.5-15.7-1.7-18.2-9.3  C598.1,223.8,602.3,215.6,609.9,213.2z"/>
<path fill="#231F20" d="M596.9,183.6c7.3-3.3,15.8,0,19,7.3c3.3,7.3,0,15.8-7.3,19.1c-7.3,3.2-15.8,0-19.1-7.3  C586.4,195.4,589.6,186.9,596.9,183.6z"/>
<path fill="#231F20" d="M581,155.7c6.9-4,15.7-1.6,19.7,5.3c4,6.9,1.6,15.7-5.3,19.7c-6.9,4-15.7,1.6-19.7-5.3  C571.7,168.5,574.1,159.7,581,155.7z"/>
<path fill="#231F20" d="M562.2,129.5c6.4-4.7,15.5-3.3,20.2,3.2c4.7,6.4,3.3,15.5-3.2,20.2c-6.5,4.7-15.5,3.2-20.2-3.2  C554.3,143.2,555.7,134.2,562.2,129.5z"/>
<path fill="#231F20" d="M540.8,105.4c5.9-5.3,15.1-4.9,20.4,1.1c5.3,5.9,4.9,15-1.1,20.4c-5.9,5.3-15.1,4.8-20.4-1.1  C534.3,119.9,534.8,110.8,540.8,105.4z"/>
<path fill="#231F20" d="M516.9,83.7c5.3-5.9,14.5-6.4,20.4-1.1c5.9,5.3,6.4,14.5,1.1,20.4c-5.3,5.9-14.5,6.4-20.4,1.1  C512.1,98.8,511.6,89.7,516.9,83.7z"/>
<path fill="#231F20" d="M491,64.7c4.7-6.5,13.7-7.9,20.2-3.2c6.5,4.7,7.9,13.7,3.2,20.2c-4.7,6.4-13.7,7.9-20.2,3.2  C487.7,80.1,486.3,71.1,491,64.7z"/>
<path fill="#231F20" d="M463.1,48.4c4-6.9,12.8-9.3,19.7-5.3c6.9,4,9.3,12.8,5.3,19.7c-4,6.9-12.8,9.3-19.7,5.3  C461.5,64.1,459.2,55.3,463.1,48.4z"/>
<path fill="#231F20" d="M433.8,35.1c3.2-7.3,11.8-10.6,19.1-7.3c7.3,3.2,10.6,11.8,7.3,19.1c-3.2,7.3-11.8,10.5-19.1,7.3  C433.8,51,430.5,42.4,433.8,35.1z"/>
<path fill="#231F20" d="M403.2,25c2.5-7.6,10.6-11.7,18.2-9.3c7.6,2.5,11.7,10.6,9.3,18.2c-2.5,7.6-10.6,11.7-18.2,9.3  C404.9,40.7,400.7,32.6,403.2,25z"/>
<path fill="#231F20" d="M371.7,18.1c1.6-7.8,9.3-12.8,17.1-11.1c7.8,1.7,12.8,9.3,11.1,17.1c-1.7,7.8-9.3,12.8-17.1,11.1  C375,33.6,370.1,26,371.7,18.1z"/>
<path fill="#231F20" d="M339.7,14.6c0.8-7.9,7.9-13.7,15.9-12.8c7.9,0.8,13.7,7.9,12.9,15.9c-0.8,7.9-8,13.7-15.9,12.8  C344.6,29.6,338.8,22.5,339.7,14.6z"/>
<path fill="#231F20" d="M307.5,14.4c0-8,6.5-14.4,14.4-14.4c8,0,14.4,6.5,14.4,14.4c0,8-6.5,14.4-14.4,14.4  C313.9,28.9,307.5,22.4,307.5,14.4z"/>
<path fill="#231F20" d="M275.4,17.6c-0.9-7.9,4.9-15,12.8-15.9c7.9-0.8,15,4.9,15.9,12.8c0.8,7.9-4.9,15-12.9,15.8  C283.3,31.3,276.2,25.6,275.4,17.6z"/>
<path fill="#231F20" d="M243.9,24.2C242.2,16.3,247.2,8.7,255,7c7.8-1.7,15.5,3.3,17.1,11.1c1.7,7.8-3.3,15.5-11.1,17.1  C253.2,36.9,245.5,32,243.9,24.2z"/>
<path fill="#231F20" d="M213.2,33.9c-2.5-7.6,1.7-15.7,9.3-18.2c7.6-2.5,15.7,1.7,18.2,9.3c2.5,7.6-1.7,15.7-9.3,18.2  C223.8,45.7,215.6,41.5,213.2,33.9z"/>
<path fill="#231F20" d="M183.6,46.9c-3.3-7.3,0-15.8,7.3-19.1c7.3-3.2,15.8,0,19.1,7.3c3.2,7.3-0.1,15.8-7.3,19  C195.4,57.5,186.9,54.2,183.6,46.9z"/>
<path fill="#231F20" d="M155.7,62.8c-4-6.9-1.6-15.7,5.3-19.7c6.9-4,15.7-1.6,19.7,5.3c4,6.9,1.6,15.7-5.3,19.7  C168.5,72.1,159.7,69.8,155.7,62.8z"/>
<path fill="#231F20" d="M129.5,81.6c-4.7-6.4-3.2-15.5,3.2-20.2c6.5-4.7,15.5-3.3,20.2,3.2c4.7,6.4,3.2,15.5-3.2,20.2  C143.2,89.5,134.2,88.1,129.5,81.6z"/>
<path fill="#231F20" d="M105.4,103.1c-5.4-5.9-4.8-15.1,1.1-20.4c5.9-5.3,15-4.9,20.4,1.1c5.3,5.9,4.8,15.1-1.1,20.4  C119.9,109.5,110.8,109,105.4,103.1z"/>
<path fill="#231F20" d="M83.7,126.9c-6-5.3-6.4-14.5-1.1-20.4c5.3-5.9,14.4-6.4,20.4-1.1c5.9,5.3,6.4,14.5,1,20.4  C98.8,131.8,89.7,132.2,83.7,126.9z"/>
<path fill="#231F20" d="M64.7,152.9c-6.5-4.7-7.9-13.7-3.2-20.2c4.7-6.5,13.7-7.9,20.2-3.2c6.4,4.7,7.9,13.7,3.2,20.2  C80.1,156.1,71.1,157.6,64.7,152.9z"/>
<path fill="#231F20" d="M48.4,180.7c-6.9-4-9.3-12.8-5.3-19.7c4-6.9,12.8-9.3,19.7-5.3c6.9,4,9.3,12.8,5.2,19.7  C64.1,182.3,55.3,184.7,48.4,180.7z"/>
<path fill="#231F20" d="M35.1,210c-7.3-3.2-10.6-11.8-7.3-19.1c3.2-7.3,11.8-10.6,19.1-7.3c7.3,3.2,10.5,11.8,7.3,19.1  C51,210,42.4,213.3,35.1,210z"/>
<path fill="#231F20" d="M25,240.6c-7.6-2.4-11.7-10.6-9.2-18.2c2.5-7.6,10.6-11.7,18.2-9.3c7.6,2.5,11.7,10.6,9.2,18.2  C40.8,238.9,32.6,243.1,25,240.6z"/>
<path fill="#231F20" d="M18.1,272.1C10.3,270.5,5.4,262.8,7,255c1.6-7.8,9.3-12.8,17.1-11.1c7.8,1.7,12.8,9.3,11.1,17.1  C33.6,268.8,26,273.8,18.1,272.1z"/>
<path fill="#231F20" d="M14.6,304.1c-7.9-0.8-13.7-7.9-12.8-15.9c0.8-7.9,7.9-13.7,15.9-12.9c7.9,0.8,13.7,8,12.8,15.9  C29.6,299.2,22.5,305,14.6,304.1z"/>
<path fill="#231F20" d="M14.4,336.4c-8,0-14.4-6.5-14.4-14.4c0-8,6.5-14.4,14.5-14.4c7.9,0,14.4,6.5,14.4,14.5  C28.9,329.9,22.4,336.4,14.4,336.4z"/>
<path fill="#231F20" d="M17.6,368.4c-7.9,0.9-15-4.9-15.9-12.8c-0.8-7.9,4.9-15,12.9-15.9c7.9-0.8,15,4.9,15.8,12.9  C31.3,360.5,25.6,367.6,17.6,368.4z"/>
<path fill="#231F20" d="M24.1,400c-7.8,1.7-15.5-3.3-17.1-11.1c-1.7-7.8,3.3-15.4,11.1-17.1c7.8-1.6,15.5,3.3,17.1,11.1  C36.9,390.6,32,398.3,24.1,400z"/>
<path fill="#231F20" d="M33.9,430.7c-7.6,2.5-15.7-1.7-18.2-9.3c-2.5-7.6,1.7-15.7,9.3-18.2c7.6-2.5,15.7,1.7,18.2,9.3  C45.7,420.1,41.5,428.2,33.9,430.7z"/>
<path fill="#231F20" d="M46.9,460.2c-7.3,3.3-15.8,0-19.1-7.3c-3.3-7.3,0-15.8,7.3-19.1c7.3-3.2,15.8,0.1,19,7.4  C57.5,448.4,54.2,456.9,46.9,460.2z"/>
<path fill="#231F20" d="M62.8,488.2c-6.9,4-15.7,1.6-19.7-5.3c-4-6.9-1.6-15.7,5.3-19.7c6.9-4,15.7-1.6,19.7,5.3  C72.1,475.3,69.8,484.2,62.8,488.2z"/>
<path fill="#231F20" d="M81.6,514.3c-6.4,4.7-15.5,3.3-20.1-3.2c-4.7-6.4-3.3-15.5,3.2-20.2c6.4-4.7,15.5-3.2,20.1,3.2  C89.5,500.6,88.1,509.6,81.6,514.3z"/>
<path fill="#231F20" d="M103.1,538.4c-5.9,5.4-15.1,4.9-20.4-1.1c-5.3-5.9-4.9-15,1.1-20.4c5.9-5.3,15.1-4.8,20.4,1.1  C109.5,523.9,109,533.1,103.1,538.4z"/>
<path fill="#231F20" d="M126.9,560.1c-5.3,5.9-14.5,6.4-20.4,1.1c-5.9-5.3-6.4-14.4-1.1-20.4c5.3-5.9,14.5-6.4,20.4-1  C131.8,545,132.2,554.2,126.9,560.1z"/>
<path fill="#231F20" d="M152.9,579.2c-4.7,6.5-13.7,7.9-20.2,3.2c-6.5-4.7-7.9-13.7-3.2-20.2c4.7-6.4,13.7-7.9,20.2-3.2  C156.1,563.7,157.6,572.7,152.9,579.2z"/>
<path fill="#231F20" d="M180.7,595.4c-4,6.9-12.8,9.3-19.7,5.3c-6.9-4-9.3-12.8-5.3-19.7c4-6.9,12.8-9.2,19.7-5.2  C182.3,579.7,184.7,588.5,180.7,595.4z"/>
<path fill="#231F20" d="M210,608.7c-3.2,7.3-11.8,10.6-19.1,7.3c-7.3-3.2-10.6-11.8-7.3-19.1c3.2-7.3,11.8-10.5,19.1-7.3  C210,592.9,213.3,601.4,210,608.7z"/>
<path fill="#231F20" d="M240.6,618.8c-2.4,7.6-10.6,11.7-18.2,9.3c-7.6-2.5-11.7-10.6-9.3-18.2c2.5-7.6,10.6-11.7,18.2-9.2  C238.9,603.1,243.1,611.2,240.6,618.8z"/>
<path fill="#231F20" d="M272.1,625.7c-1.6,7.8-9.3,12.8-17.1,11.1c-7.8-1.6-12.8-9.3-11.1-17.1c1.7-7.8,9.3-12.8,17.1-11.1  C268.8,610.2,273.8,617.9,272.1,625.7z"/>
<path fill="#231F20" d="M304.1,629.2c-0.8,7.9-7.9,13.7-15.9,12.8c-7.9-0.8-13.7-7.9-12.9-15.9c0.8-7.9,8-13.7,15.9-12.8  C299.2,614.2,305,621.3,304.1,629.2z"/>
<path fill="#231F20" d="M291.4,144.8c9.7,16.1,15.6,37.7,15.6,60.4c0,4.3-0.2,8.6-0.7,12.9c8.3,8.5,15,17.8,19.7,25.1  c1.6-8.3,2.4-17,2.4-25.6c0-36.5-13.5-73.7-34.8-91.7c-9.6-2.9-16.8-1-19.2-0.2C280.9,130.3,286.6,136.9,291.4,144.8z M302.4,117.4  c17.2,1.2,35.2,10.7,48.9,28.1c13.7,17.4,23.2,41.6,23.2,69c0,30-11.4,61.8-40.9,94.3c6.4,0.4,12.5,2.8,16.9,6.4  c1.1-0.2,2.2-0.3,3.3-0.3c0.2,0,0.4,0,0.7,0c28.8-26.6,40.1-59.1,40.1-90.5c0-29.4-10-57.7-25.1-78.6c-15-20.9-34.9-34.2-54.4-34.1  c-6.8,0-19.9,3.3-26.5,6.8C289.1,118.6,294.5,116.9,302.4,117.4z M372.7,143.7c15.5,21.5,25.7,50.5,25.8,80.7  c0,31.4-11.1,64.2-39.1,91.1c6,1.3,11.3,4.5,14.5,8.7c0.4,0.6,0.8,1.2,1.1,1.8c32-27.7,44.5-61.5,44.5-94.6  c0-33-12.6-65.2-31.1-89.1c-18.4-23.9-42.6-39.3-65.4-39.2c-10.6,0-21.1,3.3-30.7,10.8c7.4-4,15.1-5.9,22.8-5.9  C336.4,108.1,357.2,122.3,372.7,143.7z M282.7,111.6c-5.7-0.6-11.6-0.5-17.5,0.4c5,0,9.8,0.9,14.4,2.6  C280.5,113.6,281.5,112.5,282.7,111.6z M258.7,147.4c5.9,9.9,9.4,22.6,9.4,34.6c0,3.1-0.2,6.2-0.7,9.1c4.9,2.2,10.4,5,16.4,8.8  c0.2-2.4,0.3-4.8,0.3-7.3c0-15.6-4.3-32.3-11.6-45c-7.3-12.8-17.4-21.3-28.8-21.3c-4.9,0-10.1,1.6-15.6,5.1c2.2-0.7,4.4-1,6.5-1  C244.5,130.4,252.9,137.5,258.7,147.4z M274.7,146.4c7.5,13.2,11.9,30.2,11.9,46.2c0,3-0.2,5.9-0.5,8.8c3.5,2.3,7.2,5,11,8  c2.5,2,4.8,4.1,7,6.3c0.3-3.5,0.5-7.1,0.5-10.6c0-22.2-5.8-43.5-15.3-59.1c-9.5-15.6-22.4-25.5-36.6-25.5c-5.4,0-11.1,1.4-16.9,4.6  c2.7-0.8,5.4-1.2,8-1.2C256.5,123.9,267.2,133.3,274.7,146.4z M247.5,184.1c3.8,1.2,9.9,2.8,17.5,6c0.4-2.6,0.6-5.3,0.6-8.1  c0-11.5-3.4-23.9-9-33.4c-5.6-9.5-13.4-15.8-22-15.7c-4.9,0-10.3,2-16,7C235.7,132.3,255.7,153,247.5,184.1z M273.9,125.2  c0.5-1.5,1.7-5,4.1-8.5c-4.1-1.4-8.4-2.2-12.9-2.2c-5.9,0-12.1,1.3-18.6,4.2c2.1-0.4,4.2-0.6,6.2-0.6  C260.3,118.1,267.4,120.7,273.9,125.2z M428.7,145c2.2,2.5,3.9,4.6,5.9,7.3c0.9-3,2.9-6.1,2.9-9c4,2.6,10.6,3.8,14.2,8l0.2,0  c7.1-10,24.8-0.9,21,9.2l-1.2,2.2c-2,2.9-4.5,4-6.8,4.1c-3.1-0.1-5.6-2-5.6-5.5c0-1.5,0.5-2.8,1.1-3.8c0.7-0.9,1.5-1.4,2.2-1.4  c0.6,0,1.2,0.2,1.9,1c0.8,0.8,1,1.4,1,1.8c0,0.4-0.2,0.9-0.6,1.2c-0.4,0.3-0.9,0.5-1.1,0.5c-0.1,0-0.1,0-0.1,0  c-0.6,0.2-1.4-0.1-1.7,0.5c-0.3,0.6-0.1,1.4,0.5,1.7h0c0.4,0.2,0.8,0.3,1.2,0.3c1.9-0.1,4.1-1.6,4.2-4.2c0-1.2-0.6-2.4-1.7-3.5  c-1.1-1.1-2.4-1.7-3.7-1.7c-3.5,0.1-5.8,3.7-5.8,7.6c0,2.4,0.9,4.5,2.5,5.9c1.5,1.4,3.5,2.1,5.7,2.1h0c2.7,0,5.6-1.3,7.9-3.9  c11.7,14.8,11.3,33.2,7.1,41.5C527.7,156.3,462.8,119.6,428.7,145z M422.2,378.4c18.8-20.3,38-48,43.3-89.6  c0.9-7.2,1.3-14.2,1.3-21.2c0-9.1-0.7-18-2.1-26.7c0,1,0,2,0,3c0,46.2-21.1,89.3-57.1,117c0,0.4,0,0.8,0,1.2c0,0.7,0,1.4-0.1,2  c4.8,4.3,8.3,11.1,8.3,19.2c0,0.6,0,1.2-0.1,1.8C417.9,383,420,380.8,422.2,378.4z M442.8,149c-1.1-0.6-2.3-1-3.5-1.6  c-0.3,1.5-0.7,2-1.2,3.5c-0.5,1.3-0.9,2.8-1.2,4c2.9,3.6,4.8,6.3,6.4,8.8c0.7,1.3,3.4,6.5,6.5,12.4c3.5,6.8,7.5,14.6,9.1,18.3  c0.2,0.5,0.7,0.7,1.1,0.7c0.2,0,0.3,0,0.5-0.1c0.6-0.3,0.9-1,0.6-1.6c-2.6-6-10.7-21.5-14.2-28.1c0.1-4.5,1.1-8.5,2.7-11.7  C447.7,151.7,445.3,150.2,442.8,149z M412.1,139.9c20,25,34.4,57.7,34.4,93.1c0,35.6-14.7,73.8-52.6,109.1c0.2,0.5,0.3,0.9,0.5,1.4  c4.6,1.7,7.9,4.6,10,7.7c1.3,1.9,2.1,3.9,2.6,5.7c36-26.7,54.1-67.2,54.1-113.1c0-10.3-1.1-20.7-3.3-31.1  c-8.5-25.2-22.3-47.6-38.8-65.8C416.7,144.5,414.4,142.2,412.1,139.9z M468.7,323.4c-0.8,0-1.6,0-2.4-0.1  c-2.5,7.3-5.5,14.2-8.8,20.5c16.2-5.9,32.2-12.8,42.8-26.1c19.9-24.9,20.5-77.9-27.4-80.1c0.7,4,1.2,8,1.6,12.1l0,0  c0,0,0.6,4.7,0.7,8.1c1.5,2.9,2.1,5.5,2.1,7.9c0,3-1,5.8-2.6,8.4v4.2c2.9-3.6,5.1-7.7,5.1-12.6c0-3.1-1.3-6.9-3.4-10.5  c0,0-0.1-0.3,0.1-0.6c4.7-5.7,9.8-7.9,17.5-7.6c1.9,3.2,2,10.6,1.9,15.2c-9.6,3.6-12.2,10.9-12.1,18.2c0,6.8,1.9,13.9,1.9,19.7  c0,3.6-0.7,6.5-2.7,8.5c-0.5,0.5-0.5,1.3,0,1.7c0.2,0.2,0.6,0.4,0.9,0.4s0.6-0.1,0.9-0.4c2.7-2.7,3.5-6.4,3.5-10.2  c0-6.2-1.9-13.3-1.9-19.7c0.1-7.2,1.1-13.3,10.7-16.6c0.2-0.1,1.6-0.1,2-0.1c6.5,0.2,11.8,7.1,11.8,7.1  C492.2,269.1,515.8,323.4,468.7,323.4z M200.6,194.3c0,0.6,0,1.3,0,2v0.2l0,0.2c0,0.1-0.1,0.6-0.3,1.4c4.9-1,10.4-1.5,16.5-1.5  c33,0,80.6,16.5,103.7,71.2c2.6-3.2,5.1-6.4,7.4-9.8c-0.1-0.1-0.2-0.2-0.3-0.3c-3.9-7-16.7-29.1-34.3-43.3  c-9.9-8-18.9-13.2-26.5-16.7c-21.9-9.5-45.2-12.2-66.7-11.2C200.6,189,200.6,191.5,200.6,194.3z M391.4,140.2  c18.9,24.5,31.8,57.4,31.8,91.3c0,33.5-12.7,68.1-44.5,96.3c3.6,1.2,6.8,3.4,9.3,5.8c1.6,1.6,3,3.3,4.1,5.1  c36.7-34.5,50.6-71.3,50.6-105.6c0-37.3-16.5-71.7-38.7-96.9c-6.1-6.9-12.6-13.1-19.3-18.4c-19.3-12.5-39.4-19.5-56.8-19.5  c-7.4,0-14.2,1.2-20.5,3.7c5.1-1.6,10.4-2.4,15.7-2.4C347.6,99.5,372.5,115.7,391.4,140.2z M287.4,315.3c2.3-0.7,4.5-1.1,6.7-1.1  c0.9,0,1.8,0.1,2.6,0.2c1.6-1.7,3.7-2.9,5.8-3.8c3.3-1.3,7-2,10.7-2c3.5,0.1,6.9,0.5,9.9,2.1c2.5-1.2,5.2-1.8,7.9-2  c29-32.3,39.9-65.2,39.9-94.3c0-26.6-9.2-50-22.4-66.7c-10.8-13.7-29.6-26.7-46.9-26.9c8.3,2.9,18.2,4.3,32.1,23.4  c11.9,16.5,21,39.9,21,62.6c0,9.4-1.6,19-5.1,28.4c-9.9,26.1-26.7,43.9-43.7,61.1C299.6,302.6,293.4,308.8,287.4,315.3z   M343.5,225.4c8.8-50.6-22.8-84.3-39.7-94.9c-1.3-0.8-2.6-1.5-3.9-2.2c19.3,19.9,30.9,54.8,31,89.2c0,9.7-0.9,19.4-2.9,28.7  c1.4,2.3,2.6,4.3,3.5,5.9c3.8-6.1,7.1-12.7,9.8-19.9C342.2,230,342.9,227.7,343.5,225.4z M259.7,353.7L259.7,353.7L259.7,353.7  L259.7,353.7z M396,404.1c2.4-2.3,3.1-3.6,5.9-6.7l1.9-2.8l0.5-1c2.1-3.7,2.8-7.1,2.8-10.3c0.1-6.4-3.5-11.7-6.8-13.8l-3.1-2  l1.5-3.4c0,0,0,0,0-0.1c0-0.1,0.1-0.2,0.1-0.4c0.1-0.4,0.1-0.9,0.1-1.5c0-1.8-0.5-4.1-1.8-6.1c-1.4-2-3.5-3.9-7.7-5l-3.2-0.8v-3.3  c0.1-1-1.3-4.5-4.1-7c-2.8-2.7-6.4-4.5-10-4.5h-4.3V331c0,0-0.1-0.6-0.7-1.4c-0.6-0.8-1.7-1.9-3.1-2.8c-2.8-1.8-6.7-3.2-10-3.2  c-1.2,0-2.3,0.2-3.3,0.5l-2.5,0.8l-1.8-1.8c-2.8-2.9-8.8-5.6-14-5.6c-2.7,0-5.1,0.6-7,2l-3,2.1l-2.6-2.6c-0.5-0.7-3.3-1.7-6.6-1.7  c-2.6,0-5.4,0.5-7.4,1.3c-2.1,0.8-3.1,2-3.1,2.2l-1.6,4.1l-4.1-1.6c-0.7-0.3-1.7-0.5-2.9-0.5c-3.9,0-9,2-11.7,7l-1.2,2.2h-7.8  c-5,6.6-9.6,13.8-13.6,21.7l0,0h0c0,0-1.8,2.5-4,7.4c10.5-17.1,28.2-31.3,55.8-31.4c8.8,0,18.5,1.4,29.3,4.7  c33.9,10.1,42.6,29.8,42.6,48.6c0,17.7-7.5,34.7-8.3,42.4c-0.1,1-0.2,1.9-0.2,2.8c0,10.4,6.6,15.2,12.7,15.2c4,0,7.7-2,9.6-5.9  c-0.2,0.2-0.4,0.3-0.6,0.5c-1.6,1.1-3.5,1.6-5.5,1.6c-2.2,0-4.7-0.7-6.6-2.5c-2-1.8-5.2-5.9-3.9-12.7  C382,417.7,388.6,411.3,396,404.1z M214.3,418c5.1,3.6,10.9,6.7,15.8,7.8c-6.5-9.4-11.8-21-14.4-35.1c-2.5-0.7-4.8-1.2-6.8-1.6  c-0.1-0.1-0.3-0.3-0.4-0.4c0.1,0.6,0.1,1.2,0.1,1.8c0,4.3-1.6,11-7.5,15C202.8,408.3,208.1,413.6,214.3,418z M261.2,488.8  c7.9-3.6,8.5-13.4,8.5-17.8c0-1.7-1.1-4.1-3.1-6c-1.3-1.3-3-2.4-4.8-3c-1.8-0.2-3.6-0.5-5.3-0.9c-2.1-0.5-4-0.7-5.8-0.7  c-8,0-12.6,4.9-17.6,9.6c-0.5,1.6-0.9,3.6-0.9,5.8c0,4.1,1.1,8.7,3.8,12.2c2.1,2.6,5,4.7,9.2,5.6c3.6,0.4,10.4-1.3,16-4.5  L261.2,488.8z M234.1,489.4c-3.2-4.1-4.4-9.2-4.4-13.7c0-1,0.1-2,0.2-2.9c-3.6,3.1-7.7,5.7-13.6,6.2c-3,0.2-6.1,0.3-9.2,0.3  c-2.6,0-5.2,0-7.8-0.1c-2.6,0-5.1-0.1-7.6-0.1c-13.6,0-24.9,1.5-25,12.4c0.1,5,2.4,11.9,7.8,21.4c0,0,0.8,1.3,2.3,3.2  c-1.4-3.4-2.2-6.9-2.2-10.5c0-3.5,0.8-7,2.6-10.1c1.5-2.6,3.9-4.2,6.6-5c2.7-0.8,5.6-1,8.7-1c4,0,8.2,0.3,12.2,0.3  c6.1,0,11.5-0.8,14.8-4.2v0c0.7-0.7,1.9-0.7,2.6,0c0.7,0.7,0.7,1.9,0,2.6c-4.6,4.6-11.1,5.3-17.5,5.3c-4.2,0-8.4-0.4-12.2-0.3  c-2.9,0-5.6,0.2-7.6,0.9c-2.1,0.7-3.5,1.6-4.5,3.3c-1.4,2.4-2.1,5.2-2.1,8.2c0,5,1.9,10.4,5,14.7c3.1,4.3,7.2,7.2,11.5,7.8  c0.9,0.1,1.8,0.2,2.5,0.2c4.6-0.1,6.8-1.8,8.5-4.7c1.7-2.9,2.4-7.2,3-11.3c0.1-0.5,0.4-1,0.9-1.3c11-6.8,12-11.8,15.3-15.1  c0.7-0.7,1.9-0.7,2.6,0c0.7,0.7,0.7,1.9,0,2.6c-2.1,2-4.3,8.3-15.2,15.2c-0.6,4-1.3,8.2-3.3,11.8c-1.8,3.3-4.9,5.9-9.5,6.5  c3.7,0.9,7.7,1.1,12,0.4c16.6-7.7,27-27.4,31.3-36.8C239.1,494.2,236.1,492,234.1,489.4z M178.4,418c3.8,3.8,13,5.1,17.5,0.7  c2.1,5.2,16.1,39.7,75,38.9c-6.5-2-15.8-6.2-25.7-14.8c-4.2-3.7-8.3-7.9-12.1-12.9c-6.8-0.3-14.4-4.3-21-8.9  c-6.1-4.4-11.2-9.2-13.7-12.8c-2.7,0.7-5.2,1-7.4,1c-5.6,0-10-2-12.9-5.1c-2.9-3.1-4.2-7.1-4.2-10.9c0-2.2,0.4-4.3,1.3-6.2  c-3.9,2.5-7,5.4-8.5,7.4c-32.9-4.1-50.5-1.7-57.1,3.8c-5.2,10.5-9.6,30.9,23.8,40.6c-1.3-1.3-1.1-2.6-0.3-3.8  c-4.1-1-7.7-2.6-10.7-4.7c-5.7-4-9-9.9-9-16.9c0-0.5,0-1,0.1-1.5c0.2-3.8,2-6.6,4.7-8.1c2.7-1.5,6-1.9,9.6-1.9  c6.9,0,15.3,1.5,22.8,1.5c7.9,0,14.4-1.5,18-7.1v0c0.6-0.9,1.7-1.1,2.6-0.5c0.9,0.6,1.1,1.7,0.5,2.6c-4.7,7.2-12.9,8.8-21.1,8.8  c-8,0-16.4-1.5-22.8-1.5c-3.3,0-6.1,0.4-7.8,1.4c-1.7,1-2.6,2.2-2.8,5.1c0,0.4,0,0.9,0,1.3c0,5.8,2.5,10.4,7.4,13.9  c4.7,3.3,11.7,5.3,20.6,5.4c3.2-3.4,4.7-6.9,4.6-9.3c0-0.6-0.1-1.1-0.2-1.5c-0.2-0.7,0-1.4,0.5-1.9c1.2-1.2,2.7-1.6,4.1-1.9  c1.5-0.3,3.1-0.6,4.8-1.1c3.4-1,7.2-2.7,11.1-7.8c0.6-0.8,1.8-1,2.6-0.4c0.8,0.6,1,1.8,0.4,2.6c-6.5,8.7-14.1,9.4-18,10.3  c-0.7,0.1-1.2,0.3-1.6,0.5c0.1,0.4,0.1,0.8,0.1,1.2c0,4-2.2,8.4-6.3,12.4c-0.2,0.2-0.5,0.4-0.8,0.5c0,0.7-0.3,1.4-1.1,2.2  c7.8,0.7,18.1,3.1,23.1-1.9C173.4,431.7,174.9,421.5,178.4,418z M137.5,275.4c1.3-1.5,12.9-13.5,20.2-18.7  c-7,1.7-18.3,7.7-27.9,15.4C131.7,273.5,135.2,275.1,137.5,275.4z M139.8,290.2c5.1-5.2,22.4-24.7,21.3-28.5  c-6,5.8-10.9,10.1-13.5,13.1C143.7,279.3,141,283.1,139.8,290.2z M112.4,374.6c0-11,18.4-9.6,21.5-21.5c3.5-13.3-10.8-13.9-4.1-24.3  c-9.7-6.5-19.7-2.9-19.7-11c0-8.2,18.5-12.1,25.5-36.1c0,0-1.9,5.1-7.3,9.6c-15,12.4-32.3,13.3-32.9,29.7  c-0.7,17.8,19.4,29.5,12.2,36.7C100.6,364.7,108.9,371.1,112.4,374.6z M191.5,207.4c5.7,7,19.7,26,19.7,44.7  c0,7.4-2.3,14.9-8.3,21.2c42.9,19,11.4,54.1,16.3,115.6c4.1,23.7,16.1,40.2,28.5,51.1c11.9,10.5,22.6,17,31.5,17  c0.2,0,1.2-0.2,1.4-0.3c-13.5-4.9-25.9-17-31.7-28.5c-2.8-5.6-5.2-12.5-6.3-18.3c-1-5.5-1.1-8.2-1.1-14.9c0-28,10.5-45.1,10.5-45.1  c12.7-25.2,30.8-42.5,47.7-59.6c6.3-6.3,12.4-12.7,18-19.3c-22.2-54.5-68.8-70.7-101-70.7c-6.6,0-12.5,0.7-17.5,1.8h0  c-0.3,0.1-0.6,0.1-0.9,0C196.9,203.9,194.8,205.9,191.5,207.4z M351.3,477.1c-3.6,4.5-10.2,9-21.6,12.4c-12.9,3.8-25,5.8-35.7,5.8  c-10.2,0-19.3-1.8-27-5.3c-0.9,0.7-1.9,1.4-3,2c-2.3,4.7-5.7,7.7-10.2,9.6c40.8,15.4,109.8,4.1,127.9-11.8l0-1.2  c0-2.7,0.1-5.1,0.3-7.3c-0.3,0-0.7,0-1,0C368.4,481.3,358.6,479.3,351.3,477.1z M396,483.5c3.4,0,6.8-0.6,9.9-1.7  c8-1.6,15.5-4.9,21.2-7.8c-17.5,5.2-32.1,7.1-44.2,7.3C386.4,482.6,390.7,483.5,396,483.5z M414.5,490.9  c-3.9,13.6,19.2,14.5,28.7,12.4c-1.7-1-3.1-2.6-3.9-5.1c-1.1-3.4,0.1-6.6,2.1-8.8C435,486.1,418.3,477.7,414.5,490.9z M553,270.3  c-2.2-71.4-49.1-150.9-124.3-159c-5.6,6.2-10.5,12.3-14.8,18.3c3.9,3.7,7.7,7.5,11.4,11.6c0.2,0.2,0.4,0.5,0.6,0.7  c0.6-0.5,1.3-1,1.9-1.5c18.2-12.8,55.3-15.1,70.9,16.9c15.4,31.6-13.8,55.6-13.8,55.6c-3.3,2.9-9.2,5.8-16.1,7.2  c1.2,4.4,2.2,8.8,3.1,13.3c0.1,0,0.2,0,0.2,0c19.5-1.5,41.4,10.2,45.4,38.4c7.8,55.2-47.4,76.9-65.3,83.1c-2.6,1.2-3.4,3-3.4,3  c4.7,0.7,8.8,4.4,11.3,9.4c1.2,2.5,1.7,4.7,1.7,6.7c0,4.8-3.1,8.4-7.4,10.9c-4.3,2.5-9.9,3.7-13.9,3.7c-1.8,0-3.4-0.3-4.3-0.7  c-0.5-0.2-0.8-0.4-0.9-0.6c0.1-0.4,0.2-0.9,0.4-1.3c3.5-7.8,22.5,1,19.1-16.3c-1.1-5.4-4.1-7.8-8.2-8.2c-15.1,22-33,37.2-44.9,48.7  c-7.3,6.9-12.9,11.5-14.1,15.1c-0.4,1.2-1.4,4.8,0.9,7.2c0.6,0.6,1.5,1.4,2.4,1.5c6.1,1,6.8-5.8,6.8-5.8c1,1.3,1.6,2.8,1.6,4.4  c0,0.4-0.1,0.8-0.1,1.2c0,0.1,0,0.2,0,0.3c-1,6.9-6.3,10.5-11.8,10.5h-0.1c-3.4,0-6.9-1.4-9.6-4.1c-2.7-2.8-4.4-6.9-4.4-12.4  c0-0.9,0.1-1.9,0.2-2.9c0.9-8.1,8.3-24.9,8.3-42.3c0-18.4-8.2-37.3-41.7-47.4c-10.7-3.2-20.3-4.6-29-4.6c-31.6,0-50,19-59.3,39.4  c-2.1,6.7-4,15.3-4.5,25.8c-0.2,4.4,0.2,9.7,0.7,13.6c0.6,4,3.1,12.4,5.8,18c5.8,11.6,14.4,22.7,25.9,27.5l1.8,0.7  c5.9-1.3,9.3-2.5,15.7-4.8l1.5-0.5c10.2-3.7,19.8-7.2,29.1-7.2c6,0,11.2,1.3,15.9,4.3c0.6,0.3,1.1,0.7,1.6,1.1l2.9,2.3c0,0,0,0,0,0  l0.7,0.7c3.6,3.8,6.3,9.3,5.9,15.1c-0.2,2.4-0.9,5.2-2.6,8c7,2.1,16.3,3.9,28.3,3.9c14.3,0,32.6-2.6,55.4-10.5c0,0,0,0,0.1,0  c0.1,0,0.1-0.1,0.1-0.1c38.2,0,23,24.7,18.8,19.8c-4.6-5.2-15.5,2.2-12.4,10.7c4.7,13.2,26.2,1.5,28.5-7.2  c-4.4,28.8-49.2,16.5-59.5,15.1c-12.1-1.7-17,9.5-15.3,19.8c1.4,8.5-3.9,16.3-6.3,18.6c17.1,3.3,25.2-11.2,31.9-15.8  c6.8-4.7,31.4-2.4,45.3-13.1c13.9-10.6,12.1-36.2,12.1-39.2c3.2-1.3,14-5.7,14-18.1c0-10.8-8-16.2-16.2-15.2  c-9.1,1.1-11.8,12.3-1.5,12.5c-2.3-2.3,0.4-5.8,3.5-4.1c4.7,2.6-0.6,10.4-10.3,8.8c-3.4-0.6-11.1-1.7-18.4-2.7  C505.7,429.1,556.1,369.8,553,270.3z M435.5,390.2c1.4,0.6,3.2,0.8,5.3,0.8c4.6,0,10.4-1.3,15.2-4c4.8-2.7,8.7-7.1,8.7-13  c0-2.4-0.6-5-2-7.8c-0.7-1.4-1.4-2.5-2.3-3.5c4.8,3.7,7.2,7.3,8.2,10.5c0.2,0.8,0.4,1.6,0.6,2.3c0.1,0.8,0.2,1.5,0.2,2.2  c0,2.5-0.6,4.7-1.3,6.4c-3.4,9.4-12.3,13.8-22.2,13.9c-1.6,0-3.3-0.1-4.9-0.4c-2.7-1.5-5.1-4.3-5.6-7.6  C435.4,390.2,435.4,390.2,435.5,390.2z M436.1,399.2c3.2,0.9,6.5,1.3,9.7,1.3h0.1c10.5,0,20.5-4.9,24.4-15.3  c-0.3,9.3-5,13.4-11.4,16.7c-6.6,3.4-14.9,5.5-20.9,10.5c-4.8,4-6.8,8.9-6.8,13.8c0,7,3.9,14,8.9,19.8  C405,424.5,420.6,403.4,436.1,399.2z M452.6,420.5c-12.8,4.3-10.8,19.4-9.4,25.4c-5.4-5.8-9.5-13-9.5-19.6c0-4.2,1.6-8.3,5.9-11.9  c5.4-4.6,13.5-6.7,20.4-10.2c6.9-3.5,12.8-8.9,12.8-19.6c0-2.8-0.4-5.9-1.2-9.4c-0.9-6-5.4-13-17.8-19.6  c10.1,0.7,28.9,5.2,32.2,24.4C489.7,401.2,468.7,415.1,452.6,420.5z M281.2,460.3c-4.6,1.1-9.2,1.8-13.9,1.9  c0.4,0.3,0.7,0.6,1.1,0.9c2.3,2.3,3.8,5,3.9,7.8c0,3.3-0.2,10-4,15.1c2.2,2.2,13.4,4.5,13.4,4.5c1.4,0.2,2.3,0.1,3.3,0.1  c3.3,0,5.7-1.8,7.5-4.7c1.7-2.9,2.6-6.9,2.6-10.7c0-1-0.1-2.1-0.2-3.1c-1.1-7.6-5.8-12-13-12C281.6,460.3,281.4,460.3,281.2,460.3z   M298.9,454.6c-3.8,1.4-7.6,2.8-11.5,4c5.5,1.9,9.2,6.8,10,13.4c0.1,1.1,0.2,2.2,0.2,3.4c0,4.2-1,8.6-3,12c-0.9,1.5-2,2.8-3.3,3.8  c7.2,0.2,14.4-0.5,21.2-1.7l0,0c8.1-1.1,12.7-10.8,12.7-19c0-1.1-0.1-2.2-0.3-3.2c-1.2-7.4-8.3-15.6-17.5-15.6  C304.7,452.5,301.8,453.6,298.9,454.6z M342.3,451c-4.4-2.9-9.1-4-14-4c-4.9,0-10.1,1.1-15.5,2.8c8,2.5,13.5,9.9,14.7,16.9  c0.2,1.2,0.3,2.4,0.3,3.7c0,5.9-2.2,12.8-6.5,17.1c2.6-0.6,5-1.3,7.4-2c9.2-2.7,22.4-9.5,23.1-18.9c0,0,0,0.1,0,0.1  c0-0.4,0.1-0.7,0.1-1.1C351.7,458.9,346.1,453.7,342.3,451z M124.6,272.7c14.5-11.5,35.1-21,39-17.1c3.9,3.9-11.9,28-28.6,44.7  c13.8,0,28.4-2.7,59.7-29.8c3.8-5.7,5.3-11.6,5.3-17.5c0.1-18.6-15.4-37-21.7-43.6c-8-1.2-10.7-6.9-10.8-7.2l-0.1-0.3l-0.1-0.3  c0-0.2-0.9-4.7-0.4-10.7c-21.9,4.9-38.7,12.6-45.2,18c0,0,1.9,2.4,1.1,7.3c3.6,1.5,9.6-7,18.1-3.4c7.3,3.2,14,9.8,21.4,8.8l0.7,3.1  c-8,2.3-15.3-5.7-22.8-8.5c-7.8-3-13.9,5.4-18.1,2.9c-0.3,1-0.8,2.2-1.4,3.4c0.6,4.4,3.4,9.9,7.6,13.2c0.1,0.1,0.2,0.3,0.2,0.5  s-0.1,0.4-0.2,0.5c-3.2,2.6-21.7,16-26.5,20.7c0.3,0.2,0.6,0.4,1,0.6c6.6,4.1,14.6,8.1,19.6,8.1c0.3,0,0.6,0,0.9,0  c2.6-2.1,24.4-16.6,37.1-16.7c4,0,7.3,1.6,8.3,5.7c0.1,0.3-0.1,0.7-0.4,0.8c-0.3,0.1-0.7-0.1-0.8-0.4c-0.9-3.4-3.4-4.7-7.1-4.7  c-12.2-0.1-35.5,15.5-36.4,16.5c-0.1,0.1-0.2,0.2-0.4,0.2c-0.4,0-0.8,0.1-1.2,0.1c-10-0.1-27.9-13.2-31.6-16  C93.6,259.6,108,270.2,124.6,272.7z M136,236.3c-9.4-1.5-10.5-12-10.5-12c2.3-5.5,15.6-6.6,23.3,3.9  C148.8,228.2,143.4,237.5,136,236.3z M184.9,382.5c-4.2,2.1-7.2,5.9-7.2,10.6c0.1,6,4,12.3,13.4,12.4c2,0,4.3-0.3,6.9-1  c6.4-3,8.2-9.7,8.2-13.9c0-0.8-0.1-1.5-0.2-2c-0.2-0.9-0.4-1.8-0.7-2.5C198.4,381.1,191.2,380.8,184.9,382.5z M100.7,256.6  c4.6-4.5,21.6-17,26.1-20.4c-3.9-3.3-6.4-7.7-7.1-12c-0.3,0.6-0.7,1.3-1.2,1.9c-6.2,9.7-19.9,17.5-27.7,23.9  c0.7,0.5,4.7,3.5,9.8,6.8C100.7,256.7,100.7,256.6,100.7,256.6z M208.7,252.1c0.1-18-14.5-37.6-19.7-43.8c-0.5,0.1-0.9,0.3-1.4,0.4  c-2,0.5-3.9,0.7-5.7,0.8c7.1,7.9,20.5,25.1,20.6,43.4c0,6.1-1.5,12.2-5.3,18.1c1.1,0.4,2.2,0.8,3.2,1.2c0,0,0,0,0,0  C206.5,266.3,208.7,259.3,208.7,252.1z M159.6,188.9c-2.3-4.4-6.7-8.5-19.1-14.9c-7.1,7.9-7.6,17-6.4,24  C141.3,194.4,149.9,191.3,159.6,188.9z M186.9,205.7c9.8-2.4,10.6-9.5,10.6-9.5c0-8.7,1.4-13-13.9-28.3  c-17.9,10.4-13.3,32.9-13.3,32.9S174,208.9,186.9,205.7z"/>
</svg>