<?xml version="1.0" encoding="UTF-8" standalone="no"?>
<!-- Created with Inkscape (http://www.inkscape.org/) -->

<svg
   xmlns:osb="http://www.openswatchbook.org/uri/2009/osb"
   xmlns:dc="http://purl.org/dc/elements/1.1/"
   xmlns:cc="http://creativecommons.org/ns#"
   xmlns:rdf="http://www.w3.org/1999/02/22-rdf-syntax-ns#"
   xmlns:svg="http://www.w3.org/2000/svg"
   xmlns="http://www.w3.org/2000/svg"
   xmlns:xlink="http://www.w3.org/1999/xlink"
   xmlns:sodipodi="http://sodipodi.sourceforge.net/DTD/sodipodi-0.dtd"
   xmlns:inkscape="http://www.inkscape.org/namespaces/inkscape"
   width="408.29855"
   height="409.25946"
   id="svg4687"
   version="1.1"
   inkscape:version="0.48.3.1 r9886"
   sodipodi:docname="Новый документ 5">
  <defs
     id="defs4689">
    <linearGradient
       inkscape:collect="always"
       xlink:href="#linearGradient3828"
       id="linearGradient3844"
       gradientUnits="userSpaceOnUse"
       x1="332.66974"
       y1="465.26538"
       x2="418.94318"
       y2="465.26538"
       gradientTransform="translate(2.1276596,55.319149)" />
    <linearGradient
       id="linearGradient3828"
       osb:paint="solid">
      <stop
         style="stop-color:#000000;stop-opacity:1;"
         offset="0"
         id="stop3830" />
    </linearGradient>
    <linearGradient
       inkscape:collect="always"
       xlink:href="#linearGradient3828"
       id="linearGradient3116"
       gradientUnits="userSpaceOnUse"
       x1="332.66974"
       y1="465.26538"
       x2="418.94318"
       y2="465.26538"
       gradientTransform="translate(2.1276596,55.319149)" />
    <linearGradient
       id="linearGradient3118"
       osb:paint="solid">
      <stop
         style="stop-color:#000000;stop-opacity:1;"
         offset="0"
         id="stop3120" />
    </linearGradient>
    <path
       sodipodi:type="arc"
       style="fill:none;stroke:none"
       id="path6326"
       sodipodi:cx="471.47418"
       sodipodi:cy="409.80457"
       sodipodi:rx="280.49728"
       sodipodi:ry="204.90228"
       d="m 751.97147,409.80457 a 280.49728,204.90228 0 1 1 -560.99457,0 280.49728,204.90228 0 1 1 560.99457,0 z"
       transform="matrix(0.67595678,0,0,0.92777902,101.03424,98.41168)" />
    <linearGradient
       y2="465.26538"
       x2="418.94318"
       y1="465.26538"
       x1="332.66974"
       gradientTransform="translate(2.1276596,55.319149)"
       gradientUnits="userSpaceOnUse"
       id="linearGradient3131"
       xlink:href="#linearGradient3828"
       inkscape:collect="always" />
    <linearGradient
       inkscape:collect="always"
       xlink:href="#linearGradient3828"
       id="linearGradient4739"
       gradientUnits="userSpaceOnUse"
       gradientTransform="translate(-111.26119,-26.826216)"
       x1="332.66974"
       y1="465.26538"
       x2="418.94318"
       y2="465.26538" />
    <linearGradient
       inkscape:collect="always"
       xlink:href="#linearGradient3828-1"
       id="linearGradient3844-4"
       gradientUnits="userSpaceOnUse"
       x1="332.66974"
       y1="465.26538"
       x2="418.94318"
       y2="465.26538"
       gradientTransform="translate(2.1276596,55.319149)" />
    <linearGradient
       id="linearGradient3828-1"
       osb:paint="solid">
      <stop
         style="stop-color:#000000;stop-opacity:1;"
         offset="0"
         id="stop3830-2" />
    </linearGradient>
    <linearGradient
       inkscape:collect="always"
       xlink:href="#linearGradient3828-1"
       id="linearGradient3148"
       gradientUnits="userSpaceOnUse"
       x1="332.66974"
       y1="465.26538"
       x2="418.94318"
       y2="465.26538"
       gradientTransform="translate(2.1276596,55.319149)" />
    <linearGradient
       id="linearGradient3150"
       osb:paint="solid">
      <stop
         style="stop-color:#000000;stop-opacity:1;"
         offset="0"
         id="stop3152" />
    </linearGradient>
    <path
       sodipodi:type="arc"
       style="fill:none;stroke:none"
       id="path6155"
       sodipodi:cx="455.46875"
       sodipodi:cy="498.45593"
       sodipodi:rx="166.40625"
       sodipodi:ry="163.28125"
       d="m 621.875,498.45593 a 166.40625,163.28125 0 1 1 -332.8125,0 166.40625,163.28125 0 1 1 332.8125,0 z"
       transform="matrix(0.99753753,0,0,1.0166292,-35.222176,-28.195176)" />
    <path
       sodipodi:type="arc"
       style="fill:none;stroke:none"
       id="path6326-5"
       sodipodi:cx="471.47418"
       sodipodi:cy="409.80457"
       sodipodi:rx="280.49728"
       sodipodi:ry="204.90228"
       d="m 751.97147,409.80457 a 280.49728,204.90228 0 1 1 -560.99457,0 280.49728,204.90228 0 1 1 560.99457,0 z"
       transform="matrix(0.67595678,0,0,0.92777902,101.03424,98.41168)" />
    <linearGradient
       y2="465.26538"
       x2="418.94318"
       y1="465.26538"
       x1="332.66974"
       gradientTransform="translate(2.1276596,55.319149)"
       gradientUnits="userSpaceOnUse"
       id="linearGradient3167"
       xlink:href="#linearGradient3828-1"
       inkscape:collect="always" />
    <linearGradient
       inkscape:collect="always"
       xlink:href="#linearGradient3828-1"
       id="linearGradient4796"
       gradientUnits="userSpaceOnUse"
       gradientTransform="translate(-72.320014,-32.894411)"
       x1="332.66974"
       y1="465.26538"
       x2="418.94318"
       y2="465.26538" />
    <linearGradient
       inkscape:collect="always"
       xlink:href="#linearGradient4612"
       id="linearGradient4618"
       x1="6"
       y1="1043.3622"
       x2="319"
       y2="737.36218"
       gradientUnits="userSpaceOnUse" />
    <linearGradient
       inkscape:collect="always"
       id="linearGradient4612">
      <stop
         style="stop-color:#5fd35f;stop-opacity:1;"
         offset="0"
         id="stop4614" />
      <stop
         style="stop-color:#5fd35f;stop-opacity:0;"
         offset="1"
         id="stop4616" />
    </linearGradient>
    <radialGradient
       inkscape:collect="always"
       xlink:href="#linearGradient4612"
       id="radialGradient5375"
       cx="263.20554"
       cy="485.77676"
       fx="263.20554"
       fy="485.77676"
       r="149.50999"
       gradientUnits="userSpaceOnUse"
       gradientTransform="matrix(2.8100172,-1.1908493e-8,1.1559834e-8,2.7277451,-476.40655,-839.29839)" />
  </defs>
  <sodipodi:namedview
     inkscape:document-units="in"
     pagecolor="#ffffff"
     bordercolor="#666666"
     borderopacity="1.0"
     inkscape:pageopacity="0.0"
     inkscape:pageshadow="2"
     inkscape:zoom="0.86831672"
     inkscape:cx="108.44551"
     inkscape:cy="202.53922"
     inkscape:current-layer="layer1"
     id="namedview4691"
     showgrid="false"
     units="px"
     fit-margin-top="0"
     fit-margin-left="0"
     fit-margin-right="0"
     fit-margin-bottom="0"
     inkscape:window-width="1366"
     inkscape:window-height="717"
     inkscape:window-x="0"
     inkscape:window-y="27"
     inkscape:window-maximized="1" />
  <metadata
     id="metadata4693">
    <rdf:RDF>
      <cc:Work
         rdf:about="">
        <dc:format>image/svg+xml</dc:format>
        <dc:type
           rdf:resource="http://purl.org/dc/dcmitype/StillImage" />
        <dc:title></dc:title>
      </cc:Work>
    </rdf:RDF>
  </metadata>
  <g
     inkscape:label="Layer 1"
     inkscape:groupmode="layer"
     id="layer1"
     transform="translate(-141.13174,-183.77295)">
    <rect
       style="fill:url(#radialGradient5375);fill-opacity:1;stroke:#000000;stroke-width:4;stroke-linecap:butt;stroke-miterlimit:4;stroke-dasharray:none"
       id="rect3788"
       width="295.01999"
       height="295.01999"
       x="198.61461"
       y="240.37622"
       rx="746.01001"
       ry="1412.01" />
    <g
       style="font-size:40px;font-style:normal;font-variant:normal;font-weight:500;font-stretch:normal;line-height:125%;letter-spacing:0px;word-spacing:0px;fill:#ffffff;fill-opacity:1;stroke:#000000;stroke-width:4;stroke-miterlimit:4;font-family:KacstFarsi;-inkscape-font-specification:KacstFarsi Medium"
       id="text2982-6"
       transform="translate(-432.26222,-631.49791)">
      <path
         d="m 770.375,1055.5985 c -1.40633,5.625 -3.28133,10.7227 -5.625,15.293 -2.34383,4.5703 -5.21492,8.4668 -8.61328,11.6894 -3.33991,3.2227 -7.26569,5.7129 -11.77735,7.4707 -4.45317,1.7579 -9.58012,2.6368 -15.38085,2.6368 -8.02738,0 -14.82425,-1.6407 -20.39063,-4.9219 -5.56642,-3.3399 -10.13673,-7.7637 -13.71094,-13.2715 -3.51563,-5.5664 -6.06445,-11.8945 -7.64648,-18.9844 -1.52344,-7.1484 -2.28516,-14.5605 -2.28516,-22.2363 0,-7.6757 0.76172,-15.0878 2.28516,-22.2363 1.58203,-7.1484 4.10156,-13.44721 7.55859,-18.89652 3.51562,-5.44912 7.96874,-9.81435 13.35938,-13.0957 5.3906,-3.33973 11.98239,-5.00965 19.77539,-5.00977 2.51949,1.2e-4 5.06831,0.32238 7.64648,0.9668 2.57808,0.64464 4.98042,1.64074 7.20703,2.98828 2.22651,1.28917 4.1601,2.9005 5.80078,4.83398 1.69916,1.9337 2.90033,4.16026 3.60352,6.67969 l 0,-13.53516 16.43555,0 0,43.418 -16.43555,0 c -6e-5,-3.5742 -0.43952,-7.0898 -1.31836,-10.5469 -0.87897,-3.5155 -2.28522,-6.621 -4.21875,-9.31641 -1.93365,-2.69522 -4.36529,-4.89248 -7.29492,-6.59179 -2.92974,-1.69912 -6.38677,-2.54873 -10.37109,-2.54883 -5.15629,10e-5 -9.37504,1.25986 -12.65625,3.77929 -3.28128,2.51963 -5.918,5.83017 -7.91016,9.93164 -1.99221,4.1017 -3.39846,8.7013 -4.21875,13.7988 -0.76174,5.0978 -1.1426,10.2247 -1.14258,15.3809 -2e-5,5.1563 0.38084,10.3125 1.14258,15.4687 0.82029,5.1563 2.19725,9.7852 4.13086,13.8868 1.93357,4.043 4.57029,7.3242 7.91015,9.8437 3.33982,2.5196 7.58786,3.7793 12.74415,3.7793 7.44135,0 13.15424,-2.373 17.13867,-7.1191 4.0429,-4.7461 7.26556,-11.1328 9.66797,-19.1602 l 14.58984,5.625"
         style="font-size:180px;font-weight:bold;fill:#ffffff;stroke:#000000;font-family:Anonymous Pro;-inkscape-font-specification:Anonymous Pro Bold"
         id="path3840"
         inkscape:connector-curvature="0" />
      <path
         d="m 867.05469,1074.2313 -16.43555,0 0,16.3477 -16.34766,0 0,-16.3477 -16.34765,0 0,16.3477 -16.43555,0 0,-16.3477 -16.34766,0 0,-16.3476 16.34766,0 0,-16.4356 -16.34766,0 0,-16.3476 16.34766,0 0,-16.4356 16.43555,0 0,16.4356 16.34765,0 0,-16.4356 16.34766,0 0,16.4356 16.43555,0 0,16.3476 -16.43555,0 0,16.4356 16.43555,0 0,16.3476 m -32.78321,-16.3476 0,-16.4356 -16.34765,0 0,16.4356 16.34765,0"
         style="font-size:180px;font-weight:bold;fill:#ffffff;stroke:#000000;font-family:Anonymous Pro;-inkscape-font-specification:Anonymous Pro Bold"
         id="path3842"
         inkscape:connector-curvature="0" />
    </g>
    <text
       xml:space="preserve"
       style="font-size:40px;font-style:normal;font-weight:normal;line-height:125%;letter-spacing:0px;word-spacing:0px;opacity:0.98999999;fill:#000000;fill-opacity:1;stroke:none;display:inline;font-family:Sans"
       id="text6157"
       sodipodi:linespacing="125%"
       transform="matrix(0.9744612,0.22455592,-0.22455592,0.9744612,43.708166,-172.12165)"><textPath
         xlink:href="#path6155"
         id="textPath6164"><tspan
   style="font-size:20px;font-style:normal;font-variant:normal;font-weight:normal;font-stretch:normal;font-family:Monospace;-inkscape-font-specification:Monospace"
   id="tspan6159">0100001100010100100101001001001010001111100101001111100111100011001010010110001111111001010011111001111000110010100101100011111</tspan></textPath></text>
    <text
       transform="translate(-74.447664,-90.213551)"
       xml:space="preserve"
       style="font-size:40px;font-style:normal;font-weight:normal;line-height:125%;letter-spacing:0px;word-spacing:0px;opacity:0.98999999;fill:#000000;fill-opacity:1;stroke:none;display:inline;font-family:Sans"
       id="text6328"
       sodipodi:linespacing="125%"><textPath
         xlink:href="#path6326-5"
         id="textPath6332"><tspan
   style="font-size:20px;font-style:normal;font-variant:normal;font-weight:normal;font-stretch:normal;font-family:Monospace;-inkscape-font-specification:Monospace"
   id="tspan6330">0100011100100101000101001001001001001111110111010000100101001110010001111000111100010010001000010011</tspan></textPath></text>
  </g>
</svg>
