<?xml version="1.0" encoding="UTF-8" standalone="no"?>
<!-- Created with Inkscape (http://www.inkscape.org/) -->

<svg
   xmlns:dc="http://purl.org/dc/elements/1.1/"
   xmlns:cc="http://creativecommons.org/ns#"
   xmlns:rdf="http://www.w3.org/1999/02/22-rdf-syntax-ns#"
   xmlns:svg="http://www.w3.org/2000/svg"
   xmlns="http://www.w3.org/2000/svg"
   xmlns:xlink="http://www.w3.org/1999/xlink"
   version="1.1"
   width="257.44095"
   height="253.87891"
   id="svg2">
  <defs
     id="defs4">
    <linearGradient
       id="linearGradient4612">
      <stop
         id="stop4614"
         style="stop-color:#5599ff;stop-opacity:1"
         offset="0" />
      <stop
         id="stop4616"
         style="stop-color:#ffffff;stop-opacity:1"
         offset="1" />
    </linearGradient>
    <linearGradient
       id="linearGradient3778">
      <stop
         id="stop3780"
         style="stop-color:#5fd35f;stop-opacity:1"
         offset="0" />
      <stop
         id="stop3782"
         style="stop-color:#afe9af;stop-opacity:0"
         offset="1" />
    </linearGradient>
    <linearGradient
       x1="0.37340164"
       y1="992.8573"
       x2="247.10875"
       y2="855.8573"
       id="linearGradient3786"
       xlink:href="#linearGradient3778"
       gradientUnits="userSpaceOnUse"
       gradientTransform="translate(35,-8)" />
    <linearGradient
       x1="6"
       y1="1043.3622"
       x2="319"
       y2="737.36218"
       id="linearGradient4618"
       xlink:href="#linearGradient4612"
       gradientUnits="userSpaceOnUse"
       gradientTransform="translate(123.19238,-136.46446)" />
    <filter
       x="-0.1"
       color-interpolation-filters="sRGB"
       id="filter5549">
      <feGaussianBlur
         result="result8"
         stdDeviation="1.121"
         id="feGaussianBlur5551" />
      <feOffset
         result="result11"
         dy="1"
         dx="1"
         id="feOffset5553" />
      <feComposite
         in2="result11"
         operator="in"
         in="SourceGraphic"
         result="result6"
         id="feComposite5555" />
      <feFlood
         flood-color="rgb(0,0,0)"
         flood-opacity="1"
         in="result6"
         result="result10"
         id="feFlood5557" />
      <feBlend
         in2="result10"
         mode="normal"
         in="result6"
         result="result12"
         id="feBlend5559" />
      <feComposite
         in2="SourceGraphic"
         operator="in"
         result="result2"
         id="feComposite5561" />
    </filter>
    <filter
       color-interpolation-filters="sRGB"
       id="filter5599">
      <feFlood
         result="flood"
         flood-color="rgb(0,0,0)"
         flood-opacity="1"
         id="feFlood5601" />
      <feComposite
         in2="SourceGraphic"
         operator="in"
         in="flood"
         result="composite1"
         id="feComposite5603" />
      <feGaussianBlur
         result="blur"
         stdDeviation="1.9"
         id="feGaussianBlur5605" />
      <feOffset
         result="offset"
         dy="1"
         dx="1"
         id="feOffset5607" />
      <feComposite
         in2="offset"
         operator="over"
         in="SourceGraphic"
         result="composite2"
         id="feComposite5609" />
    </filter>
    <filter
       color-interpolation-filters="sRGB"
       id="filter5691">
      <feFlood
         result="flood"
         flood-color="rgb(0,0,0)"
         flood-opacity="1"
         id="feFlood5693" />
      <feComposite
         in2="SourceGraphic"
         operator="in"
         in="flood"
         result="composite1"
         id="feComposite5695" />
      <feGaussianBlur
         result="blur"
         stdDeviation="1.9"
         id="feGaussianBlur5697" />
      <feOffset
         result="offset"
         dy="1"
         dx="1"
         id="feOffset5699" />
      <feComposite
         in2="offset"
         operator="over"
         in="SourceGraphic"
         result="composite2"
         id="feComposite5701" />
    </filter>
    <filter
       color-interpolation-filters="sRGB"
       id="filter5707">
      <feFlood
         result="flood"
         flood-color="rgb(0,0,0)"
         flood-opacity="1"
         id="feFlood5709" />
      <feComposite
         in2="SourceGraphic"
         operator="in"
         in="flood"
         result="composite1"
         id="feComposite5711" />
      <feGaussianBlur
         result="blur"
         stdDeviation="1.9"
         id="feGaussianBlur5713" />
      <feOffset
         result="offset"
         dy="1"
         dx="1"
         id="feOffset5715" />
      <feComposite
         in2="offset"
         operator="over"
         in="SourceGraphic"
         result="composite2"
         id="feComposite5717" />
    </filter>
    <filter
       color-interpolation-filters="sRGB"
       id="filter3075">
      <feFlood
         result="flood"
         flood-color="rgb(0,0,0)"
         flood-opacity="1"
         id="feFlood3077" />
      <feComposite
         in2="SourceGraphic"
         operator="in"
         in="flood"
         result="composite1"
         id="feComposite3079" />
      <feGaussianBlur
         result="blur"
         stdDeviation="2"
         id="feGaussianBlur3081" />
      <feOffset
         result="offset"
         dy="1"
         dx="1"
         id="feOffset3083" />
      <feComposite
         in2="offset"
         operator="over"
         in="SourceGraphic"
         result="composite2"
         id="feComposite3085" />
    </filter>
    <linearGradient
       x1="6"
       y1="1043.3622"
       x2="319"
       y2="737.36218"
       id="linearGradient4618-9"
       xlink:href="#linearGradient4612-2"
       gradientUnits="userSpaceOnUse" />
    <linearGradient
       id="linearGradient4612-2">
      <stop
         id="stop4614-3"
         style="stop-color:#5599ff;stop-opacity:1"
         offset="0" />
      <stop
         id="stop4616-5"
         style="stop-color:#ffffff;stop-opacity:1"
         offset="1" />
    </linearGradient>
    <filter
       color-interpolation-filters="sRGB"
       id="filter5599-9">
      <feFlood
         result="flood"
         flood-color="rgb(0,0,0)"
         flood-opacity="1"
         id="feFlood5601-4" />
      <feComposite
         in2="SourceGraphic"
         operator="in"
         in="flood"
         result="composite1"
         id="feComposite5603-0" />
      <feGaussianBlur
         result="blur"
         stdDeviation="1.9"
         id="feGaussianBlur5605-2" />
      <feOffset
         result="offset"
         dy="1"
         dx="1"
         id="feOffset5607-4" />
      <feComposite
         in2="offset"
         operator="over"
         in="SourceGraphic"
         result="composite2"
         id="feComposite5609-7" />
    </filter>
    <linearGradient
       x1="6"
       y1="1043.3622"
       x2="319"
       y2="737.36218"
       id="linearGradient4618-0"
       xlink:href="#linearGradient4612-8"
       gradientUnits="userSpaceOnUse"
       gradientTransform="translate(9.192388,-0.4644662)" />
    <linearGradient
       id="linearGradient4612-8">
      <stop
         id="stop4614-2"
         style="stop-color:#5599ff;stop-opacity:1"
         offset="0" />
      <stop
         id="stop4616-55"
         style="stop-color:#ffffff;stop-opacity:1"
         offset="1" />
    </linearGradient>
    <path
       d="m 270.99997,548.36218 92,0 c 35.456,0 64,28.544 64,64 l 0,92 c 0,35.456 -28.544,64 -64,64 l -92,0 c -35.456,0 -64,-28.544 -64,-64 l 0,-92 c 0,-35.456 28.544,-64 64,-64 z"
       id="rect3788-2-8"
       style="fill:none;stroke:none" />
  </defs>
  <metadata
     id="metadata7">
    <rdf:RDF>
      <cc:Work
         rdf:about="">
        <dc:format>image/svg+xml</dc:format>
        <dc:type
           rdf:resource="http://purl.org/dc/dcmitype/StillImage" />
        <dc:title></dc:title>
      </cc:Work>
    </rdf:RDF>
  </metadata>
  <g
     transform="translate(-106.85005,-650.77428)"
     id="layer1">
    <rect
       width="220"
       height="220"
       rx="64"
       ry="64"
       x="125.19238"
       y="663.89771"
       id="rect3788"
       style="fill:url(#linearGradient4618);fill-opacity:1;stroke:none" />
    <text
       x="515.19202"
       y="879.25873"
       id="text2982-8"
       xml:space="preserve"
       style="font-size:40px;font-style:normal;font-variant:normal;font-weight:500;font-stretch:normal;line-height:52.00000405%;letter-spacing:0px;word-spacing:0px;fill:#e3f4d7;fill-opacity:1;stroke:#000000;stroke-width:4;stroke-miterlimit:4;stroke-dasharray:none;font-family:KacstFarsi;-inkscape-font-specification:KacstFarsi Medium"><tspan
         x="515.19202"
         y="879.25873"
         id="tspan2984-5"
         style="font-size:120px;font-style:normal;font-variant:normal;font-weight:normal;font-stretch:normal;line-height:52.00000405%;letter-spacing:-18.44000053px;fill:#e3f4d7;fill-opacity:1;stroke:#000000;stroke-width:4;stroke-miterlimit:4;stroke-dasharray:none;font-family:Andale Mono;-inkscape-font-specification:Andale Mono">++</tspan><tspan
         x="515.19202"
         y="941.65875"
         id="tspan3819"
         style="font-size:120px;font-style:normal;font-variant:normal;font-weight:normal;font-stretch:normal;line-height:52.00000405%;letter-spacing:-18.44000053px;fill:#e3f4d7;fill-opacity:1;stroke:#000000;stroke-width:4;stroke-miterlimit:4;stroke-dasharray:none;font-family:Andale Mono;-inkscape-font-specification:Andale Mono">++</tspan></text>
    <text
       x="502.11951"
       y="731.35339"
       id="text2982"
       xml:space="preserve"
       style="font-size:40px;font-style:normal;font-variant:normal;font-weight:500;font-stretch:normal;line-height:125%;letter-spacing:0px;word-spacing:0px;fill:#ffffff;fill-opacity:1;stroke:#000000;stroke-width:4;stroke-miterlimit:4;stroke-dasharray:none;font-family:KacstFarsi;-inkscape-font-specification:KacstFarsi Medium"><tspan
         x="502.11951"
         y="731.35339"
         id="tspan2984"
         style="font-size:180px;font-style:normal;font-variant:normal;font-weight:bold;font-stretch:normal;letter-spacing:0px;fill:#ffffff;fill-opacity:1;stroke:#000000;stroke-width:4;stroke-miterlimit:4;stroke-dasharray:none;font-family:Anonymous Pro;-inkscape-font-specification:Anonymous Pro Bold">C#</tspan></text>
    <g
       transform="translate(-539,-261)"
       id="text2982-6"
       style="font-size:40px;font-style:normal;font-variant:normal;font-weight:500;font-stretch:normal;line-height:125%;letter-spacing:0px;word-spacing:0px;fill:#ffffff;fill-opacity:1;stroke:none;filter:url(#filter5691);font-family:KacstFarsi;-inkscape-font-specification:KacstFarsi Medium">
      <path
         d="m 770.375,1055.5985 c -1.40633,5.625 -3.28133,10.7227 -5.625,15.293 -2.34383,4.5703 -5.21492,8.4668 -8.61328,11.6894 -3.33991,3.2227 -7.26569,5.7129 -11.77735,7.4707 -4.45317,1.7579 -9.58012,2.6368 -15.38085,2.6368 -8.02738,0 -14.82425,-1.6407 -20.39063,-4.9219 -5.56642,-3.3399 -10.13673,-7.7637 -13.71094,-13.2715 -3.51563,-5.5664 -6.06445,-11.8945 -7.64648,-18.9844 -1.52344,-7.1484 -2.28516,-14.5605 -2.28516,-22.2363 0,-7.6757 0.76172,-15.0878 2.28516,-22.2363 1.58203,-7.1484 4.10156,-13.44721 7.55859,-18.89652 3.51562,-5.44912 7.96874,-9.81435 13.35938,-13.0957 5.3906,-3.33973 11.98239,-5.00965 19.77539,-5.00977 2.51949,1.2e-4 5.06831,0.32238 7.64648,0.9668 2.57808,0.64464 4.98042,1.64074 7.20703,2.98828 2.22651,1.28917 4.1601,2.9005 5.80078,4.83398 1.69916,1.9337 2.90033,4.16026 3.60352,6.67969 l 0,-13.53516 16.43555,0 0,43.418 -16.43555,0 c -6e-5,-3.5742 -0.43952,-7.0898 -1.31836,-10.5469 -0.87897,-3.5155 -2.28522,-6.621 -4.21875,-9.31641 -1.93365,-2.69522 -4.36529,-4.89248 -7.29492,-6.59179 -2.92974,-1.69912 -6.38677,-2.54873 -10.37109,-2.54883 -5.15629,10e-5 -9.37504,1.25986 -12.65625,3.77929 -3.28128,2.51963 -5.918,5.83017 -7.91016,9.93164 -1.99221,4.1017 -3.39846,8.7013 -4.21875,13.7988 -0.76174,5.0978 -1.1426,10.2247 -1.14258,15.3809 -2e-5,5.1563 0.38084,10.3125 1.14258,15.4687 0.82029,5.1563 2.19725,9.7852 4.13086,13.8868 1.93357,4.043 4.57029,7.3242 7.91015,9.8437 3.33982,2.5196 7.58786,3.7793 12.74415,3.7793 7.44135,0 13.15424,-2.373 17.13867,-7.1191 4.0429,-4.7461 7.26556,-11.1328 9.66797,-19.1602 l 14.58984,5.625"
         id="path3840"
         style="font-size:180px;font-weight:bold;fill:#ffffff;stroke:none;font-family:Anonymous Pro;-inkscape-font-specification:Anonymous Pro Bold" />
      <path
         d="m 867.05469,1074.2313 -16.43555,0 0,16.3477 -16.34766,0 0,-16.3477 -16.34765,0 0,16.3477 -16.43555,0 0,-16.3477 -16.34766,0 0,-16.3476 16.34766,0 0,-16.4356 -16.34766,0 0,-16.3476 16.34766,0 0,-16.4356 16.43555,0 0,16.4356 16.34765,0 0,-16.4356 16.34766,0 0,16.4356 16.43555,0 0,16.3476 -16.43555,0 0,16.4356 16.43555,0 0,16.3476 m -32.78321,-16.3476 0,-16.4356 -16.34765,0 0,16.4356 16.34765,0"
         id="path3842"
         style="font-size:180px;font-weight:bold;fill:#ffffff;stroke:none;font-family:Anonymous Pro;-inkscape-font-specification:Anonymous Pro Bold" />
    </g>
    <text
       x="509.72223"
       y="773.93579"
       id="text5703"
       xml:space="preserve"
       style="font-size:40px;font-style:normal;font-variant:normal;font-weight:normal;font-stretch:normal;line-height:125%;letter-spacing:0px;word-spacing:0px;fill:#ffffff;fill-opacity:1;stroke:none;filter:url(#filter3075);font-family:Andale Mono;-inkscape-font-specification:Andale Mono"><tspan
         x="509.72223"
         y="773.93579"
         id="tspan5705"
         style="font-size:48px;font-style:normal;font-variant:normal;font-weight:bold;font-stretch:normal;fill:#ffffff;stroke:none;font-family:Anonymous Pro;-inkscape-font-specification:Anonymous Pro Bold">изучаем</tspan></text>
    <path
       d="m -48.979186,1105.553 122,0 c 35.455996,0 63.999996,28.544 63.999996,64 l 0,122 c 0,35.456 -28.544,64 -63.999996,64 l -122,0 c -35.456,0 -64.000004,-28.544 -64.000004,-64 l 0,-122 c 0,-35.456 28.544004,-64 64.000004,-64 z"
       id="rect3788-6"
       style="fill:none;stroke:none" />
    <path
       d="m 270.99997,548.36218 92,0 c 35.456,0 64,28.544 64,64 l 0,92 c 0,35.456 -28.544,64 -64,64 l -92,0 c -35.456,0 -64,-28.544 -64,-64 l 0,-92 c 0,-35.456 28.544,-64 64,-64 z"
       id="rect3788-2"
       style="fill:none;stroke:none" />
    <g
       transform="translate(-81.999993,116.99999)"
       id="text3095"
       style="font-size:40px;font-style:normal;font-variant:normal;font-weight:normal;font-stretch:normal;line-height:125%;letter-spacing:0px;word-spacing:0px;fill:#000000;fill-opacity:1;stroke:none;font-family:Andale Mono;-inkscape-font-specification:Andale Mono">
      <path
         d="m 286.03903,548.36218 -2.13281,0 0,-9.35156 c -1e-5,-2.2604 -0.41928,-3.39061 -1.25781,-3.39062 -0.4284,10e-6 -0.90236,0.39193 -1.42188,1.17578 -0.51042,0.77475 -0.76563,1.20313 -0.76562,1.28515 l 0,10.28125 -2.11914,0 0,-9.35156 c -10e-6,-2.2604 -0.42384,-3.39061 -1.27149,-3.39062 -0.41927,10e-6 -0.88868,0.39193 -1.4082,1.17578 -0.51042,0.77475 -0.76563,1.20313 -0.76563,1.28515 l 0,10.28125 -2.13281,0 0,-14.24609 2.05078,0 0,2.14648 c 0.40104,-0.75649 0.875,-1.35806 1.42188,-1.80468 0.55598,-0.45572 1.10741,-0.68358 1.65429,-0.6836 0.57422,2e-5 1.08919,0.22788 1.54493,0.6836 0.45572,0.44662 0.77017,1.04819 0.94336,1.80468 0.40103,-0.75649 0.87954,-1.35806 1.43554,-1.80468 0.55598,-0.45572 1.10286,-0.68358 1.64063,-0.6836 1.72264,2e-5 2.58397,1.54038 2.58398,4.6211 l 0,9.96679"
         id="path3157"
         style="font-size:28px" />
      <path
         d="m 296.18356,533.77429 c 1.95963,2e-5 3.51822,0.68361 4.67578,2.05078 1.15754,1.3672 1.73632,3.16733 1.73633,5.40039 -10e-6,2.25131 -0.57879,4.06511 -1.73633,5.44141 -1.15756,1.3763 -2.71615,2.06445 -4.67578,2.06445 -1.96875,0 -3.5319,-0.68359 -4.68945,-2.05078 -1.14844,-1.3763 -1.72266,-3.19465 -1.72266,-5.45508 0,-2.24217 0.57878,-4.0423 1.73633,-5.40039 1.15755,-1.36717 2.71614,-2.05076 4.67578,-2.05078 m 0,13.09766 c 1.29426,0 2.3151,-0.54687 3.0625,-1.64063 0.74739,-1.09374 1.12108,-2.41991 1.1211,-3.97851 -2e-5,-1.64062 -0.36916,-2.98958 -1.10742,-4.04688 -0.7383,-1.05728 -1.76369,-1.58592 -3.07618,-1.58593 -1.32162,10e-6 -2.34701,0.5241 -3.07617,1.57226 -0.72917,1.03907 -1.09375,2.39259 -1.09375,4.06055 0,1.58594 0.36914,2.92123 1.10742,4.00586 0.73828,1.07552 1.75911,1.61328 3.0625,1.61328"
         id="path3159"
         style="font-size:28px" />
      <path
         d="m 318.49606,548.36218 -2.13281,0 0,-9.13281 c -10e-6,-1.26692 -0.20509,-2.18293 -0.61523,-2.74805 -0.40106,-0.5742 -1.03452,-0.86131 -1.90039,-0.86132 -1.3034,10e-6 -2.70248,0.8112 -4.19727,2.43359 l 0,10.30859 -2.13281,0 0,-14.24609 2.13281,0 0,2.0918 c 1.53124,-1.62239 3.14452,-2.43358 4.83984,-2.4336 2.67056,2e-5 4.00585,1.6133 4.00586,4.83985 l 0,9.74804"
         id="path3161"
         style="font-size:28px" />
      <path
         d="m 329.76169,533.77429 c 1.95962,2e-5 3.51822,0.68361 4.67578,2.05078 1.15754,1.3672 1.73631,3.16733 1.73633,5.40039 -2e-5,2.25131 -0.57879,4.06511 -1.73633,5.44141 -1.15756,1.3763 -2.71616,2.06445 -4.67578,2.06445 -1.96876,0 -3.53191,-0.68359 -4.68945,-2.05078 -1.14844,-1.3763 -1.72266,-3.19465 -1.72266,-5.45508 0,-2.24217 0.57877,-4.0423 1.73633,-5.40039 1.15754,-1.36717 2.71614,-2.05076 4.67578,-2.05078 m 0,13.09766 c 1.29426,0 2.31509,-0.54687 3.0625,-1.64063 0.74738,-1.09374 1.12108,-2.41991 1.12109,-3.97851 -1e-5,-1.64062 -0.36915,-2.98958 -1.10742,-4.04688 -0.73829,-1.05728 -1.76368,-1.58592 -3.07617,-1.58593 -1.32162,10e-6 -2.34701,0.5241 -3.07617,1.57226 -0.72917,1.03907 -1.09376,2.39259 -1.09375,4.06055 -10e-6,1.58594 0.36913,2.92123 1.10742,4.00586 0.73827,1.07552 1.75911,1.61328 3.0625,1.61328"
         id="path3163"
         style="font-size:28px" />
      <path
         d="m 363.36683,545.23126 c 0.48278,0.0168 0.88243,0.19482 1.19898,0.53413 0.31653,0.33932 0.46641,0.75037 0.44965,1.23315 -0.0171,0.49189 -0.20033,0.90961 -0.5497,1.25316 -0.33996,0.33475 -0.74677,0.4939 -1.22043,0.47745 -0.46457,-0.0161 -0.85481,-0.20298 -1.1707,-0.56051 -0.3156,-0.36665 -0.46485,-0.79591 -0.44775,-1.28781 0.0171,-0.49189 0.19057,-0.8917 0.52047,-1.19945 0.33931,-0.31653 0.7458,-0.46657 1.21948,-0.45012"
         id="path3165"
         style="font-size:28px" />
      <path
         d="m 385.26052,552.05661 -2.05811,-0.55952 2.39588,-8.81295 c 0.33235,-1.22254 0.37476,-2.16028 0.12723,-2.81319 -0.23637,-0.65931 -0.77232,-1.10255 -1.60787,-1.32971 -1.25774,-0.34192 -2.82064,0.0738 -4.68868,1.24726 l -2.70434,9.94754 -2.05811,-0.55951 3.73729,-13.74714 2.05811,0.55951 -0.54875,2.01854 c 1.90322,-1.16386 3.67281,-1.52342 5.30875,-1.07869 2.57703,0.70061 3.44232,2.60768 2.59589,5.72123 l -2.55729,9.40663"
         id="path3167"
         style="font-size:28px" />
      <path
         d="m 404.0621,553.99752 -8.43842,-4.93471 c -0.81441,1.39264 -1.0849,2.77602 -0.81149,4.15015 0.28127,1.37874 1.00807,2.41089 2.18041,3.09646 1.11724,0.65335 2.38723,1.12678 3.80996,1.42029 l -0.54405,1.66159 c -1.37107,-0.14714 -2.78045,-0.64402 -4.22815,-1.49062 -1.82538,-1.06746 -2.95391,-2.51404 -3.38559,-4.33972 -0.43169,-1.82569 -0.0655,-3.73384 1.0986,-5.72444 1.14107,-1.95126 2.54941,-3.21301 4.22501,-3.78527 1.68806,-0.57551 3.32676,-0.39856 4.91611,0.53086 1.41622,0.82821 2.28518,2.05964 2.60687,3.69428 0.32165,1.63465 -0.042,3.34893 -1.09108,5.14283 l -0.33818,0.5783 m -1.12982,-2.67214 c 0.56132,-0.95989 0.73395,-1.94121 0.51789,-2.94394 -0.21149,-1.01059 -0.68702,-1.73214 -1.4266,-2.16465 -0.95204,-0.55673 -1.92681,-0.70442 -2.92433,-0.44308 -0.98967,0.26596 -1.81668,0.88571 -2.48103,1.85927 l 6.31407,3.6924"
         id="path3169"
         style="font-size:28px" />
      <path
         d="m 413.01946,570.93422 c -1.47236,-0.55729 -2.6952,-1.32889 -3.66852,-2.31479 -1.78658,-1.80966 -1.72315,-3.659 0.19029,-5.54802 l 6.19759,-6.11852 -1.92104,-1.94587 1.31346,-1.2967 1.92104,1.94586 2.77286,-2.73748 1.46,1.47886 -2.77286,2.73748 3.40024,3.44419 -1.31346,1.2967 -3.40025,-3.44418 -5.79868,5.72471 c -0.6162,0.60832 -0.96171,1.21839 -1.03652,1.8302 -0.0684,0.6054 0.12801,1.1416 0.58907,1.60862 0.81963,0.83023 1.81453,1.46823 2.98469,1.91402 l -0.91791,1.42492"
         id="path3171"
         style="font-size:28px" />
      <path
         d="m 426.62529,602.65992 -0.53296,-2.06515 9.05489,-2.33682 c 2.18869,-0.56486 3.17827,-1.25325 2.96875,-2.06518 -0.10706,-0.4148 -0.60499,-0.77579 -1.49379,-1.08296 -0.87772,-0.30063 -1.35628,-0.4407 -1.4357,-0.42019 l -9.95508,2.56913 -0.52954,-2.05191 9.05488,-2.33682 c 2.1887,-0.56485 3.17714,-1.25765 2.96534,-2.07841 -0.10479,-0.40597 -0.60157,-0.76255 -1.49037,-1.06972 -0.87772,-0.30063 -1.35629,-0.44069 -1.43571,-0.42019 l -9.95508,2.56913 -0.53296,-2.06515 13.79415,-3.55989 0.51246,1.98572 -2.07839,0.53638 c 0.83271,0.19927 1.53362,0.50787 2.10274,0.9258 0.58019,0.42447 0.93862,0.90146 1.07529,1.43099 0.14347,0.556 0.0515,1.11158 -0.27585,1.66673 -0.31858,0.55287 -0.82248,1.00767 -1.5117,1.3644 0.83271,0.19927 1.53476,0.51228 2.10615,0.93904 0.58019,0.42446 0.93748,0.89705 1.07188,1.41775 0.43045,1.668 -0.84582,2.88692 -3.82879,3.65676 l -9.65061,2.49056"
         id="path3173"
         style="font-size:28px" />
      <path
         d="m 441.58195,612.42896 c 0.0558,1.95883 -0.58318,3.53625 -1.91684,4.73227 -1.33369,1.19599 -3.11661,1.82577 -5.34877,1.88936 -2.2504,0.0641 -4.07994,-0.46283 -5.48863,-1.58071 -1.4087,-1.11792 -2.14095,-2.65629 -2.19673,-4.61512 -0.0561,-1.96796 0.58276,-3.54993 1.91644,-4.74593 1.34305,-1.18716 3.14432,-1.81291 5.40383,-1.87726 2.24127,-0.0638 4.05714,0.46346 5.44763,1.58188 1.39958,1.11816 2.12726,2.65666 2.18307,4.61551 m -13.09235,0.37287 c 0.0368,1.29374 0.61256,2.29859 1.72714,3.01455 1.11458,0.71594 2.45085,1.05174 4.00882,1.00738 1.63995,-0.0467 2.97785,-0.45411 4.01371,-1.22218 1.03583,-0.7681 1.53507,-1.80812 1.49772,-3.12008 -0.0376,-1.32108 -0.5907,-2.33114 -1.6592,-3.03016 -1.05941,-0.6993 -2.42276,-1.0252 -4.09004,-0.97771 -1.5853,0.0451 -2.90954,0.45215 -3.97271,1.22101 -1.05407,0.7686 -1.56255,1.80432 -1.52544,3.10719"
         id="path3175"
         style="font-size:28px" />
      <path
         d="m 426.99997,635.15674 0,-2.13281 9.13281,0 c 1.26692,-2e-5 2.18293,-0.20509 2.74805,-0.61524 0.5742,-0.40105 0.86131,-1.03451 0.86133,-1.90039 -2e-5,-1.30339 -0.81121,-2.70248 -2.4336,-4.19726 l -10.30859,0 0,-2.13282 14.24609,0 0,2.13282 -2.09179,0 c 1.62238,1.53124 2.43358,3.14452 2.43359,4.83984 -2e-5,2.67056 -1.61329,4.00584 -4.83984,4.00586 l -9.74805,0"
         id="path3177"
         style="font-size:28px" />
      <path
         d="m 441.58786,646.42236 c -10e-6,1.95963 -0.68361,3.51822 -2.05078,4.67579 -1.3672,1.15753 -3.16733,1.73631 -5.40039,1.73632 -2.25131,-10e-6 -4.06511,-0.57879 -5.44141,-1.73633 -1.3763,-1.15756 -2.06445,-2.71615 -2.06445,-4.67578 0,-1.96875 0.68359,-3.5319 2.05078,-4.68945 1.3763,-1.14844 3.19466,-1.72266 5.45508,-1.72266 2.24218,0 4.0423,0.57878 5.40039,1.73633 1.36717,1.15755 2.05077,2.71614 2.05078,4.67578 m -13.09766,0 c 0,1.29426 0.54688,2.3151 1.64063,3.0625 1.09374,0.74739 2.41991,1.12108 3.97851,1.1211 1.64062,-2e-5 2.98958,-0.36916 4.04688,-1.10742 1.05728,-0.7383 1.58592,-1.76369 1.58594,-3.07618 -2e-5,-1.32162 -0.5241,-2.34701 -1.57227,-3.07617 -1.03907,-0.72917 -2.39259,-1.09375 -4.06055,-1.09375 -1.58594,0 -2.92122,0.36914 -4.00586,1.10742 -1.07552,0.73828 -1.61328,1.75911 -1.61328,3.0625"
         id="path3179"
         style="font-size:28px" />
      <path
         d="m 426.99997,668.68018 0,-2.13282 2.05078,0 c -0.70182,-0.43751 -1.2806,-1.06641 -1.73633,-1.88672 -0.45573,-0.8112 -0.68359,-1.66797 -0.68359,-2.57031 0,-1.63151 0.72461,-2.92123 2.17383,-3.86914 1.45833,-0.94792 3.30403,-1.42188 5.53711,-1.42187 2.08723,-10e-6 3.81444,0.49218 5.18164,1.47656 1.37628,0.99348 2.06444,2.30598 2.06445,3.9375 -10e-6,1.79556 -0.72918,3.24022 -2.1875,4.33398 l 6.89062,0 0,2.13282 -19.29101,0 m 4.36133,-2.13282 5.91992,0 c 1.64061,-1.02084 2.46092,-2.25131 2.46094,-3.6914 -2e-5,-1.17579 -0.5241,-2.10548 -1.57227,-2.78906 -1.03907,-0.6836 -2.35613,-1.0254 -3.95117,-1.0254 -1.64063,0 -2.9987,0.31901 -4.07422,0.95704 -1.06641,0.64712 -1.59961,1.53124 -1.59961,2.65234 0,0.53775 0.14583,1.08007 0.4375,1.62695 0.29167,0.54687 0.72916,1.06184 1.3125,1.54492 0.58333,0.48307 0.9388,0.7246 1.06641,0.72461"
         id="path3181"
         style="font-size:28px" />
      <path
         d="m 434.05466,685.94775 0,-9.77539 c -1.61329,0 -2.94402,0.46484 -3.99219,1.39453 -1.04818,0.9388 -1.57227,2.08724 -1.57227,3.44532 0,1.29426 0.23242,2.62954 0.69727,4.00586 l -1.70899,0.36914 c -0.5651,-1.25783 -0.84765,-2.72527 -0.84765,-4.40235 0,-2.11459 0.67903,-3.81901 2.03711,-5.11328 1.35807,-1.29427 3.1901,-1.94141 5.49609,-1.9414 2.26041,-10e-6 4.06054,0.57877 5.40039,1.73632 1.34895,1.16667 2.02343,2.67057 2.02344,4.51172 -10e-6,1.64062 -0.62436,3.01236 -1.87305,4.11524 -1.24871,1.10285 -2.91212,1.65428 -4.99023,1.65429 l -0.66992,0 m 1.73632,-2.32421 c 1.11197,-2e-5 2.04622,-0.34637 2.80274,-1.03907 0.76561,-0.69272 1.14842,-1.46745 1.14844,-2.32422 -2e-5,-1.10287 -0.3646,-2.01888 -1.09375,-2.74804 -0.72918,-0.72006 -1.68165,-1.1211 -2.85743,-1.20313 l 0,7.31446"
         id="path3183"
         style="font-size:28px" />
      <path
         d="m 441.24419,702.95991 -14.24445,-5.40473 5.9e-4,-1.94141 14.24773,-5.3687 -7.1e-4,2.32421 -11.33521,4.02975 11.33276,4.03666 -7.1e-4,2.32422"
         id="path3185"
         style="font-size:28px" />
      <path
         d="m 432.49378,720.43381 1.38294,-9.67707 c -1.59706,-0.22824 -2.98017,0.0437 -4.14932,0.81572 -1.17045,0.78107 -1.85174,1.84381 -2.04387,3.18823 -0.1831,1.28124 -0.14192,2.63598 0.12354,4.06421 l -1.74402,0.12366 c -0.38148,-1.32512 -0.45358,-2.81778 -0.21633,-4.47799 0.29916,-2.09332 1.21249,-3.68454 2.74001,-4.77366 1.52751,-1.08912 3.43267,-1.47057 5.71547,-1.14434 2.23767,0.31979 3.93781,1.14741 5.10043,2.48287 1.17033,1.34577 1.62527,2.92997 1.36481,4.7526 -0.23212,1.62411 -1.04425,2.89373 -2.4364,3.80886 -1.39217,0.91511 -3.11686,1.22567 -5.17408,0.93169 l -0.66318,-0.0948 m 2.04767,-2.0552 c 1.10079,0.1573 2.07464,-0.0534 2.92155,-0.63211 0.85591,-0.57743 1.34447,-1.29022 1.46569,-2.13837 0.15602,-1.09178 -0.0753,-2.05016 -0.69397,-2.87514 -0.61998,-0.81597 -1.50614,-1.34773 -2.65848,-1.59527 l -1.03479,7.24089"
         id="path3187"
         style="font-size:28px" />
      <path
         d="m 420.07127,733.79067 2.29425,-5.35331 16.0348,6.87197 1.46488,-3.41808 1.69647,0.72706 -2.30502,5.37844 -16.0348,-6.87197 -1.45411,3.39294 -1.69647,-0.72705"
         id="path3189"
         style="font-size:28px" />
      <path
         d="m 424.72868,753.09363 c -1.2141,1.5382 -2.71633,2.3381 -4.50667,2.39969 -1.79034,0.0616 -3.56194,-0.59941 -5.3148,-1.9829 -1.76716,-1.39483 -2.83233,-2.97289 -3.1955,-4.73419 -0.36315,-1.76133 0.0623,-3.4111 1.27641,-4.94931 1.21976,-1.54539 2.7248,-2.34886 4.51515,-2.41043 1.79185,-0.0488 3.57493,0.62706 5.34926,2.02752 1.76,1.38915 2.81443,2.95874 3.16329,4.70878 0.35601,1.75566 -0.073,3.4026 -1.28714,4.94084 m -10.28104,-8.11473 c -0.80186,1.01593 -1.00506,2.15606 -0.60957,3.42038 0.39549,1.2643 1.20494,2.37927 2.42836,3.34492 1.28782,1.01644 2.57539,1.56244 3.86272,1.63799 1.28733,0.0755 2.33757,-0.40184 3.15074,-1.43208 0.81881,-1.03741 1.04271,-2.167 0.67171,-3.38875 -0.36386,-1.21613 -1.20043,-2.34089 -2.5097,-3.37428 -1.24489,-0.98258 -2.52172,-1.52011 -3.83052,-1.61258 -1.30163,-0.0868 -2.35621,0.3813 -3.16374,1.4044"
         id="path3191"
         style="font-size:28px" />
      <path
         d="m 411.34833,763.68692 c 0.0119,0.8094 -0.18392,1.61449 -0.58757,2.41528 -0.41097,0.8062 -0.97462,1.47611 -1.69094,2.00973 -1.31571,0.98007 -2.75199,1.20325 -4.30885,0.66954 -1.55872,-0.52099 -2.98603,-1.6513 -4.28193,-3.39094 -1.30678,-1.75428 -2.00105,-3.5102 -2.08283,-5.26776 -0.0836,-1.74482 0.53972,-3.11271 1.87004,-4.10368 0.70902,-0.52817 1.50486,-0.84823 2.38752,-0.96019 0.8808,-0.0992 1.71808,0.0102 2.51183,0.32812 l -4.59008,-6.16188 1.71042,-1.27412 11.8754,15.94195 -1.71041,1.27411 -1.1026,-1.48016 m -1.26595,-1.69945 -3.53649,-4.7475 c -0.80077,-0.40367 -1.63588,-0.61694 -2.50535,-0.63982 -0.86945,-0.0229 -1.59656,0.18346 -2.18132,0.61906 -0.92099,0.68606 -1.33068,1.66181 -1.22909,2.92726 0.0943,1.27087 0.61788,2.54589 1.57073,3.82506 0.9801,1.31569 2.03999,2.19689 3.17968,2.64359 1.1397,0.44667 2.17369,0.32427 3.102,-0.36723 1.20606,-0.89842 1.73934,-2.31857 1.59984,-4.26042"
         id="path3193"
         style="font-size:28px" />
      <path
         d="m 372.52351,773.10673 c 1.24792,-0.7952 1.84371,-1.43728 1.78737,-1.92623 -0.0303,-0.26259 -0.20522,-0.46721 -0.52489,-0.61388 -0.32872,-0.14562 -0.75567,-0.18818 -1.28084,-0.12766 l -4.75164,0.6851 c -1.13183,0.1304 -2.04195,-0.0446 -2.73037,-0.52492 -0.69746,-0.47931 -1.10461,-1.22602 -1.22147,-2.24014 -0.18465,-1.60268 0.38357,-2.96181 1.70465,-4.07739 1.32111,-1.11557 2.93693,-1.78342 4.84745,-2.00356 1.56647,-0.18048 2.88578,0.002 3.95795,0.54862 1.07114,0.53718 1.66669,1.32642 1.78666,2.3677 0.13041,1.13184 -0.52917,2.17578 -1.97875,3.13184 1.34557,0.45051 2.06843,1.11039 2.16858,1.97964 0.11476,0.99601 -0.60228,2.01905 -2.15112,3.06912 0.8138,0.37415 1.46668,0.90447 1.95865,1.59096 0.49196,0.68647 0.78489,1.43717 0.87879,2.2521 0.15336,1.33103 -0.17366,2.47428 -0.98107,3.42976 -0.80635,0.96451 -1.88863,1.52501 -3.24683,1.68152 -0.9779,0.11265 -1.88421,0.0106 -2.71892,-0.30604 l -4.12329,1.12191 -0.23787,-2.06447 2.70282,-0.31141 c -0.48986,-0.66839 -0.79062,-1.487 -0.90226,-2.45584 -0.14813,-1.28577 0.17488,-2.42397 0.96904,-3.41461 0.79419,-0.99065 1.87943,-1.56525 3.25573,-1.72382 0.28976,-0.0334 0.56697,-0.0562 0.83163,-0.0683 m -0.64228,1.71172 c -0.77869,0.0897 -1.38174,0.42985 -1.80915,1.02042 -0.4354,0.60066 -0.60303,1.33561 -0.50289,2.20487 0.10538,0.91451 0.42775,1.60218 0.96711,2.06302 0.53937,0.46081 1.21198,0.64479 2.01784,0.55196 0.75155,-0.0866 1.35408,-0.43128 1.80759,-1.03401 0.44551,-0.59266 0.61819,-1.32361 0.51803,-2.19285 -0.0981,-0.85115 -0.43244,-1.52367 -1.00315,-2.01758 -0.57871,-0.48382 -1.24383,-0.68243 -1.99538,-0.59583 m -1.3381,-10.89697 c -1.39442,0.16066 -2.54458,0.60972 -3.45052,1.34716 -0.916,0.72944 -1.32132,1.55141 -1.21597,2.46594 0.10852,0.94168 0.85998,1.33219 2.25438,1.17153 0.4618,-0.0532 1.25548,-0.17218 2.38105,-0.35691 0.71115,-0.11864 1.27046,-0.20143 1.67791,-0.24838 0.19921,-0.023 0.49282,-0.22193 0.88082,-0.59693 0.37897,-0.37396 0.66285,-0.73696 0.85165,-1.08901 0.17872,-0.36006 0.24773,-0.71666 0.20704,-1.06979 -0.0636,-0.55234 -0.42574,-0.98771 -1.08633,-1.30612 -0.66161,-0.32746 -1.49496,-0.43329 -2.50003,-0.31749"
         id="path3195"
         style="font-size:28px" />
      <path
         d="m 347.98114,769.00476 c 1.431,-0.65625 2.8392,-0.98437 4.22461,-0.98437 2.54298,0 3.81446,1.3444 3.81445,4.0332 l 0,8.70898 2.73438,0 0,1.84571 -2.73438,0 0,3.89648 -2.07812,0 0,-3.89648 -4.83984,0 -10e-6,-1.84571 4.83985,0 0,-8.14843 c 1e-5,-0.86589 -0.1914,-1.54037 -0.57422,-2.02344 -0.3828,-0.47396 -0.90234,-0.71094 -1.55859,-0.71094 -1.16666,0 -2.31965,0.25977 -3.45899,0.7793 l -0.36914,-1.6543"
         id="path3197"
         style="font-size:28px" />
      <path
         d="m 329.93427,768.36218 2.80273,0 6.04297,7.08203 1.39453,-1.20312 0,-5.87891 2.13281,0 0,19.29102 -2.13281,0 0,-11.06055 -6.68555,6.01563 -2.7207,0 6.49414,-5.82422 -7.32812,-8.42188"
         id="path3199"
         style="font-size:28px" />
      <path
         d="m 312.77606,773.78992 4.34766,0 1.14844,-5.42774 1.92773,0 -1.14844,5.42774 3.66406,0 1.14844,-5.42774 1.92774,0 -1.14844,5.42774 2.61133,0 0,1.79101 -2.99414,0 -1.03907,4.90821 4.03321,0 0,1.79101 -4.40235,0 -1.14844,5.37305 -1.92773,0 1.14844,-5.37305 -3.66406,0 -1.14844,5.37305 -1.92774,0 1.13477,-5.37305 -2.54297,0 0,-1.79102 2.91211,0 1.03906,-4.9082 -3.95117,0 0,-1.79101 m 4.83984,6.69921 3.67774,10e-6 1.02539,-4.90821 -3.66406,0 -1.03907,4.9082"
         id="path3201"
         style="font-size:28px" />
      <path
         d="m 281.0163,768.8407 c 1.23959,-0.56511 2.60222,-0.84766 4.08789,-0.84766 2.24219,0 4.03321,0.67904 5.37304,2.03711 1.33074,1.36719 1.9961,3.18099 1.9961,5.44141 0,2.2604 -0.66992,4.06965 -2.00977,5.42773 -1.34895,1.36718 -3.11718,2.05077 -5.30469,2.05078 -1.43098,-10e-6 -2.7936,-0.25066 -4.08789,-0.75195 l 0.56055,-1.76367 c 1.29428,0.4466 2.46095,0.66991 3.5,0.66992 1.56772,-10e-6 2.81186,-0.50587 3.73242,-1.51758 0.91147,-1.01173 1.36719,-2.38347 1.36719,-4.11523 0,-1.58595 -0.47395,-2.92123 -1.42188,-4.00586 -0.9479,-1.07553 -2.18293,-1.61329 -3.70507,-1.61328 -1.20312,-1e-5 -2.4427,0.23242 -3.71875,0.69726 l -0.36914,-1.70898"
         id="path3203"
         style="font-size:28px" />
      <path
         d="m 263.82225,768.09741 2.11719,0.0908 c 0.14843,0.58111 0.20214,1.34974 0.16113,2.3059 1.28728,-1.72378 2.97357,-2.54097 5.05889,-2.45155 1.05632,0.0453 1.9737,0.45866 2.75213,1.24012 0.76895,0.79018 1.12804,1.77717 1.07727,2.96098 -0.0301,0.70117 -0.19775,1.31434 -0.50309,1.83951 -0.30532,0.52516 -0.73898,0.95815 -1.30098,1.29898 -0.56237,0.34992 -1.23962,0.61281 -2.03174,0.78869 -0.7925,0.18496 -1.72778,0.29539 -2.80583,0.33128 l -2.39858,0.0887 -0.0293,0.68297 c -0.10463,2.44045 0.98133,3.70949 3.25787,3.80712 0.53728,0.023 1.22532,-0.0661 2.06413,-0.26729 0.82932,-0.19253 1.54677,-0.43546 2.15233,-0.72878 l 0.49444,1.55385 c -1.98218,0.9094 -3.80649,1.32838 -5.47293,1.25694 -3.2418,-0.13901 -4.78911,-1.92503 -4.64192,-5.35807 l 0.26238,-6.11937 c 0.0531,-1.23845 -0.018,-2.34538 -0.2134,-3.32079 m 2.30502,4.32733 -0.1107,2.58161 c 1.92885,-0.0906 3.25627,-0.19793 3.98229,-0.32189 0.71654,-0.11525 1.34767,-0.36644 1.8934,-0.75356 0.53663,-0.38753 0.81997,-0.93188 0.85003,-1.63306 0.0273,-0.63744 -0.1737,-1.1615 -0.60312,-1.5722 -0.42941,-0.4107 -0.99016,-0.63089 -1.68223,-0.66056 -0.75581,-0.0324 -1.51664,0.15848 -2.28249,0.57267 -0.76622,0.42329 -1.44862,1.01895 -2.04718,1.78699"
         id="path3205"
         style="font-size:28px" />
      <path
         d="m 246.81121,784.46462 c -0.38534,-0.11107 -0.67339,-0.34584 -0.86415,-0.70432 -0.19325,-0.34976 -0.23436,-0.71731 -0.12333,-1.10266 0.11612,-0.40289 0.34903,-0.70096 0.69876,-0.89421 0.341,-0.1958 0.70855,-0.23691 1.10266,-0.12333 0.3591,0.10346 0.63839,0.33571 0.83788,0.69675 0.18823,0.36725 0.22807,0.73918 0.11954,1.11579 -0.10852,0.37659 -0.33891,0.6659 -0.69119,0.86794 -0.36101,0.19949 -0.72107,0.2475 -1.08017,0.14404 m 4.43788,-19.15287 2.04941,0.59058 -3.43365,11.91552 4.03315,1.16222 -0.51108,1.77353 -6.08256,-1.75279 3.94473,-13.68906"
         id="path3207"
         style="font-size:28px" />
      <path
         d="m 225.71356,768.0329 1.79877,-1.30845 c 0.59078,0.837 1.17857,1.43249 1.76337,1.78646 0.53804,0.32565 1.15876,0.48827 1.86217,0.48786 0.69871,0.007 1.44101,-0.14528 2.22691,-0.458 0.7734,-0.30964 1.18134,-0.49955 1.2238,-0.56973 l 4.77149,-7.88329 1.81292,1.0973 -7.37668,12.18752 -1.81293,-1.0973 1.49375,-2.46791 c -2.0885,1.25026 -3.9086,1.4058 -5.46033,0.46661 -0.92009,-0.55691 -1.68783,-1.30394 -2.30324,-2.24107"
         id="path3209"
         style="font-size:28px" />
      <path
         d="m 214.20775,758.76673 c -1.35557,-1.41511 -1.9401,-3.0135 -1.75357,-4.79517 0.18656,-1.78166 1.08612,-3.44486 2.69868,-4.98961 1.62575,-1.55734 3.33592,-2.39409 5.13052,-2.51026 1.79463,-0.11616 3.36973,0.53332 4.72531,1.94843 1.3619,1.4217 1.94957,3.02338 1.76302,4.80504 -0.19943,1.78139 -1.1153,3.45391 -2.74762,5.01757 -1.61915,1.55104 -3.31945,2.37833 -5.10091,2.48189 -1.78802,0.10985 -3.35983,-0.54278 -4.71543,-1.95789 m 9.45823,-9.06038 c -0.89532,-0.93463 -1.9964,-1.2935 -3.30325,-1.07661 -1.30684,0.21689 -2.52302,0.86442 -3.64854,1.94258 -1.18473,1.13492 -1.9035,2.33463 -2.15631,3.59915 -0.25277,1.26453 0.0748,2.37069 0.98271,3.31849 0.91425,0.95437 2.00203,1.3323 3.26334,1.13377 1.25476,-0.19222 2.48437,-0.86525 3.68886,-2.01907 1.14526,-1.09709 1.85415,-2.28735 2.12669,-3.57078 0.26596,-1.27714 -0.0519,-2.38631 -0.9535,-3.32753"
         id="path3211"
         style="font-size:28px" />
      <path
         d="m 207.41834,713.84885 0.4985,2.05967 c -0.51736,0.30341 -1.24113,0.56767 -2.17131,0.79279 2.01263,0.76013 3.26444,2.15452 3.75544,4.18318 0.24872,1.02763 0.10527,2.02356 -0.43033,2.98781 -0.54659,0.95754 -1.39572,1.57567 -2.54737,1.8544 -0.68212,0.1651 -1.31775,0.17358 -1.90689,0.0255 -0.58913,-0.14812 -1.1252,-0.44506 -1.6082,-0.89083 -0.49185,-0.44362 -0.93185,-1.0217 -1.32001,-1.73425 -0.39699,-0.71039 -0.76186,-1.57861 -1.0946,-2.60466 l -0.74886,-2.28041 -0.66441,0.16081 c -2.37415,0.57462 -3.29321,1.96928 -2.75721,4.18397 0.12652,0.52268 0.40249,1.15922 0.82792,1.90962 0.41445,0.74369 0.84638,1.36592 1.29579,1.8667 l -1.35642,0.90503 c -1.42228,-1.65322 -2.32962,-3.29041 -2.722,-4.91158 -0.76328,-3.15373 0.52495,-5.13475 3.86471,-5.94309 l 5.95312,-1.44083 c 1.2048,-0.29158 2.24884,-0.66618 3.13213,-1.12379 m -3.52072,3.41224 -2.51148,0.60785 c 0.62073,1.82848 1.09109,3.07441 1.41106,3.7378 0.30899,0.65669 0.72498,1.19369 1.24798,1.61101 0.52086,0.40847 1.12236,0.53016 1.80448,0.36506 0.62012,-0.15008 1.06811,-0.48826 1.34398,-1.01455 0.27587,-0.52627 0.33233,-1.12604 0.16937,-1.79932 -0.17795,-0.73527 -0.57188,-1.41359 -1.18178,-2.03496 -0.61875,-0.61921 -1.37996,-1.11017 -2.28361,-1.47289"
         id="path3213"
         style="font-size:28px" />
      <path
         d="m 194.70546,699.15151 c -0.36563,1.20233 -0.53685,2.33201 -0.51368,3.38904 0.0254,1.15728 0.24141,2.06878 0.64803,2.73449 0.39752,0.66593 0.91977,0.99179 1.56674,0.97759 0.41007,-0.009 0.76661,-0.1718 1.06962,-0.48842 0.29392,-0.31641 0.56281,-0.94225 0.80667,-1.87752 l 0.54307,-2.04952 c 0.24368,-0.94436 0.54582,-1.7168 0.90642,-2.31731 0.35151,-0.60029 0.78832,-1.05203 1.31044,-1.35524 0.51281,-0.31209 1.11548,-0.47574 1.80802,-0.49095 1.35775,-0.0298 2.44551,0.51616 3.26327,1.63781 0.80866,1.12186 1.23228,2.56214 1.27086,4.32082 0.0384,1.74958 -0.19419,3.19969 -0.69772,4.35033 l -1.85425,-0.36957 c 0.53878,-1.20611 0.79317,-2.4926 0.76318,-3.85947 -0.026,-1.1846 -0.26577,-2.14116 -0.71936,-2.86967 -0.4629,-0.73741 -1.05884,-1.09813 -1.78784,-1.08214 -0.49206,0.0108 -0.92536,0.2072 -1.29989,0.5892 -0.38383,0.3731 -0.77034,1.24767 -1.15953,2.62372 -0.31296,1.11 -0.54576,1.9265 -0.69839,2.4495 -0.16173,0.52321 -0.40173,1.01166 -0.71999,1.46536 -0.31824,0.45371 -0.70257,0.80402 -1.153,1.05093 -0.45062,0.23781 -0.95841,0.36291 -1.52339,0.3753 -1.23016,0.027 -2.21698,-0.48924 -2.96046,-1.54872 -0.74346,-1.05946 -1.13468,-2.47765 -1.17368,-4.25457 -0.0252,-1.14816 0.14275,-2.42819 0.50378,-3.8401 l 1.80108,0.43911"
         id="path3215"
         style="font-size:28px" />
      <path
         d="m 194.59958,689.44916 c -0.65624,-0.47395 -1.18488,-1.11197 -1.58594,-1.91406 -0.40103,-0.81119 -0.60155,-1.66341 -0.60156,-2.55664 1e-5,-1.64062 0.67905,-2.92577 2.03711,-3.85547 1.34897,-0.93879 3.10808,-1.40819 5.27734,-1.40821 2.18751,2e-5 4.01042,0.4922 5.46875,1.47657 1.44922,0.97527 2.17383,2.29232 2.17383,3.95117 0,0.88412 -0.21875,1.71355 -0.65625,2.48828 -0.44661,0.76563 -1.0345,1.37175 -1.76367,1.81836 l 7.68359,0 0,2.13281 -19.8789,0 0,-2.13281 1.8457,0 m 2.11914,0 5.91992,0 c 0.80209,-0.40104 1.47201,-0.94336 2.00977,-1.62696 0.53776,-0.68358 0.80664,-1.38996 0.80664,-2.11914 0,-1.14842 -0.53776,-2.05988 -1.61328,-2.73437 -1.07552,-0.68358 -2.41081,-1.02538 -4.00586,-1.02539 -1.64062,10e-6 -2.98046,0.32358 -4.01953,0.9707 -1.03906,0.64715 -1.55859,1.54949 -1.5586,2.70703 1e-5,1.50392 0.82033,2.77996 2.46094,3.82813"
         id="path3217"
         style="font-size:28px" />
      <path
         d="m 203.86911,669.41986 c 0,-0.48306 0.16407,-0.88866 0.49219,-1.2168 0.32812,-0.32811 0.73372,-0.49217 1.21679,-0.49218 0.49219,10e-6 0.91602,0.16863 1.27149,0.50586 0.34635,0.32813 0.51953,0.72917 0.51953,1.20312 0,0.46485 -0.17318,0.86134 -0.51953,1.18945 -0.35547,0.32814 -0.7793,0.4922 -1.27149,0.49219 -0.49218,10e-6 -0.89778,-0.1595 -1.21679,-0.47851 -0.32812,-0.32812 -0.49219,-0.72916 -0.49219,-1.20313"
         id="path3219"
         style="font-size:28px" />
      <path
         d="m 206.99997,647.02533 0,2.13281 -9.13281,0 c -1.26692,10e-6 -2.18293,0.20509 -2.74805,0.61524 -0.57421,0.40105 -0.86132,1.03451 -0.86133,1.90039 1e-5,1.30339 0.81121,2.70248 2.4336,4.19726 l 10.30859,0 0,2.13282 -14.24609,0 0,-2.13282 2.09179,0 c -1.62238,-1.53124 -2.43358,-3.14452 -2.43359,-4.83984 1e-5,-2.67056 1.61329,-4.00585 4.83984,-4.00586 l 9.74805,0"
         id="path3221"
         style="font-size:28px" />
      <path
         d="m 199.94528,629.81244 0,9.77539 c 1.61329,0 2.94402,-0.46484 3.99219,-1.39453 1.04818,-0.9388 1.57227,-2.08723 1.57226,-3.44531 1e-5,-1.29426 -0.23242,-2.62955 -0.69726,-4.00586 l 1.70898,-0.36914 c 0.56511,1.25782 0.84766,2.72527 0.84766,4.40234 0,2.11459 -0.67904,3.81902 -2.03711,5.11328 -1.35807,1.29427 -3.1901,1.94141 -5.49609,1.94141 -2.26041,0 -4.06054,-0.57878 -5.40039,-1.73633 -1.34895,-1.16666 -2.02343,-2.67057 -2.02344,-4.51172 1e-5,-1.64061 0.62436,-3.01236 1.87305,-4.11523 1.2487,-1.10285 2.91211,-1.65429 4.99023,-1.6543 l 0.66992,0 m -1.73633,2.32422 c -1.11197,10e-6 -2.04621,0.34636 -2.80273,1.03906 -0.76561,0.69272 -1.14843,1.46746 -1.14844,2.32422 1e-5,1.10287 0.3646,2.01889 1.09375,2.74805 0.72918,0.72005 1.68165,1.12109 2.85742,1.20312 l 0,-7.31445"
         id="path3223"
         style="font-size:28px" />
      <path
         d="m 206.36555,613.30957 c 0.65419,1.43195 0.98028,2.84062 0.97829,4.22603 -0.004,2.54297 -1.3499,3.81252 -4.0387,3.80863 l -8.70898,-0.0126 -0.004,2.73437 -1.8457,-0.003 0.004,-2.73437 -3.89648,-0.006 0.003,-2.07812 3.89648,0.006 0.007,-4.83984 1.84571,0.003 -0.007,4.83984 8.14843,0.0117 c 0.86589,10e-4 1.54064,-0.18917 2.02426,-0.5713 0.47451,-0.38212 0.71224,-0.90131 0.71318,-1.55757 0.002,-1.16665 -0.25641,-2.32002 -0.7743,-3.4601 l 1.65482,-0.36676"
         id="path3225"
         style="font-size:28px" />
      <path
         d="m 214.37744,582.07767 -2.3751,5.31793 -15.92883,-7.11418 -1.5165,3.39549 -1.68526,-0.75268 2.38626,-5.34289 15.92882,7.11417 1.50536,-3.37052 1.68525,0.75268"
         id="path3227"
         style="font-size:28px" />
      <path
         d="m 206.68633,558.80093 c 0.2532,-0.311 0.58207,-0.484 0.98664,-0.51901 0.39752,-0.0407 0.75178,0.0655 1.06279,0.31865 0.32516,0.26472 0.50811,0.59582 0.54885,0.9933 0.0465,0.39046 -0.0597,0.74472 -0.31866,1.06279 -0.23592,0.28983 -0.55904,0.45576 -0.96938,0.49781 -0.41163,0.0293 -0.76943,-0.0798 -1.07339,-0.32729 -0.30394,-0.24742 -0.47982,-0.57276 -0.52764,-0.97604 -0.0421,-0.41031 0.0549,-0.76038 0.29079,-1.05021 m 15.8817,11.58873 -1.34649,1.65405 -9.6168,-7.82859 -2.64981,3.25508 -1.43138,-1.16523 3.99629,-4.90912 11.04819,8.99381"
         id="path3229"
         style="font-size:28px" />
      <path
         d="m 237.98004,557.1947 -1.72944,1.24817 -5.34471,-7.40556 c -0.74144,-1.02731 -1.4438,-1.65006 -2.10709,-1.86828 -0.66124,-0.2309 -1.34292,-0.093 -2.04505,0.41372 -1.05688,0.76278 -1.71663,2.23934 -1.97926,4.42967 l 6.0328,8.35897 -1.72944,1.24816 -8.33711,-11.55178 1.72944,-1.24817 1.22416,1.69618 c 0.2922,-2.21166 1.12564,-3.81356 2.50032,-4.80571 2.1655,-1.56286 4.19237,-1.03613 6.08062,1.58019 l 5.70476,7.90444"
         id="path3231"
         style="font-size:28px" />
      <path
         d="m 255.35184,555.82944 -1.99485,0.75463 -2.71862,-7.18656 c -0.16089,0.81123 -0.54433,1.57508 -1.15032,2.29157 -0.59749,0.71327 -1.31822,1.22954 -2.16218,1.54881 -1.52598,0.57726 -2.98542,0.36438 -4.37833,-0.63865 -1.39292,-1.00303 -2.4812,-2.54033 -3.26486,-4.6119 -0.75141,-1.98632 -0.91186,-3.80152 -0.48135,-5.44562 0.43051,-1.64408 1.41301,-2.75637 2.94751,-3.33687 1.67941,-0.6353 3.28862,-0.46445 4.82761,0.51254 l -0.65305,-1.72631 1.99485,-0.75464 7.03359,18.593 m -5.53099,-8.59301 -2.0946,-5.53698 c -1.53529,-1.17329 -2.97641,-1.50518 -4.32335,-0.99565 -1.09973,0.41603 -1.78062,1.24368 -2.04267,2.48296 -0.26206,1.23931 -0.10929,2.60915 0.4583,4.10954 0.57726,1.52598 1.3497,2.66628 2.31732,3.4209 0.97613,0.75141 1.98849,0.92878 3.03707,0.53211 0.50297,-0.19027 0.9586,-0.51855 1.36691,-0.98485 0.40829,-0.46629 0.73516,-1.0577 0.9806,-1.77423 0.24542,-0.71651 0.34556,-1.13445 0.30042,-1.2538"
         id="path3233"
         style="font-size:28px" />
    </g>
    <text
       transform="translate(544.27954,137.93944)"
       id="text3095-5"
       xml:space="preserve"
       style="font-size:40px;font-style:normal;font-variant:normal;font-weight:normal;font-stretch:normal;line-height:125%;letter-spacing:0px;word-spacing:0px;fill:#000000;fill-opacity:1;stroke:none;font-family:Andale Mono;-inkscape-font-specification:Andale Mono"><textPath
         xlink:href="#rect3788-2-8"
         id="textPath3190-8"
         style="font-size:28px">mono .net monodevelop gtk# cairo asp.net linq m</textPath></text>
  </g>
</svg>
